<svg width="24" height="24" viewBox="0 0 24 24" fill="none" xmlns="http://www.w3.org/2000/svg">
<g clip-path="url(#clip0_488_3966)">
<path d="M18.0998 12.2225C18.587 11.3744 18.8654 10.3934 18.8654 9.34793C18.8654 6.35536 16.1259 2.80597 13.9392 0.569095C13.8362 0.463727 13.7344 0.361159 13.6342 0.261827C13.4562 0.0875012 13.2232 0.000145048 12.9902 1.79096e-07C12.7564 -0.00014469 12.5227 0.0875978 12.3451 0.263614C10.1521 2.43781 7.11499 6.27883 7.11499 9.34793C7.11499 12.6551 9.76044 15.1686 12.9902 15.1687C15.1798 15.1689 17.0892 13.982 18.0998 12.2225Z" fill="#FF6963"/>
<path d="M18.0999 12.2225C17.8499 12.2546 17.5951 12.2713 17.3363 12.2713C14.1065 12.2712 11.4611 9.75767 11.4611 6.45054C11.4611 5.1078 12.0424 3.61738 12.8801 2.18342C13.3818 1.32449 14.5832 1.22632 15.2298 1.98152C14.7947 1.47153 14.3569 0.996314 13.9393 0.569046C13.8363 0.463678 13.7344 0.361111 13.6342 0.261779C13.4563 0.0875012 13.2232 0.000145048 12.9902 1.79096e-07C12.7564 -0.00014469 12.5227 0.0875978 12.3451 0.263614C10.1521 2.43781 7.11499 6.27883 7.11499 9.34793C7.11499 12.6551 9.76045 15.1686 12.9902 15.1687C15.1798 15.1689 17.0892 13.982 18.0999 12.2225Z" fill="#ED3F32"/>
<path d="M5.57475 12.4125C5.43645 12.277 5.25527 12.2091 5.07418 12.209C4.89242 12.2089 4.71075 12.2771 4.57274 12.4139C2.86806 14.1039 0.507324 17.0896 0.507324 19.4752C0.507324 22.0459 2.56365 23.9997 5.07418 23.9997C6.4514 23.9998 7.68608 23.3958 8.52337 22.4406C9.21957 21.6464 9.64104 20.6095 9.64104 19.4752C9.64104 17.2116 7.6247 14.5384 5.95001 12.794C5.82258 12.6613 5.69712 12.5338 5.57475 12.4125Z" fill="#FF6963"/>
<path d="M3.59886 17.9299C3.59886 16.7497 4.17664 15.4227 4.96695 14.1783C5.44068 13.4324 6.50913 13.37 7.06997 14.0527C6.69703 13.5983 6.31588 13.1741 5.951 12.794C5.82361 12.6613 5.69816 12.5338 5.57579 12.4125C5.43749 12.277 5.25631 12.2091 5.07522 12.209C4.89346 12.2089 4.71179 12.2771 4.57378 12.4139C2.8691 14.1039 0.508362 17.0896 0.508362 19.4752C0.508362 22.0459 2.56468 23.9997 5.07522 23.9997C6.45244 23.9998 7.68711 23.3958 8.52441 22.4406C8.40605 22.4497 8.28649 22.4544 8.16576 22.4544C5.65518 22.4543 3.59886 20.5006 3.59886 17.9299Z" fill="#ED3F32"/>
<path d="M20.8475 13.3169C20.7419 13.2061 20.6378 13.0997 20.5367 12.9995C20.4361 12.901 20.3044 12.8517 20.1728 12.8516C20.0406 12.8515 19.9086 12.9011 19.8082 13.0005C18.569 14.2291 16.8528 16.3996 16.8528 18.1338C16.8528 20.0026 18.3477 21.423 20.1728 21.423C21.5188 21.4231 22.6768 20.6289 23.198 19.4882C23.3867 19.0751 23.4927 18.6168 23.4927 18.1338C23.4927 16.5054 22.0573 14.5856 20.8475 13.3169Z" fill="#FF6963"/>
<path d="M19.7502 16.2022C19.7502 15.5502 19.993 14.8366 20.3617 14.1346C20.5839 13.7115 21.1635 13.6515 21.4739 14.0138C21.264 13.766 21.0525 13.5319 20.8475 13.3169C20.7419 13.2061 20.6378 13.0997 20.5367 12.9995C20.4361 12.901 20.3044 12.8517 20.1728 12.8516C20.0406 12.8515 19.9086 12.9011 19.8082 13.0005C18.569 14.2291 16.8528 16.3996 16.8528 18.1338C16.8528 20.0026 18.3477 21.423 20.1728 21.423C21.5188 21.4231 22.6768 20.6289 23.198 19.4882C23.1555 19.4898 23.113 19.4914 23.0701 19.4914C21.2451 19.4914 19.7502 18.071 19.7502 16.2022Z" fill="#ED3F32"/>
</g>
<defs>
<clipPath id="clip0_488_3966">
<rect width="24" height="24" fill="white"/>
</clipPath>
</defs>
</svg>
