<svg width="24" height="24" viewBox="0 0 24 24" fill="none" xmlns="http://www.w3.org/2000/svg">
<g clip-path="url(#clip0_499_4011)">
<path d="M14.0676 8.64627V4.71875C14.0676 4.71875 3.01157 4.71875 2.67224 4.71875H2.67163V7.45803C2.67163 8.11386 3.20338 8.64627 3.85987 8.64627H14.0676Z" fill="#FD8724"/>
<path d="M9.93237 19.6209V15.6934C9.93237 15.6934 20.9884 15.6934 21.3277 15.6934H21.3283V18.4326C21.3283 19.0885 20.7966 19.6209 20.1401 19.6209H9.93237Z" fill="#FD8724"/>
<path d="M19.1305 15.6198C19.1305 15.9366 19.0542 16.3432 18.9248 16.8058C18.8301 17.1443 18.7065 17.5122 18.5635 17.8976C17.7363 20.1203 16.249 22.9072 15.7903 23.7484C15.7058 23.9039 15.5435 24 15.3663 24H6.64805C6.47082 24 6.30858 23.9039 6.22407 23.7484C5.94497 23.236 5.28385 22.0022 4.62324 20.6134C4.01091 19.3265 3.39863 17.9072 3.08958 16.8058C2.96016 16.3432 2.88385 15.9366 2.88385 15.6198C2.88385 14.8133 3.0939 14.0566 3.46187 13.4004C3.68494 13.003 3.96601 12.6422 4.2939 12.3298C4.42716 12.2028 4.55466 12.0705 4.67537 11.9339C5.77154 10.6957 6.36212 9.07655 6.36212 7.40911V0.482906C6.36216 0.216328 6.57854 0 6.84507 0H15.1693C15.4358 0 15.6522 0.216328 15.6522 0.482906V7.40911C15.6522 9.07561 16.2423 10.6938 17.3375 11.9319C17.4587 12.0696 17.5867 12.2024 17.7204 12.3299C18.155 12.7437 18.5075 13.2425 18.7514 13.7998C18.7876 13.8819 18.8214 13.9659 18.8518 14.0505C19.0324 14.5395 19.1305 15.0683 19.1305 15.6198Z" fill="#FFE09F"/>
<path d="M19.1305 15.6183C19.1305 15.9351 19.0542 16.3417 18.9247 16.8043C18.8301 17.1428 18.7065 17.5107 18.5635 17.8961H10.4151C9.85592 17.8961 9.401 17.4412 9.401 16.882V15.0629C9.401 14.5038 9.85588 14.0488 10.4151 14.0488H18.8518C19.0324 14.5381 19.1305 15.0669 19.1305 15.6183Z" fill="#FECBAA"/>
<path d="M11.3693 19.3887H10.6449V24.0002H11.3693V19.3887Z" fill="#FECBAA"/>
<path d="M10.7836 13.4001H3.46191C3.68499 13.0027 3.96605 12.642 4.29395 12.3295C4.42721 12.2025 4.55471 12.0702 4.67541 11.9336C5.77159 10.6954 6.36216 9.07627 6.36216 7.40883V0.808594H8.36959C8.36959 0.808594 6.97304 10.5824 10.7836 13.4001Z" fill="#FECBAA"/>
<path d="M19.1305 15.6195C19.1305 15.9363 19.0542 16.3429 18.9248 16.8055H18.269C16.7783 16.8055 15.3808 17.2029 14.1764 17.8973C13.0619 18.5391 12.1135 19.4359 11.408 20.5074C11.2192 20.7937 10.7947 20.7937 10.6064 20.5074C9.13885 18.2773 6.61426 16.8055 3.74537 16.8055H3.08958C2.96016 16.3429 2.88385 15.9363 2.88385 15.6195C2.88385 14.3248 3.42516 13.1572 4.2939 12.3295C4.42716 12.2025 4.55466 12.0702 4.67537 11.9336C6.5461 12.4937 8.8621 13.0138 11.0071 13.0138C13.1453 13.0138 15.4633 12.4923 17.3374 11.9316C17.4586 12.0693 17.5866 12.2021 17.7203 12.3296C18.1549 12.7434 18.5074 13.2422 18.7513 13.7995C18.7875 13.8816 18.8213 13.9656 18.8517 14.0502C19.0324 14.5393 19.1305 15.0681 19.1305 15.6195Z" fill="#FF6963"/>
<path d="M19.1305 15.6203C19.1305 15.937 19.0542 16.3436 18.9247 16.8062H18.269C16.7782 16.8062 15.3808 17.2036 14.1764 17.898H10.4151C9.85592 17.898 9.401 17.4432 9.401 16.884V15.0649C9.401 14.5057 9.85588 14.0508 10.4151 14.0508H18.8518C19.0324 14.54 19.1305 15.0688 19.1305 15.6203Z" fill="#FC3E81"/>
<path d="M9.93243 15.0649V16.8839C9.93243 17.1506 10.1486 17.3668 10.4153 17.3668H20.1402C20.7811 17.3668 21.3035 17.8743 21.3278 18.5095H21.3284V15.7703C21.3284 15.1144 20.7966 14.582 20.1402 14.582H10.4153C10.1486 14.582 9.93243 14.7982 9.93243 15.0649Z" fill="#FDB659"/>
<path d="M19.1701 17.3706C18.9701 17.3706 18.808 17.2084 18.808 17.0084V16.1356C18.808 15.9355 18.9701 15.7734 19.1701 15.7734C19.3702 15.7734 19.5323 15.9356 19.5323 16.1356V17.0084C19.5323 17.2085 19.3702 17.3706 19.1701 17.3706Z" fill="#43A3F9"/>
<path d="M17.6739 17.3706C17.4739 17.3706 17.3118 17.2084 17.3118 17.0084V16.1356C17.3118 15.9355 17.4739 15.7734 17.6739 15.7734C17.8739 15.7734 18.0361 15.9356 18.0361 16.1356V17.0084C18.0361 17.2085 17.8739 17.3706 17.6739 17.3706Z" fill="#43A3F9"/>
<path d="M16.1778 17.3706C15.9778 17.3706 15.8157 17.2084 15.8157 17.0084V16.1356C15.8157 15.9355 15.9778 15.7734 16.1778 15.7734C16.3778 15.7734 16.54 15.9356 16.54 16.1356V17.0084C16.54 17.2085 16.3778 17.3706 16.1778 17.3706Z" fill="#43A3F9"/>
<path d="M14.6816 17.3706C14.4816 17.3706 14.3195 17.2084 14.3195 17.0084V16.1356C14.3195 15.9355 14.4816 15.7734 14.6816 15.7734C14.8816 15.7734 15.0438 15.9356 15.0438 16.1356V17.0084C15.0438 17.2085 14.8816 17.3706 14.6816 17.3706Z" fill="#43A3F9"/>
<path d="M13.1854 17.3706C12.9854 17.3706 12.8232 17.2084 12.8232 17.0084V16.1356C12.8232 15.9355 12.9854 15.7734 13.1854 15.7734C13.3854 15.7734 13.5476 15.9356 13.5476 16.1356V17.0084C13.5476 17.2085 13.3854 17.3706 13.1854 17.3706Z" fill="#43A3F9"/>
<path d="M11.6892 17.3706C11.4892 17.3706 11.327 17.2084 11.327 17.0084V16.1356C11.327 15.9355 11.4892 15.7734 11.6892 15.7734C11.8892 15.7734 12.0513 15.9356 12.0513 16.1356V17.0084C12.0514 17.2085 11.8892 17.3706 11.6892 17.3706Z" fill="#43A3F9"/>
<path d="M14.5989 4.09026V5.90934C14.5989 6.46804 14.1441 6.92343 13.5849 6.92343H6.36218V3.07617H13.5849C14.1441 3.07617 14.5989 3.53109 14.5989 4.09026Z" fill="#FECBAA"/>
<path d="M14.0676 4.09033V5.90931C14.0676 6.17603 13.8514 6.39221 13.5847 6.39221H3.85988C3.219 6.39221 2.69658 6.89968 2.6723 7.53493H2.67169V4.79565C2.67169 4.13983 3.20344 3.60742 3.85993 3.60742H13.5848C13.8514 3.60742 14.0676 3.82366 14.0676 4.09033Z" fill="#FDB659"/>
<path d="M4.82987 6.39595C4.62985 6.39595 4.46771 6.23381 4.46771 6.0338V5.16098C4.46771 4.96092 4.62985 4.79883 4.82987 4.79883C5.02988 4.79883 5.19203 4.96097 5.19203 5.16098V6.0338C5.19203 6.23381 5.02988 6.39595 4.82987 6.39595Z" fill="#43A3F9"/>
<path d="M6.32615 6.39595C6.12613 6.39595 5.96399 6.23381 5.96399 6.0338V5.16098C5.96399 4.96092 6.12613 4.79883 6.32615 4.79883C6.52616 4.79883 6.6883 4.96097 6.6883 5.16098V6.0338C6.6883 6.23381 6.52616 6.39595 6.32615 6.39595Z" fill="#43A3F9"/>
<path d="M7.82218 6.39595C7.62216 6.39595 7.46002 6.23381 7.46002 6.0338V5.16098C7.46002 4.96092 7.62216 4.79883 7.82218 4.79883C8.02219 4.79883 8.18433 4.96097 8.18433 5.16098V6.0338C8.18438 6.23381 8.02219 6.39595 7.82218 6.39595Z" fill="#43A3F9"/>
<path d="M9.31846 6.39595C9.11844 6.39595 8.9563 6.23381 8.9563 6.0338V5.16098C8.9563 4.96092 9.11844 4.79883 9.31846 4.79883C9.51847 4.79883 9.68061 4.96097 9.68061 5.16098V6.0338C9.68066 6.23381 9.51847 6.39595 9.31846 6.39595Z" fill="#43A3F9"/>
<path d="M10.8147 6.39595C10.6147 6.39595 10.4525 6.23381 10.4525 6.0338V5.16098C10.4525 4.96092 10.6147 4.79883 10.8147 4.79883C11.0147 4.79883 11.1768 4.96097 11.1768 5.16098V6.0338C11.1768 6.23381 11.0147 6.39595 10.8147 6.39595Z" fill="#43A3F9"/>
<path d="M12.3108 6.39595C12.1108 6.39595 11.9487 6.23381 11.9487 6.0338V5.16098C11.9487 4.96092 12.1108 4.79883 12.3108 4.79883C12.5108 4.79883 12.673 4.96097 12.673 5.16098V6.0338C12.673 6.23381 12.5108 6.39595 12.3108 6.39595Z" fill="#43A3F9"/>
<path d="M11.0254 10.825C10.8254 10.825 10.6633 10.6628 10.6633 10.4628V10.0282C10.6633 9.82811 10.8254 9.66602 11.0254 9.66602C11.2254 9.66602 11.3876 9.82816 11.3876 10.0282V10.4628C11.3876 10.6628 11.2254 10.825 11.0254 10.825Z" fill="#FFAE85"/>
<path d="M4.35169 0C3.98606 0 3.74892 0.392859 3.92658 0.712453C4.20267 1.20919 4.73264 1.54528 5.34127 1.54528H16.6511C17.2598 1.54528 17.7897 1.20919 18.0658 0.712453C18.2434 0.392859 18.0063 0 17.6407 0H4.35169Z" fill="#FF6963"/>
</g>
<defs>
<clipPath id="clip0_499_4011">
<rect width="24" height="24" fill="white"/>
</clipPath>
</defs>
</svg>
