<svg width="24" height="24" viewBox="0 0 24 24" fill="none" xmlns="http://www.w3.org/2000/svg">
<path d="M8.25 14.25H5.25V13.5C5.25 13.0865 4.91353 12.75 4.5 12.75C4.08647 12.75 3.75 13.0865 3.75 13.5V14.25H0.75V13.5C0.75 11.4323 2.43225 9.75 4.5 9.75C6.56775 9.75 8.25 11.4323 8.25 13.5V14.25Z" fill="#FFEAA6"/>
<path d="M12.375 8.25H11.25C8.76867 8.25 6.75 6.23133 6.75 3.75V2.25H9.75V3.75C9.75 4.57711 10.4229 5.25 11.25 5.25H12.375V8.25Z" fill="#FFEAA6"/>
<path d="M6.75 2.25H8.25V3.75C8.25 5.40684 9.59316 6.75 11.25 6.75H12.375V8.25H11.25C8.76473 8.25 6.75 6.23527 6.75 3.75V2.25Z" fill="#FFD959"/>
<path d="M17.25 2.25C20.5637 2.25 23.25 4.93627 23.25 8.25V11.25C23.25 17.049 18.549 21.75 12.75 21.75C8.60789 21.75 5.25 18.3922 5.25 14.25H8.25C9.90684 14.25 11.25 12.9068 11.25 11.25V8.25C11.25 4.93631 13.9363 2.25 17.25 2.25Z" fill="#FFEAA6"/>
<path d="M20.25 5.25C18.5932 5.25 17.25 6.59316 17.25 8.25V12.75C17.25 15.2353 15.2353 17.25 12.75 17.25H9.75C8.09316 17.25 6.75 15.9068 6.75 14.25V13.5C6.75 12.2573 5.74266 11.25 4.5 11.25C3.25734 11.25 2.25 12.2573 2.25 13.5V14.25H3.75V13.5C3.75 13.0858 4.08577 12.75 4.5 12.75C4.91423 12.75 5.25 13.0858 5.25 13.5V14.25C5.25 18.3921 8.60784 21.75 12.75 21.75C18.549 21.75 23.25 17.049 23.25 11.25V8.25C23.25 6.59316 21.9068 5.25 20.25 5.25Z" fill="#FFD959"/>
<path d="M8.24999 15.75H6.93979C7.60752 18.335 9.95934 20.25 12.75 20.25H12.7969C16.1137 20.25 19.0151 18.437 20.562 15.75H8.24999Z" fill="#E34131"/>
<path d="M12.75 11.625C12.5429 11.625 12.375 11.4571 12.375 11.25V8.25C12.375 5.56191 14.5619 3.375 17.25 3.375C17.4571 3.375 17.625 3.54291 17.625 3.75C17.625 3.95709 17.4571 4.125 17.25 4.125C14.9755 4.125 13.125 5.97548 13.125 8.25V11.25C13.125 11.4571 12.9571 11.625 12.75 11.625Z" fill="#DAD8DB"/>
<path d="M11.0625 19.125C11.5803 19.125 12 18.7053 12 18.1875C12 17.6697 11.5803 17.25 11.0625 17.25C10.5447 17.25 10.125 17.6697 10.125 18.1875C10.125 18.7053 10.5447 19.125 11.0625 19.125Z" fill="#FAA032"/>
<path d="M13.125 17.25C13.3321 17.25 13.5 17.0821 13.5 16.875C13.5 16.6679 13.3321 16.5 13.125 16.5C12.9179 16.5 12.75 16.6679 12.75 16.875C12.75 17.0821 12.9179 17.25 13.125 17.25Z" fill="#FAA032"/>
<path d="M16.1875 18.75C16.4291 18.75 16.625 18.5541 16.625 18.3125C16.625 18.0709 16.4291 17.875 16.1875 17.875C15.9459 17.875 15.75 18.0709 15.75 18.3125C15.75 18.5541 15.9459 18.75 16.1875 18.75Z" fill="#FAA032"/>
</svg>
