<svg width="24" height="24" viewBox="0 0 24 24" fill="none" xmlns="http://www.w3.org/2000/svg">
<g clip-path="url(#clip0_209_2606)">
<path d="M24 12C24 14.0184 23.5017 15.9202 22.6214 17.5894C16.0894 21.532 7.91109 21.532 1.37906 17.5894C0.49875 15.9202 0 14.0184 0 12C0 11.6386 0.0159375 11.2809 0.046875 10.928C0.0473437 10.9275 0.0473437 10.927 0.0473437 10.9266C0.0815625 10.5403 0.134062 10.1592 0.204375 9.78469C0.204375 9.78422 0.204375 9.78516 0.204375 9.78469C0.45375 8.44781 0.925313 7.18828 1.57875 6.04688C3.64687 2.43422 7.53937 0 12 0C16.4606 0 20.3531 2.43422 22.4212 6.04688C23.4258 7.80141 24 9.83344 24 12Z" fill="#FDE05D"/>
<path d="M24 12C24 14.0184 23.5017 15.9202 22.6214 17.5894H22.6209C16.0889 21.532 7.91109 21.532 1.37906 17.5894H1.37859C0.498281 15.9202 0 14.0184 0 12C0 11.6386 0.0159375 11.2809 0.046875 10.928C0.0473437 10.9275 0.0473437 10.927 0.0473437 10.9266L0.169687 10.8928C0.719063 10.7405 0.742969 9.97078 0.204375 9.78469C0.204375 9.78422 0.204375 9.78422 0.204375 9.78375C0.45375 8.44688 0.925313 7.18828 1.57875 6.04688C3.64687 9.65953 7.53937 12.0938 12 12.0938C16.4606 12.0938 20.3531 9.65953 22.4212 6.04688C23.4258 7.80141 24 9.83344 24 12Z" fill="#FFC300"/>
<path d="M16.1166 16.3339C16.1166 18.6073 14.2735 20.4504 12 20.4504C9.72658 20.4504 7.88345 18.6073 7.88345 16.3339C7.88345 14.0604 9.72658 12.2178 12 12.2178C14.2735 12.2178 16.1166 14.0604 16.1166 16.3339Z" fill="#FF9F00"/>
<path d="M16.1166 16.3339C16.1166 18.6073 14.2734 20.4504 12 20.4504V12.2178C14.2734 12.2178 16.1166 14.0604 16.1166 16.3339Z" fill="#EC781B"/>
<path d="M22.6214 17.5889C22.1363 18.5086 21.5358 19.3579 20.8383 20.1164C19.9988 21.03 19.0191 21.8128 17.9344 22.4311L14.3911 23.3676C12.8175 23.7834 11.1699 23.8392 9.57143 23.5307L7.51784 23.1342C5.82143 22.4512 4.31768 21.3914 3.10925 20.0592C2.43425 19.3148 1.85112 18.4856 1.37909 17.5889L11.9796 18.1401L22.6214 17.5889Z" fill="#FE3345"/>
<path d="M22.6214 17.5889C22.1363 18.5086 21.5358 19.3579 20.8383 20.1164C19.9988 21.03 19.0191 21.8128 17.9344 22.4311L14.3911 23.3676C13.6073 23.5743 12.8053 23.6925 12 23.7206V17.8344L22.6214 17.5889Z" fill="#DE1263"/>
<path d="M17.9344 22.4311C16.1836 23.4295 14.1577 23.9995 12 23.9995H11.9611C10.3903 23.9943 8.89079 23.6878 7.51782 23.1342C7.60782 22.8975 7.77001 22.6828 7.97157 22.529C8.36392 22.23 8.87345 22.1278 9.36657 22.1123C9.51751 22.1076 9.67173 22.1095 9.8147 22.0612C9.95767 22.0129 10.0903 21.9014 10.1152 21.7528C10.14 21.6028 10.0495 21.4528 9.92673 21.3637C9.77673 21.255 9.54095 21.2625 9.50907 21.0506C9.48001 20.8561 9.63235 20.6714 9.80345 20.6006C9.99563 20.5209 10.2117 20.5382 10.4199 20.5401C10.628 20.5425 10.8525 20.5223 11.0109 20.3878C11.1309 20.2856 11.1966 20.1229 11.1806 19.9659C11.1455 19.6148 10.8586 19.5393 10.56 19.5548C10.4091 19.5628 10.2516 19.5703 10.1133 19.5093C9.97548 19.4479 9.86532 19.2942 9.90657 19.1489C9.93798 19.0396 10.042 18.9679 10.1461 18.9225C10.2502 18.877 10.3631 18.8475 10.4541 18.7795C10.605 18.6656 10.6556 18.4457 10.5905 18.2718C10.5155 18.0717 10.3055 18.0239 10.1138 17.9943C9.9647 17.9709 9.80907 17.9531 9.68017 17.8748C9.56954 17.8078 9.50157 17.6976 9.50063 17.5889H12.6633C12.6384 17.6315 12.6202 17.6779 12.6094 17.7267C12.5555 17.9718 12.7055 18.2451 12.9413 18.3314C13.1119 18.3942 13.3017 18.3646 13.4827 18.3862C13.6636 18.4078 13.8638 18.5175 13.8764 18.6989C13.8952 18.9679 13.5103 19.1006 13.4569 19.365C13.4114 19.5876 13.6284 19.7836 13.8474 19.844C14.0663 19.905 14.3025 19.8848 14.5186 19.9556C14.7342 20.0264 14.9349 20.2486 14.8589 20.4628C14.7563 20.7515 14.273 20.7496 14.1778 21.0407C14.1253 21.2029 14.2331 21.3829 14.3813 21.4673C14.5294 21.5517 14.707 21.5629 14.8772 21.5671C15.5784 21.585 16.298 21.5278 16.9641 21.7462C17.3414 21.87 17.7014 22.1146 17.9344 22.4311Z" fill="#FFC300"/>
<path d="M17.9344 22.4311C16.1836 23.4295 14.1577 23.9995 12 23.9995V17.5889H12.6633C12.6384 17.6315 12.6202 17.6779 12.6094 17.7267C12.5555 17.9718 12.7055 18.2451 12.9412 18.3314C13.1119 18.3942 13.3017 18.3646 13.4827 18.3862C13.6636 18.4078 13.8638 18.5175 13.8764 18.6989C13.8952 18.9679 13.5103 19.1006 13.4569 19.365C13.4114 19.5876 13.6284 19.7836 13.8473 19.844C14.0663 19.905 14.3025 19.8848 14.5186 19.9556C14.7342 20.0264 14.9348 20.2486 14.8589 20.4628C14.7562 20.7515 14.273 20.7496 14.1778 21.0407C14.1253 21.2029 14.2331 21.3829 14.3812 21.4673C14.5294 21.5517 14.707 21.5629 14.8772 21.5671C15.5784 21.585 16.298 21.5278 16.9641 21.7462C17.3414 21.87 17.7014 22.1146 17.9344 22.4311Z" fill="#FF9F00"/>
<path d="M22.6214 17.5889L21.6647 17.8467C19.0317 18.5559 16.3397 18.9703 13.6378 19.0889C13.0922 19.1132 12.5461 19.1254 12 19.1254C11.3157 19.1254 10.6308 19.1067 9.9469 19.0682C7.38471 18.9271 4.83378 18.5198 2.33534 17.8467L1.37909 17.5889H9.5044L11.1666 17.8701L12.6643 17.5889H22.6214Z" fill="#FF6378"/>
<path d="M22.6214 17.5889L21.6647 17.8467C19.0317 18.5559 16.3397 18.9703 13.6378 19.0889C13.0922 19.1132 12.5461 19.1254 12 19.1254L12.6308 17.5889H22.6214Z" fill="#FE3345"/>
<path d="M13.6378 19.0889C13.0922 19.1132 12.5461 19.1254 12 19.1254C11.3156 19.1254 10.6308 19.1067 9.94689 19.0682C9.9947 19.0026 10.0702 18.9557 10.1461 18.9225C10.2502 18.877 10.3631 18.8475 10.4541 18.7795C10.605 18.6656 10.6556 18.4457 10.5905 18.2718C10.5155 18.0717 10.3055 18.0239 10.1138 17.9943C9.9647 17.9709 9.80908 17.9531 9.68017 17.8748C9.56955 17.8078 9.50158 17.6976 9.50064 17.5889H12.6633C12.6384 17.6315 12.6202 17.6779 12.6094 17.7267C12.5555 17.9718 12.7055 18.2451 12.9413 18.3314C13.1119 18.3942 13.3017 18.3646 13.4827 18.3862C13.6636 18.4078 13.8638 18.5175 13.8764 18.6989C13.8877 18.8582 13.7574 18.9698 13.6378 19.0889Z" fill="#FFEB98"/>
<path d="M13.6378 19.0889C13.0922 19.1132 12.5461 19.1254 12 19.1254V17.5889H12.6633C12.6384 17.6315 12.6202 17.6779 12.6094 17.7267C12.5555 17.9718 12.7055 18.2451 12.9412 18.3314C13.1119 18.3942 13.3017 18.3646 13.4826 18.3862C13.6636 18.4078 13.8637 18.5175 13.8764 18.6989C13.8876 18.8582 13.7573 18.9698 13.6378 19.0889Z" fill="#F9E073"/>
<path d="M8.29686 10.908C8.29686 10.9141 8.2964 10.9202 8.2964 10.9263H0.0473328C0.0815515 10.54 0.134052 10.1589 0.204364 9.78441C0.244208 9.78113 0.284052 9.77973 0.324364 9.77973C0.397489 9.77973 0.468739 9.78488 0.539052 9.7952C0.773895 8.56426 1.8553 7.63379 3.15468 7.63379C4.15499 7.63379 5.0264 8.18598 5.48155 9.0016C5.71733 8.90691 5.97421 8.85488 6.24374 8.85488C7.37765 8.85488 8.29686 9.7741 8.29686 10.908Z" fill="white"/>
<path d="M6.29308 10.9265C6.29308 10.9229 6.29336 10.9194 6.29336 10.9158C6.29336 10.2638 5.76475 9.7352 5.11272 9.7352C4.9578 9.7352 4.81 9.76534 4.67449 9.81958C4.41269 9.35055 3.91174 9.0332 3.33644 9.0332C2.58935 9.0332 1.96755 9.56823 1.83241 10.276C1.7921 10.2702 1.75099 10.267 1.70908 10.267C1.30291 10.267 0.962597 10.5483 0.871613 10.9265H6.29308V10.9265Z" fill="#DFF7FD"/>
<path d="M23.3369 14.1801C23.3369 14.1762 23.3372 14.1724 23.3372 14.1685C23.3372 13.455 22.7588 12.8765 22.0452 12.8765C21.8757 12.8765 21.714 12.9095 21.5657 12.9689C21.2792 12.4556 20.731 12.1084 20.1016 12.1084C19.2841 12.1084 18.6036 12.6939 18.4558 13.4682C18.4117 13.4619 18.3667 13.4585 18.3208 13.4585C17.8764 13.4585 17.504 13.7662 17.4044 14.1801H23.3369Z" fill="white"/>
<path d="M22.0764 14.1805C22.0764 14.1783 22.0765 14.1761 22.0765 14.1738C22.0765 13.7635 21.744 13.431 21.3337 13.431C21.2362 13.431 21.1432 13.4499 21.0579 13.4841C20.8932 13.1889 20.5779 12.9893 20.216 12.9893C19.7459 12.9893 19.3546 13.3259 19.2696 13.7712C19.2443 13.7676 19.2184 13.7656 19.192 13.7656C18.9365 13.7656 18.7224 13.9425 18.6651 14.1805H22.0764Z" fill="#DFF7FD"/>
<path d="M22.3369 5.90266H11.0653C11.2594 5.09641 11.985 4.49688 12.8503 4.49688C12.9398 4.49688 13.0275 4.50391 13.1133 4.51609C13.4016 3.00766 14.7267 1.86719 16.3191 1.86719C17.5453 1.86719 18.6131 2.54359 19.1709 3.54344C19.4597 3.42766 19.7747 3.36344 20.1052 3.36344C20.1853 3.36344 20.2645 3.36719 20.3423 3.37469C21.1148 4.12141 21.7875 4.97172 22.3369 5.90266Z" fill="white"/>
<path d="M20.1656 5.90244C20.1656 5.89808 20.166 5.89377 20.166 5.88941C20.166 5.09023 19.5182 4.44242 18.719 4.44242C18.5291 4.44242 18.348 4.47936 18.1819 4.54583C17.861 3.971 17.2471 3.58203 16.542 3.58203C15.6264 3.58203 14.8643 4.23777 14.6986 5.10514C14.6492 5.09806 14.5988 5.09422 14.5475 5.09422C14.0497 5.09422 13.6326 5.43884 13.5211 5.90244H20.1656Z" fill="#DFF7FD"/>
<path d="M18.262 9.04613C17.9044 8.82442 17.4295 8.86895 17.1192 9.17879C16.9931 9.30536 16.9111 9.45864 16.8727 9.62036H16.5506C16.5126 9.45864 16.4302 9.30536 16.3041 9.17879C15.9942 8.86895 15.5189 8.82442 15.1617 9.04613C15.1987 8.98613 15.2433 8.92988 15.2948 8.87785C15.6567 8.51598 16.2436 8.51598 16.6055 8.87785C16.6453 8.9177 16.6809 8.96035 16.7119 9.00489C16.7428 8.96035 16.778 8.9177 16.8183 8.87785C17.1797 8.51598 17.7666 8.51598 18.1284 8.87785C18.1805 8.92988 18.225 8.98613 18.262 9.04613Z" fill="#605F74"/>
<path d="M18.262 9.04613C17.9044 8.82442 17.4295 8.86895 17.1192 9.17879C16.9931 9.30536 16.9111 9.45864 16.8726 9.62036H16.7119V9.00489C16.7428 8.96035 16.7779 8.9177 16.8183 8.87785C17.1797 8.51598 17.7665 8.51598 18.1284 8.87785C18.1804 8.92988 18.225 8.98613 18.262 9.04613Z" fill="#58586B"/>
<path d="M7.84351 12.5696C7.48586 12.3478 7.01101 12.3924 6.7007 12.7022C6.5746 12.8288 6.49257 12.9821 6.45414 13.1438H6.1321C6.09413 12.9821 6.01163 12.8288 5.88554 12.7022C5.5757 12.3924 5.10038 12.3478 4.74319 12.5696C4.78023 12.5096 4.82476 12.4533 4.87632 12.4013C5.2382 12.0394 5.82507 12.0394 6.18695 12.4013C6.22679 12.4411 6.26242 12.4838 6.29335 12.5283C6.32429 12.4838 6.35945 12.4411 6.39976 12.4013C6.76117 12.0394 7.34804 12.0394 7.70992 12.4013C7.76195 12.4533 7.80648 12.5096 7.84351 12.5696Z" fill="#605F74"/>
<path d="M7.84349 12.5696C7.48583 12.3478 7.01099 12.3924 6.70068 12.7022C6.57459 12.8288 6.49255 12.9821 6.45412 13.1438H6.29333V12.5283C6.32427 12.4838 6.35943 12.4411 6.39974 12.4013C6.76115 12.0394 7.34802 12.0394 7.7099 12.4013C7.76193 12.4533 7.80646 12.5096 7.84349 12.5696Z" fill="#58586B"/>
<path d="M9.84705 6.08812C9.48939 5.86641 9.01455 5.91094 8.70424 6.22078C8.57814 6.34734 8.49611 6.50062 8.45767 6.66234H8.13564C8.09767 6.50062 8.01517 6.34734 7.88908 6.22078C7.57924 5.91094 7.10392 5.86641 6.74673 6.08812C6.78377 6.02812 6.8283 5.97187 6.87986 5.91984C7.24174 5.55797 7.82861 5.55797 8.19048 5.91984C8.23033 5.95969 8.26595 6.00234 8.29689 6.04687C8.32783 6.00234 8.36299 5.95969 8.4033 5.91984C8.7647 5.55797 9.35158 5.55797 9.71345 5.91984C9.76549 5.97187 9.81002 6.02812 9.84705 6.08812Z" fill="#605F74"/>
<path d="M9.84706 6.08812C9.48941 5.86641 9.01456 5.91094 8.70425 6.22078C8.57816 6.34734 8.49612 6.50062 8.45769 6.66234H8.29691V6.04687C8.32784 6.00234 8.363 5.95969 8.40331 5.91984C8.76472 5.55797 9.35159 5.55797 9.71347 5.91984C9.7655 5.97187 9.81003 6.02812 9.84706 6.08812Z" fill="#58586B"/>
<path d="M21.1978 10.2352C20.7593 10.2556 20.2896 10.2021 20.1022 10.1861C19.9033 10.1692 19.6754 10.165 19.562 9.96992C19.4715 9.81448 19.5175 9.63486 19.661 9.5299C19.7565 9.46006 19.8744 9.42936 19.9902 9.40479C20.5098 9.29445 21.0494 9.27884 21.5745 9.35895C21.6976 9.37775 21.8231 9.40292 21.929 9.4685C22.0348 9.53407 22.1185 9.64826 22.1154 9.77276C22.1071 10.1056 21.6705 10.2133 21.1978 10.2352Z" fill="#FFF9BB"/>
</g>
<defs>
<clipPath id="clip0_209_2606">
<rect width="24" height="24" fill="white"/>
</clipPath>
</defs>
</svg>
