<svg width="24" height="24" viewBox="0 0 24 24" fill="none" xmlns="http://www.w3.org/2000/svg">
<path d="M15.9995 8L19.9992 15.9995L15.9995 23.999C11.5885 23.999 8 20.4104 8 15.9995C8 11.5886 11.5885 8 15.9995 8Z" fill="#9A91D4"/>
<path d="M23.999 15.9995C23.999 17.427 23.6215 18.8175 22.9047 20.0402L24 24L20.0402 22.9047C18.8175 23.6215 17.4271 23.999 15.9995 23.999V8C20.4105 8 23.999 11.5885 23.999 15.9995Z" fill="#5142AB"/>
<path d="M8.00048 0L4.00073 7.9995L8.00001 15.9981L15.9995 7.99997C16 3.58856 12.4115 0 8.00048 0V0Z" fill="#FFC300"/>
<path d="M16 8C11.589 7.99906 8.00075 11.5869 8 15.9972C12.411 15.9981 15.9992 12.4103 16 8Z" fill="#FFC300"/>
<path d="M0.000984375 7.9995C0.000984375 9.42703 0.378469 10.8175 1.09533 12.0402L0 16L3.95977 14.9047C5.18245 15.6215 6.57291 15.999 8.00048 15.999V0C3.5895 0 0.000984375 3.58856 0.000984375 7.9995Z" fill="#FBD490"/>
</svg>
