<svg width="24" height="24" viewBox="0 0 24 24" fill="none" xmlns="http://www.w3.org/2000/svg">
<g clip-path="url(#clip0_195_866)">
<path d="M16.9497 23.8111C19.3823 23.8111 21.3543 21.8391 21.3543 19.4065C21.3543 16.9739 19.3823 15.002 16.9497 15.002C14.5171 15.002 12.5451 16.9739 12.5451 19.4065C12.5451 21.8391 14.5171 23.8111 16.9497 23.8111Z" fill="#F9F3F1"/>
<path d="M20.064 22.5211C18.344 24.2411 15.5554 24.2411 13.8354 22.5211C13.7735 22.4592 13.7136 22.3954 13.6566 22.3307C15.3766 23.5548 17.7785 23.3954 19.3207 21.8532C20.9779 20.196 21.0383 17.5461 19.5014 15.8164C19.6986 15.9565 19.8871 16.1151 20.064 16.2919C21.7845 18.012 21.7845 20.8011 20.064 22.5211Z" fill="#EFE2DD"/>
<path d="M11.606 1.96773C12.4678 0.337685 14.4878 -0.285069 16.1179 0.576791L22.2212 3.80367C23.8512 4.66549 24.4739 6.6855 23.6121 8.31555C22.7503 9.94555 20.7303 10.5683 19.1003 9.70649L12.9969 6.47956C11.3669 5.61779 10.7442 3.59773 11.606 1.96773Z" fill="#FEC165"/>
<path d="M23.6123 8.31516C23.5838 8.36931 23.5538 8.42247 23.5214 8.47465C23.8825 7.02043 23.2242 5.45362 21.84 4.72192L15.7371 1.49499C14.1611 0.661795 12.2212 1.21612 11.3159 2.7264C11.3797 2.46832 11.4759 2.21315 11.6059 1.96716C12.4676 0.337023 14.4878 -0.28545 16.1179 0.57627L22.2214 3.8032C23.8511 4.66487 24.474 6.68503 23.6123 8.31516Z" fill="#FDB441"/>
<path d="M16.0486 8.09275L19.1695 2.18994L22.2212 3.80341C23.8512 4.66522 24.4739 6.68523 23.6121 8.31528C22.7503 9.94528 20.7303 10.568 19.1002 9.70622L16.0486 8.09275Z" fill="#ED3F32"/>
<path d="M23.6123 8.31509C23.5963 8.34554 23.5794 8.37551 23.5625 8.40549C23.5494 8.42867 23.5354 8.4519 23.5214 8.47462C23.8824 7.0204 23.2242 5.45359 21.84 4.72189L18.7069 3.0652L19.1694 2.18994L22.2214 3.80317C23.8511 4.6648 24.474 6.68495 23.6123 8.31509Z" fill="#FFD959"/>
<path d="M10.5179 8.99114C11.833 10.2836 11.8513 12.3973 10.5589 13.7124L5.71962 18.6363C4.42718 19.9514 2.31344 19.9697 0.998382 18.6773C-0.316679 17.3849 -0.334993 15.2711 0.957399 13.9561L5.79662 9.03212C7.08906 7.71706 9.20284 7.6987 10.5179 8.99114Z" fill="#FFE177"/>
<path d="M0.99828 18.6776C0.95458 18.6348 0.912239 18.5909 0.87149 18.5449C2.16149 19.3071 3.85116 19.125 4.94852 18.0083L9.78765 13.0847C11.0372 11.8132 11.0614 9.79579 9.87355 8.49609C10.1025 8.63113 10.3195 8.79632 10.518 8.99131C11.8332 10.2837 11.8512 12.3974 10.5589 13.7126L5.71961 18.6367C4.42741 19.9514 2.31348 19.97 0.99828 18.6776Z" fill="#F9D594"/>
<path d="M3.37703 11.4941L8.13925 16.1744L5.71962 18.6364C4.42718 19.9514 2.31344 19.9697 0.998382 18.6774C-0.316679 17.3849 -0.334993 15.2712 0.957399 13.9561L3.37703 11.4941Z" fill="#EE6161"/>
<path d="M0.99828 18.6775C0.97369 18.6535 0.949803 18.6287 0.925963 18.6039C0.907462 18.5847 0.889242 18.5647 0.87149 18.5447C2.16149 19.307 3.85116 19.1249 4.94852 18.0082L7.43293 15.4805L8.13911 16.1742L5.71961 18.6365C4.42741 19.9513 2.31348 19.9698 0.99828 18.6775Z" fill="#E94444"/>
<path d="M18.5302 21.3381C18.4403 21.3381 18.3504 21.3039 18.2818 21.2352L15.1208 18.0743C14.9836 17.9371 14.9836 17.7146 15.1208 17.5775C15.2581 17.4403 15.4805 17.4403 15.6176 17.5775L18.7786 20.7385C18.9158 20.8757 18.9158 21.0981 18.7786 21.2352C18.71 21.3038 18.6201 21.3381 18.5302 21.3381Z" fill="#CDBFBA"/>
</g>
<defs>
<clipPath id="clip0_195_866">
<rect width="24" height="24" fill="white"/>
</clipPath>
</defs>
</svg>
