<svg width="4" height="10" viewBox="0 0 4 10" fill="none" xmlns="http://www.w3.org/2000/svg">
<path d="M3.62458 7.69606C3.59103 7.64691 3.52667 7.62943 3.47293 7.6549C2.87839 7.93635 2.2036 8.23391 2.07116 8.25991C2.06782 8.25693 2.06253 8.25149 2.05559 8.24208C2.03764 8.21777 2.02891 8.18602 2.02891 8.14497C2.02891 7.80867 2.28274 6.78561 2.78332 5.10435C3.20539 3.69176 3.25419 3.39928 3.25419 3.30217C3.25419 3.15227 3.1968 3.0256 3.08816 2.93585C2.98496 2.85074 2.84076 2.80762 2.65961 2.80762C2.35827 2.80762 2.00903 2.92202 1.59189 3.15737C1.18767 3.38551 0.736872 3.77193 0.252089 4.30588C0.214141 4.3477 0.210175 4.41022 0.242536 4.45651C0.274945 4.50283 0.335047 4.52046 0.387312 4.49918C0.557509 4.42971 1.41285 4.07933 1.53752 4.00102C1.63961 3.93702 1.72799 3.90454 1.80021 3.90454C1.8028 3.90454 1.80502 3.90464 1.80688 3.90478C1.80775 3.90957 1.80858 3.91688 1.80858 3.92735C1.80858 4.00104 1.79341 4.08828 1.76369 4.18621C1.03482 6.54774 0.680519 7.99543 0.680519 8.61208C0.680519 8.8297 0.741008 9.0049 0.860269 9.13275C0.981803 9.26318 1.14574 9.32931 1.34752 9.32931C1.56256 9.32931 1.82427 9.23948 2.14759 9.0547C2.46046 8.87592 2.93799 8.48263 3.60753 7.85225C3.65089 7.81145 3.65812 7.74521 3.62458 7.69606Z" fill="white"/>
<path d="M3.6012 0.854394C3.48209 0.732473 3.32967 0.670654 3.14823 0.670654C2.92233 0.670654 2.72558 0.759924 2.56351 0.935997C2.40403 1.10917 2.32315 1.32166 2.32315 1.56756C2.32315 1.76185 2.38272 1.92285 2.50019 2.04608C2.61923 2.17117 2.7696 2.23458 2.94705 2.23458C3.1637 2.23458 3.35939 2.14031 3.52865 1.95437C3.69495 1.77169 3.77928 1.55692 3.77928 1.31603C3.77931 1.13091 3.7194 0.975614 3.6012 0.854394Z" fill="white"/>
</svg>
