<svg width="24" height="24" viewBox="0 0 24 24" fill="none" xmlns="http://www.w3.org/2000/svg">
<g clip-path="url(#clip0_604_6272)">
<path d="M24 12C24 14.0184 23.5017 15.9202 22.6214 17.5894C16.0894 21.532 7.91109 21.532 1.37906 17.5894C0.49875 15.9202 0 14.0184 0 12C0 11.6386 0.0159375 11.2809 0.046875 10.928C0.0473437 10.9275 0.0473437 10.927 0.0473437 10.9266C0.0815625 10.5403 0.134062 10.1592 0.204375 9.78469C0.204375 9.78422 0.204375 9.78516 0.204375 9.78469C0.45375 8.44781 0.925313 7.18828 1.57875 6.04688C3.64687 2.43422 7.53937 0 12 0C16.4606 0 20.3531 2.43422 22.4212 6.04688C23.4258 7.80141 24 9.83344 24 12Z" fill="#FDE05D"/>
<path d="M24 12C24 14.0184 23.5017 15.9202 22.6214 17.5894H22.6209C16.0889 21.532 7.91109 21.532 1.37906 17.5894H1.37859C0.498281 15.9202 0 14.0184 0 12C0 11.6386 0.0159375 11.2809 0.046875 10.928C0.0473437 10.9275 0.0473437 10.927 0.0473437 10.9266L0.169687 10.8928C0.719063 10.7405 0.742969 9.97078 0.204375 9.78469C0.204375 9.78422 0.204375 9.78422 0.204375 9.78375C0.45375 8.44688 0.925313 7.18828 1.57875 6.04688C3.64687 9.65953 7.53937 12.0938 12 12.0938C16.4606 12.0938 20.3531 9.65953 22.4212 6.04688C23.4258 7.80141 24 9.83344 24 12Z" fill="#FFC300"/>
<path d="M16.1165 16.3344C16.1165 18.6078 14.2734 20.4509 12 20.4509C9.72655 20.4509 7.88342 18.6078 7.88342 16.3344C7.88342 14.0609 9.72655 12.2183 12 12.2183C14.2734 12.2183 16.1165 14.0609 16.1165 16.3344Z" fill="#FF9F00"/>
<path d="M16.1166 16.3344C16.1166 18.6078 14.2734 20.4509 12 20.4509V12.2183C14.2734 12.2183 16.1166 14.0609 16.1166 16.3344Z" fill="#EC781B"/>
<path d="M22.6215 17.5898C22.1363 18.5095 21.5359 19.3589 20.8384 20.1173C19.9988 21.0309 19.0192 21.8138 17.9345 22.432L14.3912 23.3686C12.8176 23.7844 11.1699 23.8402 9.5715 23.5317L7.5179 23.1352C5.8215 22.4522 4.31774 21.3923 3.10931 20.0602C2.43431 19.3158 1.85118 18.4866 1.37915 17.5898L11.9797 18.1411L22.6215 17.5898Z" fill="#FE3345"/>
<path d="M22.6214 17.5898C22.1363 18.5095 21.5358 19.3589 20.8383 20.1173C19.9988 21.0309 19.0191 21.8138 17.9344 22.432L14.3911 23.3686C13.6073 23.5753 12.8053 23.6934 12 23.7216V17.8354L22.6214 17.5898Z" fill="#DE1263"/>
<path d="M17.9344 22.432C16.1836 23.4305 14.1577 24.0005 12 24.0005H11.9611C10.3903 23.9953 8.89079 23.6888 7.51782 23.1352C7.60782 22.8984 7.77001 22.6838 7.97157 22.53C8.36392 22.2309 8.87345 22.1287 9.36657 22.1133C9.51751 22.1086 9.67173 22.1105 9.8147 22.0622C9.95767 22.0139 10.0903 21.9023 10.1152 21.7538C10.14 21.6038 10.0495 21.4537 9.92673 21.3647C9.77673 21.2559 9.54095 21.2634 9.50907 21.0516C9.48001 20.857 9.63235 20.6723 9.80345 20.6016C9.99563 20.5219 10.2117 20.5392 10.4199 20.5411C10.628 20.5434 10.8525 20.5233 11.0109 20.3888C11.1309 20.2866 11.1966 20.1239 11.1806 19.9669C11.1455 19.6158 10.8586 19.5403 10.56 19.5558C10.4091 19.5638 10.2516 19.5713 10.1133 19.5103C9.97548 19.4489 9.86532 19.2952 9.90657 19.1498C9.93798 19.0406 10.042 18.9689 10.1461 18.9234C10.2502 18.878 10.3631 18.8484 10.4541 18.7805C10.605 18.6666 10.6556 18.4467 10.5905 18.2728C10.5155 18.0727 10.3055 18.0248 10.1138 17.9953C9.9647 17.9719 9.80907 17.9541 9.68017 17.8758C9.56954 17.8088 9.50157 17.6986 9.50063 17.5898H12.6633C12.6384 17.6325 12.6202 17.6789 12.6094 17.7277C12.5555 17.9728 12.7055 18.2461 12.9413 18.3323C13.1119 18.3952 13.3017 18.3656 13.4827 18.3872C13.6636 18.4088 13.8638 18.5184 13.8764 18.6998C13.8952 18.9689 13.5103 19.1016 13.4569 19.3659C13.4114 19.5886 13.6284 19.7845 13.8474 19.845C14.0663 19.9059 14.3025 19.8858 14.5186 19.9566C14.7342 20.0273 14.9349 20.2495 14.8589 20.4637C14.7563 20.7525 14.273 20.7506 14.1778 21.0417C14.1253 21.2039 14.2331 21.3839 14.3813 21.4683C14.5294 21.5527 14.707 21.5639 14.8772 21.5681C15.5784 21.5859 16.298 21.5288 16.9641 21.7472C17.3414 21.8709 17.7014 22.1156 17.9344 22.432Z" fill="#FFC300"/>
<path d="M17.9344 22.432C16.1836 23.4305 14.1577 24.0005 12 24.0005V17.5898H12.6633C12.6384 17.6325 12.6202 17.6789 12.6094 17.7277C12.5555 17.9728 12.7055 18.2461 12.9412 18.3323C13.1119 18.3952 13.3017 18.3656 13.4827 18.3872C13.6636 18.4088 13.8638 18.5184 13.8764 18.6998C13.8952 18.9689 13.5103 19.1016 13.4569 19.3659C13.4114 19.5886 13.6284 19.7845 13.8473 19.845C14.0663 19.9059 14.3025 19.8858 14.5186 19.9566C14.7342 20.0273 14.9348 20.2495 14.8589 20.4637C14.7562 20.7525 14.273 20.7506 14.1778 21.0417C14.1253 21.2039 14.2331 21.3839 14.3812 21.4683C14.5294 21.5527 14.707 21.5639 14.8772 21.5681C15.5784 21.5859 16.298 21.5288 16.9641 21.7472C17.3414 21.8709 17.7014 22.1156 17.9344 22.432Z" fill="#FF9F00"/>
<path d="M22.6215 17.5898L21.6648 17.8477C19.0318 18.5569 16.3398 18.9712 13.6379 19.0898C13.0923 19.1142 12.5462 19.1264 12.0001 19.1264C11.3157 19.1264 10.6309 19.1077 9.94696 19.0692C7.38478 18.9281 4.83384 18.5208 2.3354 17.8477L1.37915 17.5898H9.50446L11.1667 17.8711L12.6644 17.5898H22.6215Z" fill="#FF6378"/>
<path d="M22.6214 17.5898L21.6647 17.8477C19.0317 18.5569 16.3397 18.9712 13.6378 19.0898C13.0922 19.1142 12.5461 19.1264 12 19.1264L12.6308 17.5898H22.6214Z" fill="#FE3345"/>
<path d="M13.6378 19.0898C13.0922 19.1142 12.5461 19.1264 12 19.1264C11.3156 19.1264 10.6308 19.1077 9.94686 19.0692C9.99467 19.0036 10.0701 18.9567 10.1461 18.9234C10.2501 18.878 10.3631 18.8484 10.454 18.7805C10.605 18.6666 10.6556 18.4467 10.5905 18.2728C10.5155 18.0727 10.3055 18.0248 10.1137 17.9953C9.96467 17.9719 9.80905 17.9541 9.68014 17.8758C9.56952 17.8088 9.50155 17.6986 9.50061 17.5898H12.6633C12.6384 17.6325 12.6201 17.6789 12.6094 17.7277C12.5554 17.9728 12.7054 18.2461 12.9412 18.3323C13.1119 18.3952 13.3017 18.3656 13.4826 18.3872C13.6636 18.4088 13.8637 18.5184 13.8764 18.6998C13.8876 18.8592 13.7573 18.9708 13.6378 19.0898Z" fill="#FFEB98"/>
<path d="M13.6378 19.0898C13.0922 19.1142 12.5461 19.1264 12 19.1264V17.5898H12.6633C12.6384 17.6325 12.6202 17.6789 12.6094 17.7277C12.5555 17.9728 12.7055 18.2461 12.9412 18.3323C13.1119 18.3952 13.3017 18.3656 13.4826 18.3872C13.6636 18.4088 13.8637 18.5184 13.8764 18.6998C13.8876 18.8592 13.7573 18.9708 13.6378 19.0898Z" fill="#F9E073"/>
<path d="M8.2969 10.9085C8.2969 10.9146 8.29643 10.9207 8.29643 10.9268H0.0473633C0.081582 10.5405 0.134082 10.1594 0.204395 9.7849C0.244238 9.78162 0.284082 9.78022 0.324395 9.78022C0.39752 9.78022 0.46877 9.78537 0.539082 9.79568C0.773926 8.56475 1.85533 7.63428 3.15471 7.63428C4.15502 7.63428 5.02643 8.18646 5.48158 9.00209C5.71736 8.9074 5.97424 8.85537 6.24377 8.85537C7.37768 8.85537 8.2969 9.77459 8.2969 10.9085Z" fill="white"/>
<path d="M6.29305 10.927C6.29305 10.9234 6.29333 10.9199 6.29333 10.9163C6.29333 10.2643 5.76472 9.73569 5.11269 9.73569C4.95777 9.73569 4.80997 9.76583 4.67446 9.82007C4.41266 9.35104 3.91171 9.03369 3.33641 9.03369C2.58932 9.03369 1.96752 9.56872 1.83238 10.2764C1.79207 10.2707 1.75096 10.2675 1.70905 10.2675C1.30288 10.2675 0.962566 10.5487 0.871582 10.927H6.29305V10.927Z" fill="#DFF7FD"/>
<path d="M23.3369 14.1801C23.3369 14.1762 23.3372 14.1724 23.3372 14.1685C23.3372 13.455 22.7588 12.8765 22.0452 12.8765C21.8757 12.8765 21.714 12.9095 21.5657 12.9689C21.2792 12.4556 20.731 12.1084 20.1016 12.1084C19.2841 12.1084 18.6036 12.6939 18.4558 13.4682C18.4117 13.4619 18.3667 13.4585 18.3208 13.4585C17.8764 13.4585 17.504 13.7662 17.4044 14.1801H23.3369Z" fill="white"/>
<path d="M22.0764 14.1805C22.0764 14.1783 22.0765 14.1761 22.0765 14.1738C22.0765 13.7635 21.7439 13.431 21.3336 13.431C21.2362 13.431 21.1432 13.4499 21.0579 13.4841C20.8931 13.1889 20.5779 12.9893 20.2159 12.9893C19.7459 12.9893 19.3546 13.3259 19.2696 13.7712C19.2442 13.7676 19.2184 13.7656 19.192 13.7656C18.9364 13.7656 18.7223 13.9425 18.665 14.1805H22.0764Z" fill="#DFF7FD"/>
<path d="M22.3369 5.90314H11.0653C11.2594 5.09689 11.985 4.49736 12.8503 4.49736C12.9398 4.49736 13.0275 4.50439 13.1133 4.51658C13.4016 3.00814 14.7267 1.86768 16.3191 1.86768C17.5453 1.86768 18.6131 2.54408 19.1709 3.54393C19.4597 3.42814 19.7747 3.36393 20.1052 3.36393C20.1853 3.36393 20.2645 3.36768 20.3423 3.37518C21.1148 4.12189 21.7875 4.97221 22.3369 5.90314Z" fill="white"/>
<path d="M20.1657 5.90293C20.1657 5.89857 20.166 5.89425 20.166 5.88989C20.166 5.09072 19.5182 4.44291 18.719 4.44291C18.5292 4.44291 18.348 4.47985 18.1819 4.54632C17.8611 3.97149 17.2471 3.58252 16.542 3.58252C15.6264 3.58252 14.8643 4.23825 14.6987 5.10563C14.6493 5.09855 14.5989 5.09471 14.5475 5.09471C14.0497 5.09471 13.6326 5.43933 13.5211 5.90293H20.1657Z" fill="#DFF7FD"/>
<path d="M18.2621 9.04613C17.9044 8.82442 17.4296 8.86895 17.1192 9.17879C16.9931 9.30536 16.9111 9.45864 16.8727 9.62036H16.5506C16.5127 9.45864 16.4302 9.30536 16.3041 9.17879C15.9942 8.86895 15.5189 8.82442 15.1617 9.04613C15.1988 8.98613 15.2433 8.92988 15.2949 8.87785C15.6567 8.51598 16.2436 8.51598 16.6055 8.87785C16.6453 8.9177 16.681 8.96035 16.7119 9.00489C16.7428 8.96035 16.778 8.9177 16.8183 8.87785C17.1797 8.51598 17.7666 8.51598 18.1285 8.87785C18.1805 8.92988 18.225 8.98613 18.2621 9.04613Z" fill="#605F74"/>
<path d="M18.2621 9.04613C17.9044 8.82442 17.4296 8.86895 17.1193 9.17879C16.9932 9.30536 16.9111 9.45864 16.8727 9.62036H16.7119V9.00489C16.7429 8.96035 16.778 8.9177 16.8183 8.87785C17.1797 8.51598 17.7666 8.51598 18.1285 8.87785C18.1805 8.92988 18.225 8.98613 18.2621 9.04613Z" fill="#58586B"/>
<path d="M7.84361 12.5701C7.48595 12.3483 7.0111 12.3929 6.70079 12.7027C6.5747 12.8293 6.49266 12.9826 6.45423 13.1443H6.1322C6.09423 12.9826 6.01173 12.8293 5.88563 12.7027C5.57579 12.3929 5.10047 12.3483 4.74329 12.5701C4.78032 12.5101 4.82485 12.4538 4.87641 12.4018C5.23829 12.0399 5.82516 12.0399 6.18704 12.4018C6.22688 12.4416 6.26251 12.4843 6.29345 12.5288C6.32438 12.4843 6.35954 12.4416 6.39985 12.4018C6.76126 12.0399 7.34814 12.0399 7.71001 12.4018C7.76204 12.4538 7.80657 12.5101 7.84361 12.5701Z" fill="#605F74"/>
<path d="M7.84361 12.5701C7.48596 12.3483 7.01111 12.3929 6.7008 12.7027C6.57471 12.8293 6.49268 12.9826 6.45424 13.1443H6.29346V12.5288C6.32439 12.4843 6.35955 12.4416 6.39986 12.4018C6.76127 12.0399 7.34814 12.0399 7.71002 12.4018C7.76205 12.4538 7.80658 12.5101 7.84361 12.5701Z" fill="#58586B"/>
<path d="M9.84702 6.08812C9.48936 5.86641 9.01452 5.91094 8.7042 6.22078C8.57811 6.34734 8.49608 6.50062 8.45764 6.66234H8.13561C8.09764 6.50062 8.01514 6.34734 7.88905 6.22078C7.5792 5.91094 7.10389 5.86641 6.7467 6.08812C6.78374 6.02812 6.82827 5.97187 6.87983 5.91984C7.2417 5.55797 7.82858 5.55797 8.19045 5.91984C8.2303 5.95969 8.26592 6.00234 8.29686 6.04687C8.3278 6.00234 8.36295 5.95969 8.40327 5.91984C8.76467 5.55797 9.35155 5.55797 9.71342 5.91984C9.76545 5.97187 9.80999 6.02812 9.84702 6.08812Z" fill="#605F74"/>
<path d="M9.84703 6.08812C9.48938 5.86641 9.01453 5.91094 8.70422 6.22078C8.57813 6.34734 8.49609 6.50062 8.45766 6.66234H8.29688V6.04687C8.32781 6.00234 8.36297 5.95969 8.40328 5.91984C8.76469 5.55797 9.35156 5.55797 9.71344 5.91984C9.76547 5.97187 9.81 6.02812 9.84703 6.08812Z" fill="#58586B"/>
<path d="M21.1979 10.2357C20.7593 10.2561 20.2897 10.2026 20.1022 10.1866C19.9033 10.1697 19.6755 10.1655 19.562 9.9704C19.4716 9.81497 19.5175 9.63534 19.661 9.53039C19.7565 9.46055 19.8745 9.42984 19.9902 9.40528C20.5098 9.29494 21.0494 9.27933 21.5746 9.35944C21.6977 9.37824 21.8231 9.40341 21.929 9.46899C22.0348 9.53456 22.1185 9.64875 22.1155 9.77325C22.1071 10.1061 21.6706 10.2138 21.1979 10.2357Z" fill="#FFF9BB"/>
</g>
<defs>
<clipPath id="clip0_604_6272">
<rect width="24" height="24" fill="white"/>
</clipPath>
</defs>
</svg>
