<svg width="24" height="24" viewBox="0 0 24 24" fill="none" xmlns="http://www.w3.org/2000/svg">
<path d="M20.625 10.5H19.8203C19.6114 10.5 19.4066 10.4418 19.2289 10.332C19.0511 10.2221 18.9075 10.065 18.8141 9.87811L18.375 9H20.625V10.5Z" fill="#EA9D2D"/>
<path d="M20.625 10.5H21.4297C21.6386 10.5 21.8434 10.4418 22.0211 10.332C22.1989 10.2221 22.3425 10.065 22.4359 9.87811L22.875 9H20.625V10.5Z" fill="#EA9D2D"/>
<path d="M20.625 7.5L20.1269 8.24709C19.9626 8.49351 19.875 8.78303 19.875 9.07917V9.12867C19.875 9.32566 19.9138 9.52072 19.9892 9.70271C20.0646 9.88471 20.1751 10.0501 20.3144 10.1894L20.625 10.5L20.9356 10.1894C21.0749 10.0501 21.1854 9.88471 21.2608 9.70271C21.3362 9.52072 21.375 9.32566 21.375 9.12867V9.07917C21.375 8.78303 21.2874 8.49351 21.1231 8.24709L20.625 7.5Z" fill="#FBB540"/>
<path d="M8.25 18.375L9 17.625L9.375 16.5H14.625L15 17.625L15.75 18.375L16.5 18.975L12 21.375L7.5 19.125L8.25 18.375Z" fill="#ED3F32"/>
<path d="M11.8284 20.2499L11.6395 21.1945L7.5 19.1249L8.25 18.3749L8.41594 18.209L11.8284 20.2499Z" fill="#DAD8DB"/>
<path d="M16.5 18.9752L12.5423 21.086L12.375 20.2502L15.6605 18.2856L15.75 18.3752L16.5 18.9752Z" fill="#DAD8DB"/>
<path d="M9 9.51562L8.19422 9.77813C7.97649 9.88699 7.78488 10.0417 7.63256 10.2315C7.48023 10.4214 7.37079 10.642 7.31175 10.8782L6.375 14.625L3.375 16.5L2.25 16.125L1.125 16.5L1.5 18.375L7.08136 16.6308C7.21375 16.5895 7.33644 16.5218 7.44207 16.4319C7.5477 16.342 7.63411 16.2318 7.69613 16.1077L9 13.5V9.51562Z" fill="#FBD490"/>
<path d="M15 9.51562L15.8058 9.77789C16.0235 9.88675 16.2151 10.0414 16.3674 10.2313C16.5198 10.4212 16.6292 10.6418 16.6882 10.878L17.625 14.625L20.625 16.5L21.75 16.125L22.875 16.5L22.5 18.375L16.9186 16.6308C16.7862 16.5895 16.6636 16.5218 16.5579 16.4319C16.4523 16.342 16.3659 16.2318 16.3039 16.1077L15 13.5V9.51562Z" fill="#FBD490"/>
<path d="M13.125 3L12.9943 2.34642C12.9254 2.00199 12.7393 1.69207 12.4677 1.46938C12.196 1.24669 11.8556 1.125 11.5044 1.125C11.1014 1.12501 10.715 1.28509 10.43 1.57003C9.97665 2.02338 9.61702 2.56159 9.37166 3.15393C9.1263 3.74627 9.00001 4.38114 9 5.02228V5.12813C9.00002 5.51169 8.90533 5.88932 8.72434 6.2275C8.54335 6.56568 8.28167 6.85394 7.96252 7.06669L7.875 7.125L8.16562 7.27031C8.533 7.45403 8.94241 7.53735 9.35237 7.51183C9.76233 7.48631 10.1582 7.35286 10.5 7.125L13.125 3Z" fill="#683B0D"/>
<path d="M13.5 9.075L13.125 9V7.5H10.875V9L10.5 9.075V10.875L12 12L13.5 10.875V9.075Z" fill="#FBD490"/>
<path d="M13.125 7.5V7.875C12.8004 8.11842 12.4057 8.25 12 8.25C11.5943 8.25 11.1996 8.11842 10.875 7.875V7.5H13.125Z" fill="#FBD490"/>
<path d="M13.5 9.07471L15 9.51533V11.2497C15.2177 11.5762 15.3258 11.9635 15.3088 12.3556C15.2918 12.7476 15.1505 13.1241 14.9054 13.4305L14.25 14.2497H9.74999L9.09463 13.4305C8.84949 13.1241 8.70819 12.7476 8.69118 12.3556C8.67416 11.9635 8.78232 11.5762 8.99999 11.2497V9.51533L10.5 9.07471V10.8747L12 11.9997L13.5 10.8747V9.07471Z" fill="#DAD8DB"/>
<path d="M9.75 14.25V14.8882C9.75 15.2106 9.69802 15.531 9.59606 15.8369L9.375 16.5H14.625L14.4039 15.8369C14.302 15.531 14.25 15.2106 14.25 14.8882V14.25H9.75Z" fill="#FBD490"/>
<path d="M16.5 18.9749L15.75 18.3749L15.6605 18.2854L12.375 20.2499H11.8284L8.41594 18.209L8.25 18.3749L7.5 19.1249L11.6395 20.9999H12.5423L16.5 18.9749Z" fill="#4162AA"/>
<path d="M13.125 7.5V7.875C12.8004 8.11842 12.4057 8.25 12 8.25C11.5943 8.25 11.1996 8.11842 10.875 7.875V7.5H13.125Z" fill="#F6BB92"/>
<path d="M3.375 10.875H2.5703C2.36137 10.875 2.15658 10.8168 1.97886 10.707C1.80113 10.5971 1.65751 10.44 1.56408 10.2531L1.125 9.375H3.375V10.875Z" fill="#029532"/>
<path d="M3.375 10.875H4.1797C4.38863 10.875 4.59342 10.8168 4.77114 10.707C4.94887 10.5971 5.09249 10.44 5.18592 10.2531L5.625 9.375H3.375V10.875Z" fill="#029532"/>
<path d="M12.75 22.4999L19.3135 19.8192C19.4837 19.7291 19.6341 19.6057 19.7556 19.4563C19.8772 19.3069 19.9675 19.1346 20.0212 18.9497C20.0748 18.7647 20.0908 18.5708 20.068 18.3796C20.0453 18.1883 19.9843 18.0036 19.8887 17.8364C19.791 17.6653 19.6591 17.5162 19.5013 17.3982C19.3435 17.2803 19.1631 17.196 18.9713 17.1508C18.7796 17.1055 18.5806 17.1001 18.3867 17.135C18.1927 17.1699 18.0081 17.2443 17.8441 17.3536L12.375 20.6249L12.75 22.4999Z" fill="#ED3F32"/>
<path d="M11.4534 22.4999L4.88987 19.8192C4.71966 19.7291 4.56929 19.6057 4.44772 19.4563C4.32615 19.3069 4.23585 19.1346 4.18218 18.9497C4.12852 18.7647 4.11259 18.5708 4.13534 18.3796C4.15809 18.1883 4.21906 18.0036 4.31462 17.8364C4.41236 17.6653 4.54424 17.5162 4.70206 17.3982C4.85988 17.2803 5.04027 17.196 5.23202 17.1508C5.42377 17.1055 5.62279 17.1001 5.8167 17.135C6.01061 17.1699 6.19527 17.2443 6.35922 17.3536L11.8284 20.6249L11.4534 22.4999Z" fill="#ED3F32"/>
<path d="M12.375 20.625L10.5 21L9.375 20.625L8.625 21.375L9 22.5H12.75L12.375 20.625Z" fill="#FBD490"/>
<path d="M13.875 5.25V6C13.875 6.49728 13.6775 6.97419 13.3258 7.32583C12.9742 7.67746 12.4973 7.875 12 7.875C11.5027 7.875 11.0258 7.67746 10.6742 7.32583C10.3225 6.97419 10.125 6.49728 10.125 6V4.5C10.1248 4.30096 10.1563 4.10317 10.2184 3.91406L13.875 5.25Z" fill="#FBD490"/>
<path d="M13.875 4.49998V5.24998C12.6579 5.24998 11.4737 4.85523 10.5 4.12498L10.2188 3.91405C10.358 3.49041 10.6437 3.13027 11.0245 2.89826C11.4053 2.66625 11.8564 2.57758 12.2967 2.64814C12.737 2.7187 13.1378 2.94389 13.427 3.28328C13.7163 3.62267 13.8751 4.05405 13.875 4.49998Z" fill="#683B0D"/>
<path d="M3.375 7.875L2.87691 8.62209C2.71264 8.86851 2.62499 9.15803 2.625 9.45417V9.50367C2.625 9.70066 2.6638 9.89572 2.73918 10.0777C2.81457 10.2597 2.92506 10.4251 3.06436 10.5644L3.375 10.875L3.68564 10.5644C3.82494 10.4251 3.93543 10.2597 4.01082 10.0777C4.0862 9.89572 4.125 9.70066 4.125 9.50367V9.45417C4.12501 9.15803 4.03736 8.86851 3.87309 8.62209L3.375 7.875Z" fill="#02A437"/>
</svg>
