<svg width="24" height="24" viewBox="0 0 24 24" fill="none" xmlns="http://www.w3.org/2000/svg">
<g clip-path="url(#clip0_209_2741)">
<path d="M23.9719 11.1755V11.1759L23.918 11.2331C17.4769 18.1547 6.53391 18.2147 0.0168762 11.3639C0.117189 9.43594 0.673126 7.62844 1.57875 6.04688C3.64688 2.43422 7.53938 0 12 0C16.4606 0 20.3531 2.43422 22.4213 6.04688C23.0297 7.10953 23.4802 8.27437 23.7408 9.50906C23.8556 10.0523 23.9334 10.6083 23.9719 11.1755Z" fill="#4E689B"/>
<path d="M23.9719 11.1755L23.918 11.2331C17.4769 18.1547 6.53391 18.2147 0.0168762 11.3639C0.117189 9.43594 0.673126 7.62844 1.57875 6.04688C3.64688 9.65953 7.53938 12.0938 12 12.0938C16.4606 12.0938 20.3531 9.65953 22.4213 6.04688C23.2973 7.57688 23.8463 9.31781 23.9719 11.1755Z" fill="#374C81"/>
<path d="M24 12.0001C24 15.1163 22.8117 17.9551 20.8645 20.0883C18.6773 22.4837 15.533 23.9893 12.037 24.0001H12C8.48906 24.0001 5.33016 22.4921 3.13547 20.0883C2.45766 19.3458 1.87172 18.518 1.39641 17.6222C0.63 16.1804 0.149062 14.5632 0.0295312 12.8466C0.00984375 12.5672 0 12.2846 0 12.0001C0 11.7868 0.005625 11.5744 0.016875 11.364C0.301406 11.101 0.585469 10.838 0.87 10.5755C1.61766 9.88459 2.38641 8.77647 3.4875 9.32209C3.99797 9.57522 4.37484 10.0529 4.73438 10.516C5.3775 11.3447 7.35422 14.2051 8.00625 14.6185C8.40891 14.8735 8.90063 15.0099 9.35156 14.8749C9.80437 14.7399 10.1512 14.3583 10.4747 13.9927C11.1267 13.2554 11.3142 13.0458 12 12.1529C12.0975 12.0263 12.2048 11.8857 12.3253 11.7277C12.983 10.8647 13.3275 10.434 13.9706 10.7504C14.5242 11.0232 15.397 12.3446 16.0195 12.3765C16.6669 12.4097 17.0831 11.8013 17.4919 11.258C18.4542 9.97975 19.5745 8.09069 19.9683 7.69975C20.8073 6.86725 21.3816 8.12303 21.8817 8.69678C22.5905 9.51006 23.2795 10.3454 23.9719 11.1755C23.9878 11.409 23.9972 11.6447 23.9995 11.8819C24 11.9213 24 11.9607 24 12.0001Z" fill="#9596A5"/>
<path d="M24 12.0001C24 12.8321 23.9152 13.644 23.7539 14.4282C23.3114 16.5816 22.2919 18.5246 20.8645 20.0883C18.6773 22.4837 15.533 23.9893 12.037 24.0001H12V12.1529C12.0975 12.0263 12.2048 11.8857 12.3253 11.7277C12.983 10.8647 13.3275 10.434 13.9706 10.7504C14.5242 11.0232 15.397 12.3446 16.0195 12.3765C16.6669 12.4097 17.0831 11.8013 17.4919 11.258C18.4542 9.97975 19.5745 8.09069 19.9683 7.69975C20.8073 6.86725 21.3816 8.12303 21.8817 8.69678C22.5905 9.51006 23.2795 10.3454 23.9719 11.1755V11.176C23.9878 11.4094 23.9972 11.6447 23.9995 11.8819C24 11.9213 24 11.9607 24 12.0001Z" fill="#7E7F92"/>
<path d="M23.7539 14.4278C23.3114 16.5813 22.2919 18.5243 20.8645 20.088C18.6773 22.4833 15.533 23.9889 12.037 23.9997H12C8.48906 23.9997 5.33016 22.4918 3.13547 20.088C2.45766 19.3455 1.87172 18.5177 1.39641 17.6219C1.23891 17.3257 1.09359 17.0219 0.960938 16.7111C1.07109 16.6235 1.18453 16.5386 1.30172 16.4571C1.815 16.0994 2.22047 15.5824 2.91469 15.626C3.60609 15.6696 4.16156 16.1903 4.63781 16.6928C5.02875 17.1053 6.26203 18.6705 7.09922 18.6705C8.56969 18.6705 10.1836 16.0272 11.3259 16.2236C11.5542 16.263 11.7755 16.3455 12 16.4013C12.1345 16.435 12.2705 16.4589 12.4092 16.4575C13.4644 16.4482 14.0555 15.2102 14.8664 14.7058C15.3577 14.4002 16.042 15.1914 16.5727 15.0232C17.2228 14.8174 19.8164 11.756 20.4338 11.8807C20.7216 11.9388 20.9592 12.1338 21.1842 12.3222C21.6187 12.6864 22.6786 13.5457 23.7539 14.4278Z" fill="#7E7F92"/>
<path d="M23.7539 14.4278C23.3114 16.5813 22.2919 18.5243 20.8645 20.088C18.6773 22.4833 15.533 23.9889 12.037 23.9997H12V16.4013C12.1345 16.435 12.2705 16.4589 12.4092 16.4575C13.4644 16.4482 14.0555 15.2102 14.8664 14.7058C15.3577 14.4002 16.042 15.1914 16.5727 15.0232C17.2228 14.8174 19.8164 11.756 20.4338 11.8807C20.7216 11.9388 20.9592 12.1338 21.1842 12.3222C21.6187 12.6864 22.6786 13.5457 23.7539 14.4278Z" fill="#6E6F83"/>
<path d="M21.0703 19.857C21.0033 19.9352 20.9343 20.0126 20.8645 20.089C18.6773 22.4843 15.5329 23.9899 12.037 24.0007H12C9.23904 24.0007 6.6956 23.0679 4.66779 21.5004C6.04029 20.3698 7.29982 19.3132 7.87357 18.7817C9.12654 17.6206 10.0158 19.8602 11.5092 19.8467C11.6381 19.8452 11.8059 19.7834 12 19.6765C12.9408 19.1599 14.5101 17.5924 15.3829 16.7637C15.7068 16.4562 16.0565 16.1351 16.4953 16.0507C17.2739 15.9007 17.9634 16.5321 18.5048 17.1115C19.3598 18.0265 20.2148 18.9415 21.0703 19.857Z" fill="#6E6F83"/>
<path d="M21.0703 19.857C21.0033 19.9352 20.9344 20.0126 20.8645 20.089C18.6773 22.4843 15.533 23.9899 12.037 24.0007H12V19.6765C12.9408 19.1599 14.5102 17.5924 15.383 16.7637C15.7069 16.4562 16.0566 16.1351 16.4953 16.0507C17.2739 15.9007 17.9634 16.5321 18.5048 17.1115C19.3598 18.0265 20.2148 18.9415 21.0703 19.857Z" fill="#605F74"/>
<path d="M19.2914 21.5305C17.2795 23.0722 14.7652 23.991 12.037 23.9994H12C10.3092 23.9994 8.7 23.6497 7.24078 23.0183C7.77844 22.5341 8.25422 22.1113 8.55469 21.8643C8.79985 21.6627 9.12656 21.4321 9.4561 21.4686C9.87235 21.5155 10.1855 21.7841 10.6378 21.7293C11.0513 21.6791 11.4094 21.4283 11.7478 21.1855C11.8317 21.1255 11.9161 21.065 12 21.005C12.3581 20.7486 12.7153 20.4927 13.073 20.2363C13.4241 19.9846 13.7944 19.5641 14.2467 19.618C14.918 19.6977 15.2138 20.4702 15.9047 20.5278C16.5352 20.5672 16.9083 19.9574 17.4947 19.993C17.7989 20.0118 18.0427 20.2414 18.2578 20.4571C18.5897 20.7903 18.9361 21.1522 19.2914 21.5305Z" fill="#605F74"/>
<path d="M19.2914 21.5305C17.2795 23.0722 14.7652 23.991 12.037 23.9994H12V21.005C12.3581 20.7486 12.7153 20.4927 13.073 20.2363C13.4241 19.9846 13.7944 19.5641 14.2467 19.618C14.918 19.6977 15.2137 20.4702 15.9047 20.5278C16.5352 20.5672 16.9083 19.9574 17.4947 19.993C17.7989 20.0118 18.0427 20.2414 18.2578 20.4571C18.5897 20.7903 18.9361 21.1522 19.2914 21.5305Z" fill="#58586B"/>
<path d="M14.2373 6.35884C14.2373 7.50535 13.3077 8.43498 12.1612 8.43498C11.0142 8.43498 10.085 7.50535 10.085 6.35884C10.085 5.21185 11.0142 4.28223 12.1612 4.28223C13.3077 4.28227 14.2373 5.2119 14.2373 6.35884Z" fill="#FDD500"/>
<path d="M14.2373 6.35879C14.2373 7.5053 13.3077 8.43492 12.1612 8.43492V4.28223C13.3077 4.28223 14.2373 5.21185 14.2373 6.35879Z" fill="#FFBC02"/>
<path d="M1.85328 7.37575C1.85328 7.37209 1.853 7.36848 1.853 7.36483C1.853 6.69663 2.39468 6.15494 3.06289 6.15494C3.22165 6.15494 3.3731 6.18583 3.51199 6.24142C3.78031 5.76077 4.29363 5.43555 4.88323 5.43555C5.64884 5.43555 6.28605 5.98384 6.42457 6.70909C6.46587 6.70319 6.50801 6.69995 6.55094 6.69995C6.96719 6.69995 7.31594 6.98809 7.40918 7.37575H1.85328Z" fill="white"/>
<path d="M3.03377 7.37544C3.03377 7.37333 3.03363 7.37127 3.03363 7.36916C3.03363 6.98492 3.34511 6.67344 3.72935 6.67344C3.82061 6.67344 3.90776 6.6912 3.98758 6.72317C4.14185 6.4468 4.43707 6.25977 4.77607 6.25977C5.21632 6.25977 5.58274 6.57505 5.66238 6.99209C5.68615 6.98872 5.71038 6.98684 5.73504 6.98684C5.97438 6.98684 6.17496 7.15255 6.22854 7.37544H3.03377Z" fill="#DFF7FD"/>
<path d="M21.0555 5.54598C21.0555 5.54251 21.0558 5.53913 21.0558 5.53566C21.0558 4.90266 20.5426 4.38952 19.9096 4.38952C19.7593 4.38952 19.6158 4.41877 19.4842 4.47141C19.23 4.01607 18.7437 3.70801 18.1852 3.70801C17.46 3.70801 16.8563 4.22743 16.7251 4.91448C16.686 4.90885 16.6461 4.9058 16.6054 4.9058C16.2111 4.9058 15.8807 5.17876 15.7924 5.54602H21.0555V5.54598Z" fill="white"/>
<path d="M19.9372 5.54615C19.9372 5.54413 19.9374 5.54221 19.9374 5.5402C19.9374 5.17621 19.6423 4.88113 19.2783 4.88113C19.1918 4.88113 19.1093 4.89796 19.0337 4.92824C18.8875 4.6664 18.6079 4.48926 18.2867 4.48926C17.8697 4.48926 17.5226 4.78795 17.4472 5.18301C17.4247 5.17977 17.4017 5.17804 17.3783 5.17804C17.1516 5.17804 16.9616 5.33502 16.9109 5.5462H19.9372V5.54615Z" fill="#DFF7FD"/>
<path d="M9.06591 10.7016H9.02157C8.82521 10.7016 8.66602 10.5425 8.66602 10.3461V10.3018H8.41262V10.3461C8.41262 10.5425 8.25343 10.7016 8.05707 10.7016H8.01273V10.9551H8.05707C8.25343 10.9551 8.41262 11.1142 8.41262 11.3106V11.3549H8.66602V11.3106C8.66602 11.1142 8.82521 10.9551 9.02157 10.9551H9.06591V10.7016Z" fill="white"/>
<path d="M17.6262 8.07915H17.5547C17.2382 8.07915 16.9816 7.82255 16.9816 7.50601V7.43457H16.573V7.50601C16.573 7.82255 16.3164 8.07915 15.9999 8.07915H15.9284V8.48771H15.9999C16.3164 8.48771 16.573 8.7443 16.573 9.06085V9.13234H16.9816V9.06085C16.9816 8.7443 17.2382 8.48771 17.5547 8.48771H17.6262V8.07915Z" fill="white"/>
<path d="M8.90632 3.18364H8.83489C8.51834 3.18364 8.26174 2.92705 8.26174 2.6105V2.53906H7.85318V2.6105C7.85318 2.92705 7.59659 3.18364 7.28004 3.18364H7.20856V3.59221H7.28004C7.59659 3.59221 7.85318 3.8488 7.85318 4.16535V4.23683H8.26174V4.16535C8.26174 3.8488 8.51834 3.59221 8.83489 3.59221H8.90632V3.18364Z" fill="white"/>
<path d="M15.5108 2.32958H15.4664C15.2701 2.32958 15.1109 2.17039 15.1109 1.97403V1.92969H14.8574V1.97403C14.8574 2.17039 14.6982 2.32958 14.5019 2.32958H14.4575V2.58298H14.5019C14.6982 2.58298 14.8574 2.74217 14.8574 2.93853V2.98287H15.1109V2.93853C15.1109 2.74217 15.2701 2.58298 15.4664 2.58298H15.5108V2.32958Z" fill="white"/>
</g>
<defs>
<clipPath id="clip0_209_2741">
<rect width="24" height="24" fill="white"/>
</clipPath>
</defs>
</svg>
