<svg width="24" height="24" viewBox="0 0 24 24" fill="none" xmlns="http://www.w3.org/2000/svg">
<g clip-path="url(#clip0_541_4412)">
<path d="M17 10.75C16.447 10.75 16 10.302 16 9.75V6C16 3.794 14.206 2 12 2C9.794 2 8 3.794 8 6V9.75C8 10.302 7.553 10.75 7 10.75C6.447 10.75 6 10.302 6 9.75V6C6 2.691 8.691 0 12 0C15.309 0 18 2.691 18 6V9.75C18 10.302 17.553 10.75 17 10.75Z" fill="#FF6963"/>
<path d="M18.75 24H5.25C4.01 24 3 22.991 3 21.75V11.25C3 10.009 4.01 9 5.25 9H18.75C19.99 9 21 10.009 21 11.25V21.75C21 22.991 19.99 24 18.75 24Z" fill="#FBD490"/>
<path d="M14 15C14 13.897 13.103 13 12 13C10.897 13 10 13.897 10 15C10 15.737 10.405 16.375 11 16.722V19C11 19.552 11.447 20 12 20C12.553 20 13 19.552 13 19V16.722C13.595 16.375 14 15.737 14 15Z" fill="white"/>
<path d="M12 0C8.691 0 6 2.691 6 6V9H8V6C8 3.794 9.794 2 12 2V0Z" fill="#E34131"/>
<path d="M12 9H8H6H5.25C4.01 9 3 10.009 3 11.25V21.75C3 22.991 4.01 24 5.25 24H12V20C11.447 20 11 19.552 11 19V16.722C10.405 16.375 10 15.737 10 15C10 13.897 10.897 13 12 13V9Z" fill="#FFC300"/>
<path d="M12 13C10.897 13 10 13.897 10 15C10 15.737 10.405 16.375 11 16.722V19C11 19.552 11.447 20 12 20V13Z" fill="#FBD490"/>
</g>
<defs>
<clipPath id="clip0_541_4412">
<rect width="24" height="24" fill="white"/>
</clipPath>
</defs>
</svg>
