<svg width="24" height="24" viewBox="0 0 24 24" fill="none" xmlns="http://www.w3.org/2000/svg">
<path d="M20.7565 20.5011H5.27726C4.26862 20.5011 3.45093 19.682 3.45093 18.6715C3.45093 17.661 4.26858 16.8418 5.27726 16.8418H20.7565C19.9499 17.9277 19.9499 19.4152 20.7565 20.5011Z" fill="#FDFDFE"/>
<path d="M20.7565 16.8418H19.1469C18.3402 17.9277 18.3402 19.4152 19.1469 20.5011H20.7565C19.9499 19.4152 19.9499 17.9277 20.7565 16.8418Z" fill="#EEEDF8"/>
<path d="M21.2707 21.999H5.32156C3.49004 21.999 2 20.5062 2 18.6714C2 16.8365 3.49004 15.3438 5.32156 15.3438H21.2707C21.6735 15.3438 22 15.6709 22 16.0744C22 16.4779 21.6735 16.8051 21.2707 16.8051H5.32156C4.29434 16.8051 3.45867 17.6423 3.45867 18.6714C3.45867 19.7005 4.29437 20.5377 5.32156 20.5377H21.2707C21.6735 20.5377 22 20.8649 22 21.2684C22 21.6719 21.6735 21.999 21.2707 21.999Z" fill="#FFC300"/>
<path d="M20.7565 7.15738H5.27726C4.26862 7.15738 3.45093 6.33822 3.45093 5.32771C3.45093 4.31724 4.26858 3.49805 5.27726 3.49805H20.7565C19.9499 4.58399 19.9499 6.07144 20.7565 7.15738Z" fill="#FDFDFE"/>
<path d="M20.7565 3.49805H19.1469C18.3402 4.58395 18.3402 6.07144 19.1469 7.15734H20.7565C19.9499 6.07144 19.9499 4.58399 20.7565 3.49805Z" fill="#EEEDF8"/>
<path d="M21.2707 8.65524H5.32156C3.49004 8.65524 2 7.16248 2 5.32762C2 3.49276 3.49004 2 5.32156 2H21.2707C21.6735 2 22 2.32714 22 2.73068C22 3.13422 21.6735 3.46136 21.2707 3.46136H5.32156C4.29434 3.46136 3.45867 4.29859 3.45867 5.32766C3.45867 6.35673 4.29437 7.19396 5.32156 7.19396H21.2707C21.6735 7.19396 22 7.5211 22 7.92464C22 8.32811 21.6735 8.65524 21.2707 8.65524Z" fill="#FFC300"/>
<path d="M3.24353 10.1875H18.7228C19.7314 10.1875 20.5491 11.0066 20.5491 12.0172C20.5491 13.0277 19.7315 13.8468 18.7228 13.8468H3.24353C4.05017 12.7609 4.05017 11.2734 3.24353 10.1875Z" fill="#FDFDFE"/>
<path d="M2.72934 8.68945H18.6784C20.51 8.68945 22 10.1822 22 12.0171C22 13.8519 20.51 15.3447 18.6784 15.3447H2.72934C2.32652 15.3447 2 15.0175 2 14.614C2 14.2105 2.32652 13.8833 2.72934 13.8833H18.6784C19.7057 13.8833 20.5413 13.0461 20.5413 12.017C20.5413 10.988 19.7056 10.1507 18.6784 10.1507H2.72934C2.32652 10.1508 2 9.82363 2 9.42009C2 9.01659 2.32652 8.68945 2.72934 8.68945Z" fill="#5142AB"/>
<path d="M18.6784 8.68945H17.0688C18.5364 8.68945 19.7839 9.64836 20.2221 10.9734C20.4236 11.2715 20.5414 11.6307 20.5414 12.0171C20.5414 12.4034 20.4236 12.7627 20.2221 13.0608C19.7839 14.3858 18.5364 15.3447 17.0688 15.3447H18.6784C20.51 15.3447 22 13.8519 22 12.0171C22 10.1822 20.51 8.68945 18.6784 8.68945Z" fill="#6A6AFB"/>
<path d="M14.3776 12.0156H17.0285V18.2711L15.7263 17.0131L14.3776 18.2711V12.0156Z" fill="#FF9F00"/>
<path d="M15.7031 12.0156V17.0348L15.7263 17.0131L17.0285 18.2711V12.0156H15.7031Z" fill="#FBD490"/>
<path d="M18.0517 11.7148H7.65739C7.49071 11.7148 7.35559 11.85 7.35559 12.0166C7.35559 12.1833 7.49071 12.3184 7.65739 12.3184H18.0517C18.2184 12.3184 18.3535 12.1833 18.3535 12.0166C18.3535 11.85 18.2184 11.7148 18.0517 11.7148Z" fill="#FFC300"/>
</svg>
