<svg width="24" height="24" viewBox="0 0 24 24" fill="none" xmlns="http://www.w3.org/2000/svg">
<path d="M19.5816 19.6217C19.5432 20.647 19.9479 21.4835 20.5541 22.2737C20.7702 22.5555 21.0116 22.8314 21.2681 23.1077C21.5619 23.4628 21.3098 24 20.8489 24H3.15115C2.69018 24 2.43809 23.4628 2.73199 23.1077C2.98943 22.8304 3.23182 22.5545 3.44745 22.2737C4.05509 21.483 4.45728 20.6519 4.41842 19.6217V7.90369C4.41842 6.49509 3.92637 5.1307 3.02731 4.04658H3.02684C2.75482 3.71822 2.60571 3.30487 2.60571 2.87841V0.620766C2.60567 0.277828 2.88349 0 3.22643 0H20.7736C21.1166 0 21.3944 0.277828 21.3944 0.620766V2.87841C21.3944 3.30487 21.2453 3.71822 20.9733 4.04658H20.9728C20.0737 5.1307 19.5817 6.49509 19.5817 7.90369L19.5816 19.6217Z" fill="#ED3F32"/>
<path d="M21.3943 0.620766V2.81817C21.3428 2.85703 21.3147 2.87841 21.3147 2.87841H2.60559V0.620766C2.60559 0.277828 2.88342 0 3.22636 0H20.7735C21.1165 0 21.3943 0.277828 21.3943 0.620766Z" fill="#A5001E"/>
<path d="M21.268 23.1077C21.0116 22.8314 20.7702 22.5555 20.554 22.2737H6.1177C5.65293 22.2737 5.35762 21.784 5.56608 21.3686C5.8319 20.8388 5.9819 20.2696 5.95758 19.6217V7.90369C5.95758 6.49509 5.46553 5.1307 4.56647 4.04658H4.566C4.29398 3.71822 4.14487 3.30487 4.14487 2.87841V0.620766C4.14487 0.277828 4.4227 0 4.76559 0H3.22636C2.88351 0 2.60559 0.277922 2.60559 0.620766V2.87841C2.60559 3.30487 2.7547 3.71822 3.02672 4.04658H3.02718C3.92625 5.1307 4.41829 6.49509 4.41829 7.90369V19.6217C4.47136 21.0341 3.69056 22.075 2.73187 23.1078C2.43801 23.4628 2.69011 24 3.15108 24C3.92339 24 19.9632 24 20.8488 24C21.3098 24 21.5619 23.4628 21.268 23.1077Z" fill="#E34131"/>
<path d="M6.51105 4.76262C6.51105 4.62692 6.63804 4.49989 6.94896 4.49989C7.30803 4.49989 7.39118 4.6663 7.54882 4.6663C7.74153 4.6663 7.82032 4.42545 7.82032 4.30719C7.82032 3.96566 7.18099 3.92188 6.94896 3.92188C6.40155 3.92188 5.82799 4.17148 5.82799 4.8283C5.82799 5.85294 7.21606 5.76097 7.21606 6.29075C7.21606 6.50094 6.99274 6.57973 6.79127 6.57973C6.38402 6.57973 6.25273 6.25569 6.0469 6.25569C5.88049 6.25569 5.74915 6.47459 5.74915 6.62347C5.74915 6.91245 6.23079 7.19267 6.80445 7.19267C7.43937 7.19267 7.89912 6.85109 7.89912 6.22058C7.89912 5.11733 6.51105 5.20053 6.51105 4.76262Z" fill="#FFC300"/>
<path d="M10.1324 3.94834C9.96164 3.94834 9.79087 4.00965 9.79087 4.15412V5.64286L9.08151 4.28982C8.91511 3.97018 8.82318 3.94824 8.57798 3.94824C8.40722 3.94824 8.23645 4.01396 8.23645 4.15843V6.93895C8.23645 7.07906 8.40722 7.14914 8.57798 7.14914C8.7487 7.14914 8.91956 7.07911 8.91956 6.93895V5.45016L9.7515 6.9652C9.8347 7.11844 9.97481 7.14909 10.1325 7.14909C10.3032 7.14909 10.474 7.07906 10.474 6.93891V4.15421C10.4739 4.0097 10.3031 3.94834 10.1324 3.94834Z" fill="#FFC300"/>
<path d="M12.4444 4.14959C12.3962 3.99636 12.1992 3.92188 11.9978 3.92188C11.7964 3.92188 11.5993 3.99636 11.5512 4.14959L10.7367 6.82063C10.7324 6.83816 10.7279 6.85564 10.7279 6.86881C10.7279 7.03081 10.9775 7.14908 11.1658 7.14908C11.2753 7.14908 11.3629 7.11406 11.3891 7.02209L11.538 6.47473H12.4619L12.6107 7.02209C12.637 7.11406 12.7246 7.14908 12.834 7.14908C13.0223 7.14908 13.2719 7.03086 13.2719 6.86881C13.2719 6.85564 13.2675 6.83816 13.2631 6.82063L12.4444 4.14959ZM11.6782 5.94931L11.9978 4.7758L12.3174 5.94931H11.6782Z" fill="#FFC300"/>
<path d="M14.5682 4.54379C14.9404 4.54379 14.9536 4.82406 14.9579 4.93787C14.9668 5.09556 15.1155 5.14365 15.2995 5.14365C15.5316 5.14365 15.6411 5.08234 15.6411 4.8196C15.6411 4.26348 15.1681 3.94824 14.542 3.94824C13.9683 3.94824 13.4911 4.22851 13.4911 4.9816V6.14195C13.4911 6.89509 13.9684 7.17531 14.542 7.17531C15.1682 7.17531 15.6411 6.8425 15.6411 6.26017C15.6411 5.99743 15.5316 5.93612 15.2951 5.93612C15.12 5.93612 14.9711 5.9799 14.958 6.1419C14.9448 6.31267 14.923 6.57976 14.5727 6.57976C14.3187 6.57976 14.1742 6.43965 14.1742 6.1419V4.98156C14.1742 4.68385 14.3186 4.54379 14.5682 4.54379Z" fill="#FFC300"/>
<path d="M18.2158 6.72L17.3094 5.33194L18.0275 4.42993C18.0625 4.38174 18.0713 4.3336 18.0713 4.29854C18.0713 4.12777 17.8436 3.94824 17.6685 3.94824C17.5984 3.94824 17.5371 3.97454 17.4889 4.04457L16.6702 5.20496V4.15412C16.6702 4.0096 16.4994 3.94834 16.3286 3.94834C16.1579 3.94834 15.9871 4.00965 15.9871 4.15412V6.93895C15.9871 7.07906 16.1578 7.14914 16.3286 7.14914C16.4993 7.14914 16.6702 7.07911 16.6702 6.93895V6.14639L16.8541 5.90996L17.6028 7.04845C17.6597 7.14042 17.7473 7.17544 17.8392 7.17544C18.0363 7.17544 18.2508 7.00467 18.2508 6.83386C18.2508 6.79444 18.2378 6.75502 18.2158 6.72Z" fill="#FFC300"/>
<path d="M3.22636 0C2.88342 0 2.60559 0.277828 2.60559 0.620766V2.87841H4.14482V0.620766C4.14487 0.277828 4.4227 0 4.76559 0H3.22636Z" fill="#830018"/>
<path d="M14.2225 12.2954L11.9672 13.0587C11.778 13.1227 11.5905 12.9579 11.6296 12.7621L12.0963 10.4273L12.563 8.09259C12.6021 7.89674 12.8386 7.81673 12.9886 7.94859L14.7772 9.52012L16.5658 11.0917C16.7159 11.2235 16.6669 11.4682 16.4778 11.5322L14.2225 12.2954Z" fill="#FDE05D"/>
<path d="M10.2243 20.471L9.59896 22.7684C9.5465 22.9611 9.30514 23.0247 9.16447 22.8829L7.48757 21.1927L5.81066 19.5024C5.66999 19.3606 5.73557 19.1197 5.92869 19.0688L8.23096 18.4617L10.5332 17.8545C10.7263 17.8036 10.9021 17.9808 10.8497 18.1735L10.2243 20.471Z" fill="#FDE05D"/>
<path d="M15.0757 19.4275L12.2991 20.3671C12.0662 20.446 11.8353 20.2431 11.8835 20.002L12.4581 17.1276L13.0326 14.2532C13.0808 14.012 13.3719 13.9136 13.5566 14.0758L15.7586 16.0106L17.9606 17.9455C18.1454 18.1077 18.0851 18.4091 17.8522 18.4879L15.0757 19.4275Z" fill="#FDE05D"/>
<path d="M8.23658 15.942L5.92128 15.3867C5.72708 15.3401 5.65611 15.1008 5.79359 14.9559L7.43211 13.2284L9.07063 11.5009C9.20802 11.3561 9.45078 11.4143 9.5076 11.6058L10.1843 13.8885L10.8611 16.1713C10.9178 16.3628 10.746 16.5439 10.5519 16.4973L8.23658 15.942Z" fill="#FDE05D"/>
<path d="M18.0695 20.5693L18.0359 23.0581L18.0233 23.9995H14.6087L13.3152 23.2296C13.136 23.1227 13.1394 22.8619 13.3216 22.7599L15.4937 21.5442L17.6659 20.3289C17.848 20.2269 18.0724 20.3605 18.0695 20.5693Z" fill="#FDE05D"/>
<path d="M13.474 10.3562C13.6347 10.3562 13.7649 10.226 13.7649 10.0653C13.7649 9.90466 13.6347 9.77441 13.474 9.77441C13.3133 9.77441 13.1831 9.90466 13.1831 10.0653C13.1831 10.226 13.3133 10.3562 13.474 10.3562Z" fill="#FFC300"/>
<path d="M13.183 11.5711C13.3437 11.5711 13.4739 11.4408 13.4739 11.2802C13.4739 11.1195 13.3437 10.9893 13.183 10.9893C13.0223 10.9893 12.8921 11.1195 12.8921 11.2802C12.8921 11.4408 13.0223 11.5711 13.183 11.5711Z" fill="#FFC300"/>
<path d="M14.5658 11.2801C14.7265 11.2801 14.8567 11.1498 14.8567 10.9891C14.8567 10.8285 14.7265 10.6982 14.5658 10.6982C14.4051 10.6982 14.2749 10.8285 14.2749 10.9891C14.2749 11.1498 14.4051 11.2801 14.5658 11.2801Z" fill="#FFC300"/>
<path d="M16.8807 22.9744C17.0414 22.9744 17.1717 22.8441 17.1717 22.6835C17.1717 22.5228 17.0414 22.3926 16.8807 22.3926C16.7201 22.3926 16.5898 22.5228 16.5898 22.6835C16.5898 22.8441 16.7201 22.9744 16.8807 22.9744Z" fill="#FFC300"/>
<path d="M15.7035 23.3904C15.8642 23.3904 15.9944 23.2602 15.9944 23.0995C15.9944 22.9388 15.8642 22.8086 15.7035 22.8086C15.5428 22.8086 15.4126 22.9388 15.4126 23.0995C15.4126 23.2602 15.5428 23.3904 15.7035 23.3904Z" fill="#FFC300"/>
<path d="M14.0233 17.2088C14.184 17.2088 14.3142 17.0785 14.3142 16.9179C14.3142 16.7572 14.184 16.627 14.0233 16.627C13.8627 16.627 13.7324 16.7572 13.7324 16.9179C13.7324 17.0785 13.8627 17.2088 14.0233 17.2088Z" fill="#FFC300"/>
<path d="M14.0535 18.4578C14.2141 18.4578 14.3444 18.3275 14.3444 18.1669C14.3444 18.0062 14.2141 17.876 14.0535 17.876C13.8928 17.876 13.7626 18.0062 13.7626 18.1669C13.7626 18.3275 13.8928 18.4578 14.0535 18.4578Z" fill="#FFC300"/>
<path d="M15.3158 17.822C15.4765 17.822 15.6067 17.6918 15.6067 17.5311C15.6067 17.3705 15.4765 17.2402 15.3158 17.2402C15.1551 17.2402 15.0249 17.3705 15.0249 17.5311C15.0249 17.6918 15.1551 17.822 15.3158 17.822Z" fill="#FFC300"/>
<path d="M9.01796 19.783C9.17862 19.783 9.30886 19.6527 9.30886 19.4921C9.30886 19.3314 9.17862 19.2012 9.01796 19.2012C8.85729 19.2012 8.72705 19.3314 8.72705 19.4921C8.72705 19.6527 8.85729 19.783 9.01796 19.783Z" fill="#FFC300"/>
<path d="M7.88087 20.3006C8.04153 20.3006 8.17178 20.1703 8.17178 20.0097C8.17178 19.849 8.04153 19.7188 7.88087 19.7188C7.72021 19.7188 7.58997 19.849 7.58997 20.0097C7.58997 20.1703 7.72021 20.3006 7.88087 20.3006Z" fill="#FFC300"/>
<path d="M8.96107 21.2127C9.12174 21.2127 9.25198 21.0824 9.25198 20.9218C9.25198 20.7611 9.12174 20.6309 8.96107 20.6309C8.80041 20.6309 8.67017 20.7611 8.67017 20.9218C8.67017 21.0824 8.80041 21.2127 8.96107 21.2127Z" fill="#FFC300"/>
<path d="M8.74061 13.9363C8.90128 13.9363 9.03152 13.8061 9.03152 13.6454C9.03152 13.4847 8.90128 13.3545 8.74061 13.3545C8.57995 13.3545 8.44971 13.4847 8.44971 13.6454C8.44971 13.8061 8.57995 13.9363 8.74061 13.9363Z" fill="#FFC300"/>
<path d="M7.87892 14.8406C8.03958 14.8406 8.16983 14.7104 8.16983 14.5497C8.16983 14.389 8.03958 14.2588 7.87892 14.2588C7.71826 14.2588 7.58801 14.389 7.58801 14.5497C7.58801 14.7104 7.71826 14.8406 7.87892 14.8406Z" fill="#FFC300"/>
<path d="M9.22145 15.283C9.38211 15.283 9.51235 15.1527 9.51235 14.9921C9.51235 14.8314 9.38211 14.7012 9.22145 14.7012C9.06078 14.7012 8.93054 14.8314 8.93054 14.9921C8.93054 15.1527 9.06078 15.283 9.22145 15.283Z" fill="#FFC300"/>
</svg>
