<svg width="24" height="24" viewBox="0 0 24 24" fill="none" xmlns="http://www.w3.org/2000/svg">
<g clip-path="url(#clip0_195_758)">
<path d="M15.8147 17.8386L14.6396 17.3353C14.2125 17.1524 13.9355 16.7324 13.9355 16.2678V15.4839H10.0646V16.2677C10.0646 16.7324 9.78757 17.1523 9.36044 17.3353L8.18529 17.8386L8.11249 21.9374H15.8875L15.8147 17.8386Z" fill="#F6D190"/>
<path d="M10.0646 15.4841C10.6606 15.7327 11.314 15.8711 12.0001 15.8711C12.6861 15.8711 13.3396 15.7327 13.9355 15.4841V13.9355H10.0646V15.4841Z" fill="#ECBD83"/>
<path d="M17.4191 7.68789L7.69664 4.44775C6.99666 5.36074 6.58069 6.50285 6.58069 7.74218V9.67769H17.4194V7.74218C17.4194 7.72404 17.4193 7.70594 17.4191 7.68789Z" fill="#785353"/>
<path d="M16.8387 8.9035H16.2581C15.8305 8.9035 15.4839 8.55686 15.4839 8.12932V8.12777V7.74222C15.4839 6.88708 14.7906 6.19385 13.9355 6.19385H10.0645C9.78244 6.19385 9.51801 6.26927 9.29025 6.40104L8.48438 10.1721C8.48438 12.5238 9.68494 15.0369 12.0366 15.0369C12.3028 15.0369 12.5265 15.0726 12.7792 15.0259C14.7587 14.6598 16.258 12.9244 16.258 10.8389H16.7834C17.2897 10.8389 17.751 10.4747 17.8014 9.97099C17.8594 9.39171 17.4061 8.9035 16.8387 8.9035Z" fill="#FFE09F"/>
<path d="M9.29038 10.8387V6.40088C8.8295 6.6691 8.51619 7.17024 8.51619 7.74188V8.12898C8.51619 8.55652 8.16955 8.90316 7.742 8.90316H7.21663C6.71043 8.90316 6.24909 9.26738 6.19865 9.77106C6.14062 10.3503 6.59394 10.8386 7.16136 10.8386H7.742V10.8387C7.742 13.1903 9.64836 15.0967 12 15.0967C12.2648 15.0967 12.5278 15.0718 12.7792 15.0256C10.7977 14.6611 9.29038 12.9256 9.29038 10.8387Z" fill="#F6D190"/>
<path d="M9.67782 10.8388C9.54174 10.8388 9.40979 10.767 9.3391 10.6398C9.23513 10.4528 9.30245 10.2171 9.48957 10.1134L10.274 9.67751L9.48957 9.24167C9.30245 9.13789 9.23518 8.9022 9.3391 8.71526C9.44307 8.5287 9.67894 8.46087 9.86532 8.56498L11.2587 9.33917C11.3816 9.40742 11.4579 9.53689 11.4579 9.67751C11.4579 9.81814 11.3816 9.94761 11.2587 10.0159L9.86532 10.79C9.80598 10.8231 9.74134 10.8388 9.67782 10.8388Z" fill="#E2A975"/>
<path d="M14.3222 10.8388C14.2587 10.8388 14.1941 10.8231 14.1347 10.7901L12.7413 10.0159C12.6184 9.94763 12.5421 9.81816 12.5421 9.67753C12.5421 9.53691 12.6184 9.40744 12.7413 9.33919L14.1347 8.565C14.3215 8.46085 14.557 8.52872 14.6609 8.71529C14.7649 8.90222 14.6976 9.13791 14.5105 9.24169L13.7261 9.67753L14.5105 10.1134C14.6976 10.2172 14.7649 10.4528 14.6609 10.6398C14.5903 10.767 14.4583 10.8388 14.3222 10.8388Z" fill="#E2A975"/>
<path d="M3.87064 14.7095C3.67822 14.7095 3.51153 14.5663 3.48697 14.3704C3.46049 14.1584 3.61095 13.9648 3.82302 13.9383L6.91981 13.5513C7.13187 13.5229 7.32504 13.6752 7.3519 13.8873C7.37839 14.0994 7.22792 14.2929 7.01585 14.3194L3.91906 14.7065C3.90275 14.7086 3.88649 14.7095 3.87064 14.7095Z" fill="#DBEAFF"/>
<path d="M6.58105 16.2581C6.45594 16.2581 6.33308 16.1976 6.25859 16.0857C6.13991 15.9079 6.18791 15.6674 6.36594 15.5489L7.52722 14.7747C7.70563 14.6558 7.94567 14.704 8.06403 14.882C8.18272 15.0599 8.13472 15.3003 7.95669 15.4189L6.79541 16.193C6.72922 16.2371 6.65478 16.2581 6.58105 16.2581Z" fill="#EDF4FF"/>
<path d="M6.19357 12.7742H5.41938C5.2054 12.7742 5.03229 12.6008 5.03229 12.3871C5.03229 12.1733 5.20544 12 5.41938 12H6.19357C6.40756 12 6.58067 12.1733 6.58067 12.3871C6.58067 12.6008 6.40756 12.7742 6.19357 12.7742Z" fill="#EDF4FF"/>
<path d="M12.7743 13.1612H11.2259C11.0121 13.1612 10.8388 12.9879 10.8388 12.7741C10.8388 12.1327 11.3587 11.6128 12.0001 11.6128C12.6414 11.6128 13.1614 12.1327 13.1614 12.7741C13.1614 12.9879 12.9881 13.1612 12.7743 13.1612Z" fill="#B57F5F"/>
<path d="M11.9997 20.1289C11.9414 20.1289 11.8825 20.1159 11.8269 20.0881C11.6356 19.9925 11.5581 19.76 11.6538 19.5687L12.1478 18.5805H11.6129C11.4787 18.5805 11.3544 18.511 11.2837 18.397C11.213 18.2829 11.2066 18.1403 11.2667 18.0203L12.0409 16.4719C12.1365 16.2806 12.369 16.2032 12.5603 16.2988C12.7516 16.3944 12.8291 16.6269 12.7334 16.8182L12.2394 17.8064H12.7743C12.9085 17.8064 13.0328 17.8759 13.1035 17.9899C13.1742 18.104 13.1806 18.2466 13.1205 18.3666L12.3463 19.915C12.2782 20.0507 12.1418 20.1289 11.9997 20.1289Z" fill="#FF8086"/>
<path d="M20.1294 14.7095C20.1135 14.7095 20.0973 14.7086 20.081 14.7065L16.9842 14.3194C16.7722 14.2929 16.6217 14.0994 16.6482 13.8873C16.6747 13.6752 16.8671 13.5229 17.0803 13.5513L20.1771 13.9383C20.3891 13.9648 20.5396 14.1584 20.5131 14.3704C20.4886 14.5663 20.3218 14.7095 20.1294 14.7095Z" fill="#DBEAFF"/>
<path d="M17.419 16.2581C17.3453 16.2581 17.2709 16.2371 17.2047 16.1931L16.0434 15.4189C15.8654 15.3004 15.8173 15.06 15.936 14.8821C16.0544 14.704 16.294 14.6558 16.4729 14.7747L17.6341 15.5489C17.8122 15.6674 17.8602 15.9078 17.7415 16.0857C17.667 16.1976 17.5441 16.2581 17.419 16.2581Z" fill="#EDF4FF"/>
<path d="M18.5807 12.7742H17.8065C17.5925 12.7742 17.4194 12.6008 17.4194 12.3871C17.4194 12.1733 17.5926 12 17.8065 12H18.5807C18.7947 12 18.9678 12.1733 18.9678 12.3871C18.9678 12.6008 18.7947 12.7742 18.5807 12.7742Z" fill="#EDF4FF"/>
<path d="M12 6.19359C13.7103 6.19359 15.0968 4.80711 15.0968 3.0968C15.0968 1.38648 13.7103 0 12 0C10.2897 0 8.90323 1.38648 8.90323 3.0968C8.90323 4.80711 10.2897 6.19359 12 6.19359Z" fill="#785353"/>
<path d="M12 2.32275C10.2462 2.32275 8.68714 3.15572 7.69662 4.44769C9.96153 6.49257 12.9664 7.74211 16.2581 7.74211C16.6489 7.74211 17.0373 7.72224 17.4192 7.68788C17.3894 4.72032 14.9746 2.32275 12 2.32275Z" fill="#966A5B"/>
<path d="M19.3549 23.2259V20.6315C19.3549 19.857 18.8933 19.1572 18.1814 18.8523L16.528 18.1499C16.528 18.1499 14.782 20.3103 12.795 21.6146C12.3106 21.9326 11.6895 21.9326 11.2051 21.6146C9.21809 20.3102 7.47209 18.1499 7.47209 18.1499L5.81872 18.8523C5.10683 19.1572 4.6452 19.857 4.6452 20.6315V23.2259C4.6452 23.6534 4.99184 24 5.41939 24H18.5807C19.0083 24 19.3549 23.6534 19.3549 23.2259Z" fill="#DAD8DB"/>
<path d="M8.18529 17.8384L7.47049 18.1445C7.47133 18.1462 7.47119 18.148 7.47208 18.1496C7.7696 18.6919 8.90215 20.5674 10.9877 21.9364C11.295 22.1383 11.6478 22.2392 12.0001 22.2392C12.3524 22.2392 12.7051 22.1383 13.0124 21.9364C15.098 20.5674 16.2305 18.6918 16.5281 18.1496C16.5289 18.148 16.5288 18.1462 16.5296 18.1445L15.8148 17.8384C15.4961 18.4053 14.4551 20.0632 12.5876 21.2892C12.2307 21.5236 11.7695 21.5236 11.4126 21.2892C9.54504 20.0632 8.50399 18.4053 8.18529 17.8384Z" fill="#ECEAEC"/>
</g>
<defs>
<clipPath id="clip0_195_758">
<rect width="24" height="24" fill="white"/>
</clipPath>
</defs>
</svg>
