<svg width="48" height="48" viewBox="0 0 48 48" fill="none" xmlns="http://www.w3.org/2000/svg">
<path d="M39.9279 0C40.3784 0 40.7333 0.383812 40.6982 0.832875L40.2794 6.18769L38.9974 22.5806L37.066 47.2876C37.0346 47.6897 36.6991 48 36.2957 48H11.7034C11.3 48 10.9646 47.6897 10.9332 47.2876L7.96628 9.33656L7.30196 0.832781C7.26681 0.383719 7.62175 0 8.07221 0H39.9279Z" fill="#CAEDFF"/>
<path d="M39.9277 0C40.3782 0 40.7331 0.383719 40.698 0.832781L40.2798 6.18722L38.9978 22.5803L37.0662 47.2868C37.0348 47.6889 36.6992 47.9993 36.2959 47.9993H35.2288L37.215 22.5803L38.4972 6.18722L38.9814 0H39.9277Z" fill="#76C2E0"/>
<path d="M36.0286 9.79394C36.5391 9.66963 37.0231 10.0783 36.9839 10.6023L36.4467 17.7896L35.8174 26.2129L34.4959 43.9022C34.4658 44.3054 34.1298 44.6172 33.7253 44.6172H14.3236C13.9192 44.6172 13.5832 44.3054 13.553 43.9021L11.2314 12.8181C11.2046 12.4588 11.429 12.1271 11.7739 12.0223C14.3384 11.2431 18.2892 10.5591 21.9308 12.0484C26.5264 13.9274 30.4258 11.3493 35.2224 10.0056C35.488 9.9311 35.7567 9.86013 36.0286 9.79394Z" fill="#50B8FF"/>
<path d="M36.0256 9.7941C36.5374 9.6696 37.0231 10.076 36.9839 10.6013L36.4471 17.7884L35.8169 26.2117L34.4957 43.9018C34.4657 44.3051 34.1296 44.6169 33.7252 44.6169H32.7974L34.1719 26.2117L34.8021 17.7884L35.3871 9.95938C35.5977 9.90172 35.8106 9.84641 36.0256 9.7941Z" fill="#2195F2"/>
<path d="M32.6186 16.4377C32.2185 16.4377 31.8943 16.1134 31.8943 15.7134V15.5407C31.8943 15.1407 32.2186 14.8164 32.6186 14.8164C33.0186 14.8164 33.3429 15.1407 33.3429 15.5407V15.7134C33.343 16.1134 33.0187 16.4377 32.6186 16.4377Z" fill="#CAEDFF"/>
<path d="M29.2644 19.592C28.8642 19.592 28.54 19.2677 28.54 18.8677V18.695C28.54 18.295 28.8643 17.9707 29.2644 17.9707C29.6644 17.9707 29.9887 18.295 29.9887 18.695V18.8677C29.9887 19.2677 29.6644 19.592 29.2644 19.592Z" fill="#CAEDFF"/>
<path d="M32.6186 27.3615C32.2185 27.3615 31.8943 27.0373 31.8943 26.6372V26.4645C31.8943 26.0645 32.2186 25.7402 32.6186 25.7402C33.0186 25.7402 33.3429 26.0645 33.3429 26.4645V26.6372C33.343 27.0373 33.0187 27.3615 32.6186 27.3615Z" fill="#CAEDFF"/>
<path d="M20.2709 24.5979C19.8709 24.5979 19.5466 24.2736 19.5466 23.8736V23.7009C19.5466 23.3008 19.8709 22.9766 20.2709 22.9766C20.671 22.9766 20.9953 23.3008 20.9953 23.7009V23.8736C20.9953 24.2736 20.671 24.5979 20.2709 24.5979Z" fill="#CAEDFF"/>
<path d="M15.9763 18.3303C15.5762 18.3303 15.252 18.006 15.252 17.606V17.4333C15.252 17.0333 15.5762 16.709 15.9763 16.709C16.3763 16.709 16.7006 17.0333 16.7006 17.4333V17.606C16.7006 18.006 16.3763 18.3303 15.9763 18.3303Z" fill="#CAEDFF"/>
<path d="M21.5393 16.3498C21.1392 16.3498 20.8149 16.0255 20.8149 15.6255V15.4528C20.8149 15.0528 21.1392 14.7285 21.5393 14.7285C21.9393 14.7285 22.2636 15.0528 22.2636 15.4528V15.6255C22.2637 16.0255 21.9393 16.3498 21.5393 16.3498Z" fill="#CAEDFF"/>
<path d="M24.4819 37.7577H19.9354C19.5087 37.7577 19.1628 37.4118 19.1628 36.9851V32.4386C19.1628 32.0119 19.5088 31.666 19.9354 31.666H24.4819C24.9087 31.666 25.2545 32.012 25.2545 32.4386V36.9851C25.2545 37.4118 24.9086 37.7577 24.4819 37.7577Z" fill="#CAEDFF"/>
<path d="M27.6746 28.0745L23.3776 26.5892C22.9743 26.4498 22.7604 26.0098 22.8998 25.6065L24.3851 21.3095C24.5245 20.9062 24.9644 20.6923 25.3677 20.8317L29.6648 22.3169C30.0681 22.4564 30.282 22.8963 30.1426 23.2996L28.6573 27.5967C28.5179 28 28.078 28.2139 27.6746 28.0745Z" fill="#CAEDFF"/>
</svg>
