<svg width="293" height="293" viewBox="0 0 293 293" fill="none" xmlns="http://www.w3.org/2000/svg">
<circle cx="146.5" cy="146.5" r="146.5" fill="#FFFAEB" fill-opacity="0.8"/>
<path d="M191.704 176.937C191.704 188.942 172.135 198.723 147.664 199.145C147.111 199.157 146.559 199.162 146.001 199.162C120.76 199.162 100.297 189.212 100.297 176.937C100.297 171.333 104.566 166.212 111.606 162.305C119.985 157.65 132.286 154.714 146.001 154.714C156.943 154.714 166.987 156.583 174.856 159.702C176.633 160.407 178.302 161.175 179.842 162.001C187.211 165.946 191.704 171.188 191.704 176.937Z" fill="#5142AB"/>
<path d="M174.856 159.701C173.231 161.101 171.324 162.4 169.146 163.581C161.709 167.613 151.877 169.835 141.466 169.835C131.052 169.835 121.223 167.613 113.786 163.581C113.026 163.168 112.299 162.743 111.606 162.304C119.984 157.648 132.286 154.712 146 154.712C156.943 154.712 166.987 156.581 174.856 159.701Z" fill="#EDD9DE"/>
<path d="M191.704 176.936C191.704 188.941 172.135 198.722 147.664 199.144C186.844 189.95 185.364 172.672 179.842 162C187.211 165.945 191.704 171.187 191.704 176.936Z" fill="#BCB5E3"/>
<path d="M177.821 146.922C177.821 158.111 161.098 167.179 140.466 167.179C119.834 167.179 103.112 158.111 103.112 146.922C103.112 140.181 109.182 134.207 118.521 130.528C124.683 128.094 132.264 126.662 140.466 126.662C149.482 126.662 157.749 128.393 164.203 131.279C172.519 134.994 177.821 140.622 177.821 146.922Z" fill="#CECECD"/>
<path d="M186.088 119.717C186.088 125.314 167.175 129.851 143.844 129.851C120.513 129.851 101.6 125.314 101.6 119.717C101.6 116.233 108.933 113.157 120.1 111.334C126.866 110.231 135.041 109.583 143.844 109.583C149.337 109.583 154.584 109.835 159.398 110.293C175.032 111.778 186.088 115.439 186.088 119.717Z" fill="#EDD9DE"/>
<path d="M186.088 119.717C186.088 125.314 167.175 129.85 143.844 129.85C123.374 129.85 106.304 126.357 102.426 121.721C109.954 124.505 123.024 126.345 137.887 126.345C161.218 126.345 180.131 121.808 180.131 116.211C180.131 115.525 179.846 114.857 179.305 114.209C183.596 115.793 186.088 117.686 186.088 119.717Z" fill="#FFEEDC"/>
<path d="M159.398 110.293C154.794 113.91 147.446 116.211 139.02 116.211C131.434 116.211 124.721 114.347 120.1 111.334C126.865 110.231 135.041 109.583 143.844 109.583C149.337 109.583 154.584 109.835 159.398 110.293Z" fill="#FFEEDC"/>
<path d="M139.021 113.554C151.605 113.554 161.807 108.021 161.807 101.196C161.807 94.3712 151.605 88.8384 139.021 88.8384C126.437 88.8384 116.235 94.3712 116.235 101.196C116.235 108.021 126.437 113.554 139.021 113.554Z" fill="#4162AA"/>
<path d="M114.812 173.69C113.812 173.69 112.99 172.879 112.99 171.879C112.99 170.879 113.79 170.068 114.79 170.068H114.812C115.813 170.068 116.623 170.879 116.623 171.879C116.623 172.879 115.812 173.69 114.812 173.69Z" fill="white"/>
<path d="M117.307 179.172C116.307 179.172 115.485 178.361 115.485 177.361C115.485 176.361 116.285 175.55 117.285 175.55H117.307C118.307 175.55 119.118 176.361 119.118 177.361C119.118 178.361 118.307 179.172 117.307 179.172Z" fill="white"/>
<path d="M156.661 142.888C156.657 142.888 156.654 142.888 156.651 142.888C155.651 142.883 154.833 142.068 154.838 141.068C154.844 140.071 155.642 139.267 156.638 139.267C156.641 139.267 156.644 139.267 156.648 139.267L156.67 139.267C157.67 139.272 158.477 140.087 158.472 141.087C158.466 142.084 157.656 142.888 156.661 142.888Z" fill="white"/>
<path d="M124.287 119.832C123.286 119.832 122.465 119.021 122.465 118.021C122.465 117.021 123.264 116.21 124.264 116.21H124.287C125.287 116.21 126.098 117.021 126.098 118.021C126.098 119.021 125.287 119.832 124.287 119.832Z" fill="white"/>
<path d="M145.758 99.8401C145.755 99.8401 145.752 99.8401 145.748 99.8401C144.748 99.8347 143.931 99.0197 143.936 98.0197C143.941 97.0196 144.745 96.2218 145.745 96.2183L145.768 96.2185C146.768 96.2239 147.574 97.0388 147.569 98.0389C147.564 99.0357 146.754 99.8401 145.758 99.8401Z" fill="white"/>
<path d="M149.662 103.009C149.658 103.009 149.655 103.009 149.652 103.009C148.652 103.003 147.834 102.188 147.839 101.188C147.844 100.191 148.643 99.3867 149.639 99.3867C149.642 99.3867 149.645 99.3867 149.648 99.3867L149.671 99.387C150.671 99.3923 151.477 100.207 151.472 101.207C151.467 102.204 150.657 103.009 149.662 103.009Z" fill="white"/>
<path d="M177.82 146.921C177.82 158.11 161.098 167.179 140.466 167.179C125.158 167.179 112.004 162.186 106.231 155.041C113.081 159.462 123.355 162.273 134.84 162.273C155.472 162.273 172.195 153.204 172.195 142.015C172.195 139.127 171.079 136.377 169.068 133.891C174.53 137.413 177.82 141.959 177.82 146.921Z" fill="#B3B3B2"/>
<path d="M164.203 131.278C158.005 132.08 151.053 132.507 143.844 132.507C134.637 132.507 125.853 131.812 118.521 130.528C124.682 128.094 132.264 126.662 140.466 126.662C149.482 126.662 157.749 128.393 164.203 131.278Z" fill="#B3B3B2"/>
</svg>
