<svg width="142" height="148" viewBox="0 0 142 148" fill="none" xmlns="http://www.w3.org/2000/svg">
<path d="M116.704 103.937C116.704 115.942 97.1349 125.723 72.6643 126.145C72.1114 126.157 71.5585 126.162 71.0007 126.162C45.7597 126.162 25.2969 116.212 25.2969 103.937C25.2969 98.3329 29.5658 93.2118 36.6064 89.305C44.9846 84.6499 57.2865 81.7139 71.0007 81.7139C81.9432 81.7139 91.9873 83.5828 99.8562 86.7021C101.633 87.4071 103.302 88.1749 104.842 89.0006C112.211 92.9461 116.704 98.1878 116.704 103.937Z" fill="#5142AB"/>
<path d="M99.856 86.7008C98.2311 88.1012 96.3236 89.4001 94.1457 90.5809C86.709 94.6131 76.8775 96.8345 66.466 96.8345C56.0523 96.8345 46.2231 94.6131 38.7864 90.5809C38.0258 90.1679 37.299 89.743 36.6062 89.3036C44.9844 84.6484 57.2863 81.7124 71.0005 81.7124C81.943 81.7124 91.9871 83.5813 99.856 86.7008Z" fill="#EDD9DE"/>
<path d="M116.704 103.936C116.704 115.941 97.1351 125.722 72.6644 126.144C111.844 116.95 110.364 99.672 104.842 89C112.211 92.9452 116.704 98.187 116.704 103.936Z" fill="#BCB5E3"/>
<path d="M102.821 73.9219C102.821 85.1105 86.098 94.1794 65.4662 94.1794C44.8344 94.1794 28.1119 85.1105 28.1119 73.9219C28.1119 67.1806 34.182 61.2073 43.5212 57.5277C49.6829 55.0939 57.2644 53.6621 65.4664 53.6621C74.4821 53.6621 82.7492 55.3932 89.2032 58.2786C97.5186 61.9944 102.821 67.6224 102.821 73.9219Z" fill="#CECECD"/>
<path d="M111.088 46.7172C111.088 52.314 92.1752 56.8508 68.8441 56.8508C45.513 56.8508 26.6003 52.314 26.6003 46.7172C26.6003 43.2332 33.933 40.157 45.1 38.334C51.8655 37.2306 60.0407 36.5835 68.8441 36.5835C74.3371 36.5835 79.5836 36.8345 84.3981 37.2934C100.032 38.7784 111.088 42.4389 111.088 46.7172Z" fill="#EDD9DE"/>
<path d="M111.088 46.7168C111.088 52.3137 92.1752 56.8505 68.8441 56.8505C48.3742 56.8505 31.3038 53.3567 27.426 48.721C34.9544 51.5049 48.0238 53.3447 62.8874 53.3447C86.2185 53.3447 105.131 48.8079 105.131 43.211C105.131 42.5253 104.846 41.8566 104.305 41.2095C108.596 42.7934 111.088 44.6864 111.088 46.7168Z" fill="#FFEEDC"/>
<path d="M84.3981 37.2934C79.7936 40.9103 72.4464 43.2114 64.0199 43.2114C56.4336 43.2114 49.7214 41.3474 45.1 38.334C51.8654 37.2306 60.0407 36.5835 68.844 36.5835C74.3369 36.5835 79.5836 36.8345 84.3981 37.2934Z" fill="#FFEEDC"/>
<path d="M64.021 40.5542C76.6054 40.5542 86.807 35.0213 86.807 28.1963C86.807 21.3712 76.6054 15.8384 64.021 15.8384C51.4367 15.8384 41.2351 21.3712 41.2351 28.1963C41.2351 35.0213 51.4367 40.5542 64.021 40.5542Z" fill="#4162AA"/>
<path d="M39.8123 100.69C38.8122 100.69 37.9902 99.8792 37.9902 98.8791C37.9902 97.8791 38.7897 97.0684 39.79 97.0684H39.8125C40.8126 97.0684 41.6233 97.8791 41.6233 98.8791C41.6233 99.8792 40.8123 100.69 39.8123 100.69Z" fill="white"/>
<path d="M42.3073 106.172C41.3072 106.172 40.4852 105.361 40.4852 104.361C40.4852 103.361 41.2847 102.55 42.2848 102.55H42.3073C43.3073 102.55 44.118 103.361 44.118 104.361C44.118 105.361 43.3073 106.172 42.3073 106.172Z" fill="white"/>
<path d="M81.6605 69.8884C81.6573 69.8884 81.654 69.8884 81.6507 69.8884C80.6506 69.883 79.8329 69.0681 79.8383 68.068C79.8437 67.0712 80.6422 66.2666 81.6378 66.2666C81.6411 66.2666 81.6444 66.2666 81.6477 66.2666L81.6702 66.2668C82.6702 66.2722 83.4767 67.0871 83.4716 68.0872C83.4659 69.0838 82.6562 69.8884 81.6605 69.8884Z" fill="white"/>
<path d="M49.2866 46.832C48.2866 46.832 47.4646 46.0213 47.4646 45.0212C47.4646 44.0212 48.2641 43.2104 49.2644 43.2104H49.2869C50.2869 43.2104 51.0976 44.0212 51.0976 45.0212C51.0976 46.0211 50.2867 46.832 49.2866 46.832Z" fill="white"/>
<path d="M70.7582 26.8401C70.7549 26.8401 70.7516 26.8401 70.7484 26.8401C69.7483 26.8347 68.9305 26.0197 68.9359 25.0197C68.9413 24.0196 69.7448 23.2218 70.7451 23.2183L70.7676 23.2185C71.7676 23.2239 72.5741 24.0388 72.569 25.0389C72.5636 26.0357 71.7538 26.8401 70.7582 26.8401Z" fill="white"/>
<path d="M74.6615 30.0085C74.6582 30.0085 74.655 30.0085 74.6519 30.0085C73.6518 30.0031 72.8339 29.1882 72.8393 28.1881C72.8444 27.1913 73.6432 26.3867 74.6386 26.3867C74.6418 26.3867 74.6451 26.3867 74.6482 26.3867L74.6707 26.387C75.6707 26.3923 76.4772 27.207 76.4721 28.2073C76.4669 29.2041 75.6572 30.0085 74.6615 30.0085Z" fill="white"/>
<path d="M102.82 73.9214C102.82 85.11 86.0978 94.1789 65.466 94.1789C50.1583 94.1789 37.0042 89.1858 31.2311 82.0413C38.0809 86.4623 48.3545 89.2727 59.8403 89.2727C80.4721 89.2727 97.1947 80.2041 97.1947 69.0152C97.1947 66.1275 96.0794 63.3773 94.068 60.8906C99.5296 64.413 102.82 68.9594 102.82 73.9214Z" fill="#B3B3B2"/>
<path d="M89.2028 58.2784C83.0048 59.0799 76.0534 59.5074 68.8438 59.5074C59.6373 59.5074 50.8534 58.812 43.5208 57.5277C49.6825 55.0939 57.264 53.6621 65.466 53.6621C74.4817 53.6619 82.7491 55.3932 89.2028 58.2784Z" fill="#B3B3B2"/>
</svg>
