<svg width="24" height="24" viewBox="0 0 24 24" fill="none" xmlns="http://www.w3.org/2000/svg">
<path d="M15.7057 12.4725C15.7057 15.6555 13.1255 18.2356 9.94263 18.2356C6.7597 18.2356 4.17957 15.6555 4.17957 12.4725C4.17957 9.28961 6.7597 6.70947 9.94263 6.70947C13.1255 6.70947 15.7057 9.28961 15.7057 12.4725Z" fill="#FD8F3E"/>
<path d="M14.0175 8.39725C16.2682 10.648 16.2682 14.2967 14.0175 16.5475C12.0436 18.5215 8.99359 18.7643 6.75549 17.2751C7.06934 17.0666 7.36688 16.8241 7.64374 16.5475C9.89429 14.2967 9.89429 10.648 7.64374 8.39725C7.36688 8.12058 7.06934 7.87815 6.75549 7.66959C8.99396 6.18076 12.0439 6.42356 14.0175 8.39725Z" fill="#FE672D"/>
<path d="M20.7897 13.9619C20.591 10.6805 17.8675 8.08057 14.5363 8.08057C11.8495 8.08057 9.55817 9.77191 8.66772 12.1477C6.35419 12.1755 4.48706 14.0588 4.48706 16.3789C4.48706 18.7166 6.38202 20.6118 8.71973 20.6118H20.6734C22.5107 20.6118 23.9999 19.1224 23.9999 17.2853C23.9999 15.4872 22.5729 14.0231 20.7897 13.9619Z" fill="#FAB03C"/>
<path d="M24 17.2849C24 19.122 22.5104 20.6116 20.6733 20.6116H20.4157C20.6569 20.1512 20.7935 19.6268 20.7935 19.0713C20.7935 17.2732 19.3665 15.8091 17.5833 15.7476C17.3846 12.4665 14.6609 9.86621 11.3295 9.86621C10.8803 9.86621 10.4423 9.91364 10.0203 10.0034C11.1599 8.8183 12.7617 8.08057 14.5362 8.08057C17.8674 8.08057 20.5911 10.6803 20.7898 13.9619C22.5731 14.0227 24 15.487 24 17.2849Z" fill="#FD8F3E"/>
<path d="M19.1312 13.5941C18.9701 13.5941 18.8238 13.4842 18.7846 13.3205C18.7265 13.0794 18.6472 12.8417 18.5489 12.6143C18.4705 12.4334 18.5537 12.2234 18.7346 12.1452C18.9157 12.0668 19.1255 12.1501 19.2037 12.3309C19.3185 12.596 19.4108 12.8729 19.4784 13.1539C19.5243 13.3454 19.4064 13.5381 19.2149 13.5842C19.1868 13.5908 19.1588 13.5941 19.1312 13.5941Z" fill="#FAB03C"/>
<path d="M17.9474 11.433C17.8537 11.433 17.7601 11.3962 17.69 11.3232C16.8561 10.4545 15.7361 9.97607 14.5362 9.97607C14.3392 9.97607 14.1793 9.81641 14.1793 9.61938C14.1793 9.42236 14.3392 9.2627 14.5362 9.2627C15.9324 9.2627 17.2352 9.81897 18.2049 10.8292C18.3413 10.9714 18.3367 11.1972 18.1945 11.3336C18.1252 11.3999 18.0363 11.433 17.9474 11.433Z" fill="#FAB03C"/>
<path d="M3.57532 15.8575C3.71741 13.5115 5.66455 11.6528 8.04602 11.6528C9.9668 11.6528 11.605 12.8619 12.2415 14.5604C13.8957 14.5803 15.2305 15.9267 15.2305 17.5854C15.2305 19.2567 13.8757 20.6115 12.2045 20.6115C11.5049 20.6115 4.37732 20.6115 3.65845 20.6115C2.34503 20.6115 1.28027 19.5467 1.28027 18.2335C1.28027 16.9479 2.30054 15.9012 3.57532 15.8575Z" fill="#F8E98E"/>
<path d="M15.2305 17.5856C15.2305 19.2424 13.8983 20.5884 12.2463 20.6107C12.7416 20.0717 13.0435 19.3535 13.0435 18.5645C13.0435 16.9058 11.7089 15.5594 10.0545 15.5392C9.41785 13.8411 7.77997 12.6317 5.85883 12.6317C5.63196 12.6317 5.40912 12.6489 5.19104 12.6813C5.96594 12.0388 6.96075 11.6528 8.04602 11.6528C9.96698 11.6528 11.6049 12.8617 12.2415 14.5604C13.8959 14.5805 15.2305 15.9263 15.2305 17.5856Z" fill="#F6CB43"/>
<path d="M23 7.86731C22.5386 7.42996 21.9259 7.5178 21.5256 8.12899C21.3629 8.37864 21.257 8.681 21.2074 9H20.792C20.743 8.681 20.6365 8.37864 20.4738 8.12899C20.0741 7.5178 19.4608 7.42996 19 7.86731C19.0478 7.74896 19.1052 7.638 19.1718 7.53537C19.6386 6.82154 20.3958 6.82154 20.8627 7.53537C20.9141 7.61396 20.9601 7.69811 21 7.78595C21.0399 7.69811 21.0853 7.61396 21.1373 7.53537C21.6036 6.82154 22.3607 6.82154 22.8276 7.53537C22.8948 7.638 22.9522 7.74896 23 7.86731Z" fill="#BE7560"/>
<path d="M6 6.43366C5.65392 6.21498 5.19444 6.2589 4.89416 6.56449C4.77215 6.68932 4.69277 6.8405 4.65558 7H4.34397C4.30723 6.8405 4.2274 6.68932 4.10538 6.56449C3.80556 6.2589 3.34563 6.21498 3 6.43366C3.03583 6.37448 3.07892 6.319 3.12882 6.26768C3.47898 5.91077 4.04687 5.91077 4.39704 6.26768C4.43559 6.30698 4.47006 6.34905 4.5 6.39297C4.52994 6.34905 4.56396 6.30698 4.60296 6.26768C4.95268 5.91077 5.52056 5.91077 5.87073 6.26768C5.92108 6.319 5.96417 6.37448 6 6.43366Z" fill="#915040"/>
<path d="M18.55 5.50346C18.1404 5.24958 17.5967 5.30057 17.2414 5.65535C17.097 5.80027 17.0031 5.97579 16.9591 6.16096H16.5904C16.5469 5.97579 16.4524 5.80027 16.308 5.65535C15.9532 5.30057 15.409 5.24958 15 5.50346C15.0424 5.43476 15.0934 5.37035 15.1524 5.31077C15.5668 4.89641 16.2388 4.89641 16.6531 5.31077C16.6988 5.35639 16.7396 5.40524 16.775 5.45623C16.8104 5.40524 16.8507 5.35639 16.8968 5.31077C17.3107 4.89641 17.9826 4.89641 18.397 5.31077C18.4566 5.37035 18.5076 5.43476 18.55 5.50346Z" fill="#915040"/>
<path d="M18.55 5.50346C18.1405 5.24958 17.5968 5.30057 17.2414 5.65535C17.0971 5.80027 17.0031 5.97579 16.9591 6.16096H16.775V5.45623C16.8104 5.40524 16.8507 5.35639 16.8969 5.31077C17.3107 4.89641 17.9827 4.89641 18.397 5.31077C18.4566 5.37035 18.5076 5.43476 18.55 5.50346Z" fill="#915040"/>
</svg>
