<svg width="24" height="24" viewBox="0 0 24 24" fill="none" xmlns="http://www.w3.org/2000/svg">
<path d="M9.69231 2.76923V5.33333C9.69231 5.53735 9.61126 5.733 9.46701 5.87726C9.32275 6.02152 9.12709 6.10256 8.92308 6.10256C8.71906 6.10256 8.52341 6.02152 8.37915 5.87726C8.23489 5.733 8.15385 5.53735 8.15385 5.33333V2.76923C8.15385 2.56522 8.23489 2.36956 8.37915 2.2253C8.52341 2.08104 8.71906 2 8.92308 2C9.12709 2 9.32275 2.08104 9.46701 2.2253C9.61126 2.36956 9.69231 2.56522 9.69231 2.76923Z" fill="#5142AB"/>
<path d="M21.6513 5.89744C21.6034 5.23694 21.3187 4.61593 20.8495 4.14861C20.3803 3.68128 19.7581 3.39906 19.0974 3.35385C18.4308 3.30256 17.6718 3.25128 16.8718 3.21026V5.33333C16.8718 5.80936 16.6827 6.2659 16.3461 6.6025C16.0095 6.9391 15.553 7.12821 15.0769 7.12821C14.6009 7.12821 14.1444 6.9391 13.8078 6.6025C13.4712 6.2659 13.2821 5.80936 13.2821 5.33333V3.02564H10.7179V5.33333C10.7179 5.80936 10.5288 6.2659 10.1922 6.6025C9.85564 6.9391 9.39911 7.12821 8.92308 7.12821C8.44705 7.12821 7.99051 6.9391 7.65391 6.6025C7.31731 6.2659 7.12821 5.80936 7.12821 5.33333V3.21026C6.32821 3.21026 5.56923 3.30256 4.89231 3.35385C4.23236 3.40115 3.61139 3.68404 3.1426 4.15095C2.67381 4.61786 2.38842 5.23769 2.33846 5.89744C2.18462 7.79487 2 10.4821 2 12.5128C2 14.5436 2.18462 17.241 2.33846 19.1385C2.38869 19.7971 2.67445 20.4157 3.14344 20.8809C3.61242 21.3461 4.23325 21.6269 4.89231 21.6718C6.94359 21.8256 9.8359 22 12 22C14.1641 22 17.0462 21.8256 19.0974 21.6718C19.7572 21.629 20.3792 21.3489 20.8487 20.8833C21.3181 20.4176 21.6031 19.7979 21.6513 19.1385C21.8154 17.241 22 14.5538 22 12.5128C22 10.4718 21.8154 7.79487 21.6513 5.89744ZM7.89744 16.1538C7.62542 16.1538 7.36454 16.0458 7.1722 15.8534C6.97985 15.6611 6.8718 15.4002 6.8718 15.1282C6.8718 14.8562 6.97985 14.5953 7.1722 14.403C7.36454 14.2106 7.62542 14.1026 7.89744 14.1026C8.16945 14.1026 8.43033 14.2106 8.62267 14.403C8.81502 14.5953 8.92308 14.8562 8.92308 15.1282C8.92308 15.4002 8.81502 15.6611 8.62267 15.8534C8.43033 16.0458 8.16945 16.1538 7.89744 16.1538ZM7.89744 12.0513C7.62542 12.0513 7.36454 11.9432 7.1722 11.7509C6.97985 11.5585 6.8718 11.2977 6.8718 11.0256C6.8718 10.7536 6.97985 10.4927 7.1722 10.3004C7.36454 10.1081 7.62542 10 7.89744 10C8.16945 10 8.43033 10.1081 8.62267 10.3004C8.81502 10.4927 8.92308 10.7536 8.92308 11.0256C8.92308 11.2977 8.81502 11.5585 8.62267 11.7509C8.43033 11.9432 8.16945 12.0513 7.89744 12.0513ZM12 16.1538C11.728 16.1538 11.4671 16.0458 11.2748 15.8534C11.0824 15.6611 10.9744 15.4002 10.9744 15.1282C10.9744 14.8562 11.0824 14.5953 11.2748 14.403C11.4671 14.2106 11.728 14.1026 12 14.1026C12.272 14.1026 12.5329 14.2106 12.7252 14.403C12.9176 14.5953 13.0256 14.8562 13.0256 15.1282C13.0256 15.4002 12.9176 15.6611 12.7252 15.8534C12.5329 16.0458 12.272 16.1538 12 16.1538ZM12 12.0513C11.728 12.0513 11.4671 11.9432 11.2748 11.7509C11.0824 11.5585 10.9744 11.2977 10.9744 11.0256C10.9744 10.7536 11.0824 10.4927 11.2748 10.3004C11.4671 10.1081 11.728 10 12 10C12.272 10 12.5329 10.1081 12.7252 10.3004C12.9176 10.4927 13.0256 10.7536 13.0256 11.0256C13.0256 11.2977 12.9176 11.5585 12.7252 11.7509C12.5329 11.9432 12.272 12.0513 12 12.0513ZM16.1026 12.0513C15.8305 12.0513 15.5697 11.9432 15.3773 11.7509C15.185 11.5585 15.0769 11.2977 15.0769 11.0256C15.0769 10.7536 15.185 10.4927 15.3773 10.3004C15.5697 10.1081 15.8305 10 16.1026 10C16.3746 10 16.6355 10.1081 16.8278 10.3004C17.0201 10.4927 17.1282 10.7536 17.1282 11.0256C17.1282 11.2977 17.0201 11.5585 16.8278 11.7509C16.6355 11.9432 16.3746 12.0513 16.1026 12.0513Z" fill="#5142AB"/>
<path d="M15.8462 2.76923V5.33333C15.8462 5.53735 15.7651 5.733 15.6209 5.87726C15.4766 6.02152 15.2809 6.10256 15.0769 6.10256C14.8729 6.10256 14.6773 6.02152 14.533 5.87726C14.3887 5.733 14.3077 5.53735 14.3077 5.33333V2.76923C14.3077 2.56522 14.3887 2.36956 14.533 2.2253C14.6773 2.08104 14.8729 2 15.0769 2C15.2809 2 15.4766 2.08104 15.6209 2.2253C15.7651 2.36956 15.8462 2.56522 15.8462 2.76923Z" fill="#5142AB"/>
</svg>
