<svg width="24" height="24" viewBox="0 0 24 24" fill="none" xmlns="http://www.w3.org/2000/svg">
<g clip-path="url(#clip0_478_3791)">
<path d="M15.8147 17.839L14.6396 17.3357C14.2125 17.1528 13.9355 16.7329 13.9355 16.2683V15.4844H10.0646V16.2682C10.0646 16.7329 9.78757 17.1528 9.36044 17.3357L8.18529 17.839L8.11249 21.9378H15.8875L15.8147 17.839Z" fill="#F6D190"/>
<path d="M10.0646 15.4841C10.6605 15.7327 11.314 15.8711 12 15.8711C12.6861 15.8711 13.3396 15.7327 13.9355 15.4841V13.9355H10.0646V15.4841Z" fill="#ECBD83"/>
<path d="M17.4191 7.68741L7.69664 4.44727C6.99666 5.36025 6.58069 6.50236 6.58069 7.74169V9.6772H17.4194V7.74169C17.4194 7.72355 17.4193 7.70545 17.4191 7.68741Z" fill="#785353"/>
<path d="M16.8387 8.90302H16.2581C15.8305 8.90302 15.4839 8.55637 15.4839 8.12883V8.12728V7.74173C15.4839 6.88659 14.7906 6.19336 13.9355 6.19336H10.0645C9.78244 6.19336 9.51801 6.26878 9.29025 6.40055L8.48438 10.1716C8.48438 12.5233 9.68494 15.0364 12.0366 15.0364C12.3028 15.0364 12.5265 15.0721 12.7792 15.0254C14.7587 14.6593 16.258 12.924 16.258 10.8384H16.7834C17.2897 10.8384 17.751 10.4742 17.8014 9.9705C17.8594 9.39122 17.4061 8.90302 16.8387 8.90302Z" fill="#FFE09F"/>
<path d="M9.29035 10.8382V6.40039C8.82947 6.66861 8.51616 7.16975 8.51616 7.74139V8.12849C8.51616 8.55604 8.16952 8.90268 7.74197 8.90268H7.2166C6.7104 8.90268 6.24906 9.2669 6.19862 9.77057C6.14059 10.3499 6.59391 10.8381 7.16133 10.8381H7.74197V10.8382C7.74197 13.1898 9.64833 15.0962 12 15.0962C12.2648 15.0962 12.5278 15.0713 12.7792 15.0251C10.7977 14.6606 9.29035 12.9251 9.29035 10.8382Z" fill="#F6D190"/>
<path d="M9.67782 10.8383C9.54174 10.8383 9.40979 10.7665 9.3391 10.6393C9.23513 10.4523 9.30245 10.2166 9.48957 10.1129L10.274 9.67702L9.48957 9.24118C9.30245 9.1374 9.23518 8.90171 9.3391 8.71478C9.44307 8.52821 9.67894 8.46039 9.86532 8.5645L11.2587 9.33868C11.3816 9.40693 11.4579 9.5364 11.4579 9.67702C11.4579 9.81765 11.3816 9.94712 11.2587 10.0154L9.86532 10.7896C9.80598 10.8226 9.74134 10.8383 9.67782 10.8383Z" fill="#E2A975"/>
<path d="M14.3222 10.8383C14.2587 10.8383 14.1941 10.8226 14.1347 10.7896L12.7413 10.0154C12.6185 9.94714 12.5421 9.81767 12.5421 9.67705C12.5421 9.53642 12.6185 9.40695 12.7413 9.3387L14.1347 8.56452C14.3215 8.46036 14.557 8.52823 14.661 8.7148C14.7649 8.90173 14.6976 9.13742 14.5105 9.2412L13.7261 9.67705L14.5105 10.1129C14.6976 10.2167 14.7649 10.4524 14.661 10.6393C14.5903 10.7665 14.4584 10.8383 14.3222 10.8383Z" fill="#E2A975"/>
<path d="M3.87064 14.7105C3.67822 14.7105 3.51153 14.5673 3.48697 14.3714C3.46049 14.1594 3.61095 13.9658 3.82302 13.9393L6.91981 13.5522C7.13187 13.5239 7.32504 13.6762 7.3519 13.8883C7.37839 14.1003 7.22792 14.2939 7.01585 14.3204L3.91906 14.7075C3.90275 14.7096 3.88649 14.7105 3.87064 14.7105Z" fill="#DBEAFF"/>
<path d="M6.58108 16.2576C6.45597 16.2576 6.33311 16.1971 6.25862 16.0852C6.13994 15.9074 6.18794 15.6669 6.36597 15.5484L7.52725 14.7742C7.70566 14.6553 7.94571 14.7035 8.06406 14.8816C8.18275 15.0594 8.13475 15.2998 7.95672 15.4184L6.79544 16.1926C6.72925 16.2366 6.65481 16.2576 6.58108 16.2576Z" fill="#EDF4FF"/>
<path d="M6.19357 12.7742H5.41938C5.2054 12.7742 5.03229 12.6008 5.03229 12.3871C5.03229 12.1733 5.20544 12 5.41938 12H6.19357C6.40756 12 6.58067 12.1733 6.58067 12.3871C6.58067 12.6008 6.40756 12.7742 6.19357 12.7742Z" fill="#EDF4FF"/>
<path d="M12.7743 13.1617H11.2259C11.0121 13.1617 10.8388 12.9884 10.8388 12.7746C10.8388 12.1332 11.3587 11.6133 12.0001 11.6133C12.6414 11.6133 13.1614 12.1332 13.1614 12.7746C13.1614 12.9884 12.9881 13.1617 12.7743 13.1617Z" fill="#B57F5F"/>
<path d="M11.9997 20.1289C11.9415 20.1289 11.8825 20.1159 11.8269 20.0881C11.6357 19.9925 11.5582 19.76 11.6538 19.5687L12.1479 18.5805H11.613C11.4788 18.5805 11.3544 18.511 11.2837 18.397C11.213 18.2829 11.2066 18.1403 11.2667 18.0203L12.0409 16.4719C12.1365 16.2806 12.369 16.2032 12.5603 16.2988C12.7516 16.3944 12.8291 16.6269 12.7335 16.8182L12.2394 17.8064H12.7743C12.9085 17.8064 13.0328 17.8759 13.1035 17.9899C13.1742 18.104 13.1806 18.2466 13.1206 18.3666L12.3464 19.915C12.2783 20.0507 12.1418 20.1289 11.9997 20.1289Z" fill="#FF8086"/>
<path d="M20.1294 14.7105C20.1135 14.7105 20.0973 14.7096 20.0811 14.7075L16.9843 14.3204C16.7722 14.2939 16.6217 14.1003 16.6482 13.8883C16.6747 13.6762 16.8671 13.5239 17.0803 13.5522L20.1771 13.9393C20.3892 13.9658 20.5396 14.1594 20.5132 14.3714C20.4886 14.5673 20.3219 14.7105 20.1294 14.7105Z" fill="#DBEAFF"/>
<path d="M17.419 16.2576C17.3453 16.2576 17.2708 16.2366 17.2046 16.1926L16.0434 15.4184C15.8653 15.2999 15.8173 15.0595 15.936 14.8816C16.0543 14.7035 16.294 14.6553 16.4728 14.7742L17.6341 15.5484C17.8121 15.6669 17.8602 15.9073 17.7414 16.0852C17.667 16.1971 17.5441 16.2576 17.419 16.2576Z" fill="#EDF4FF"/>
<path d="M18.5807 12.7742H17.8065C17.5925 12.7742 17.4194 12.6008 17.4194 12.3871C17.4194 12.1733 17.5925 12 17.8065 12H18.5807C18.7946 12 18.9677 12.1733 18.9677 12.3871C18.9677 12.6008 18.7946 12.7742 18.5807 12.7742Z" fill="#EDF4FF"/>
<path d="M12 6.19359C13.7103 6.19359 15.0968 4.80711 15.0968 3.0968C15.0968 1.38648 13.7103 0 12 0C10.2897 0 8.9032 1.38648 8.9032 3.0968C8.9032 4.80711 10.2897 6.19359 12 6.19359Z" fill="#785353"/>
<path d="M12.0001 2.32227C10.2463 2.32227 8.68717 3.15523 7.69666 4.4472C9.96156 6.49208 12.9664 7.74162 16.2581 7.74162C16.6489 7.74162 17.0373 7.72175 17.4192 7.68739C17.3895 4.71983 14.9746 2.32227 12.0001 2.32227Z" fill="#966A5B"/>
<path d="M19.3549 23.2263V20.632C19.3549 19.8575 18.8933 19.1576 18.1814 18.8528L16.528 18.1504C16.528 18.1504 14.782 20.3108 12.795 21.6151C12.3106 21.9331 11.6895 21.9331 11.2051 21.6151C9.21809 20.3107 7.47209 18.1504 7.47209 18.1504L5.81872 18.8528C5.10683 19.1576 4.6452 19.8575 4.6452 20.632V23.2263C4.6452 23.6539 4.99184 24.0005 5.41939 24.0005H18.5807C19.0083 24.0005 19.3549 23.6539 19.3549 23.2263Z" fill="#FF6963"/>
<path d="M8.18526 17.8379L7.47046 18.144C7.4713 18.1457 7.47116 18.1475 7.47205 18.1491C7.76957 18.6914 8.90212 20.567 10.9877 21.9359C11.295 22.1378 11.6477 22.2388 12 22.2388C12.3524 22.2388 12.705 22.1378 13.0124 21.9359C15.098 20.5669 16.2305 18.6913 16.528 18.1491C16.5289 18.1475 16.5288 18.1457 16.5296 18.144L15.8148 17.8379C15.4961 18.4048 14.455 20.0627 12.5875 21.2887C12.2307 21.5231 11.7695 21.5231 11.4126 21.2887C9.54501 20.0627 8.50396 18.4048 8.18526 17.8379Z" fill="#ECEAEC"/>
</g>
<defs>
<clipPath id="clip0_478_3791">
<rect width="24" height="24" fill="white"/>
</clipPath>
</defs>
</svg>
