<svg width="24" height="24" viewBox="0 0 24 24" fill="none" xmlns="http://www.w3.org/2000/svg">
<path d="M22.5999 5.59026C22.5339 5.59026 22.4696 5.59771 22.4078 5.61145C22.4762 5.44645 22.5142 5.2656 22.5142 5.0758C22.5142 4.30316 21.8878 3.67682 21.1152 3.67682C20.9888 3.67682 20.8663 3.69388 20.7498 3.72534C20.633 2.72371 19.7817 1.94629 18.7487 1.94629C17.7158 1.94629 16.8645 2.72366 16.7477 3.72534C16.6312 3.69388 16.5087 3.67682 16.3823 3.67682C15.6097 3.67682 14.9833 4.30316 14.9833 5.0758C14.9833 5.26555 15.0213 5.4464 15.0897 5.61145C15.0279 5.59771 14.9636 5.59026 14.8976 5.59026C14.4091 5.59026 14.0131 5.9863 14.0131 6.47479C14.0131 6.96332 14.4091 7.35932 14.8976 7.35932H22.5999C23.0884 7.35932 23.4844 6.96327 23.4844 6.47479C23.4844 5.9863 23.0884 5.59026 22.5999 5.59026Z" fill="#616196"/>
<path d="M18.7487 6.05745C18.7487 6.03008 18.7498 6.00293 18.7515 5.97598C18.7506 5.97598 18.7496 5.97603 18.7487 5.97603C17.6359 5.97603 16.7338 5.07392 16.7338 3.96115C16.7338 3.88132 16.7386 3.80266 16.7477 3.72527C16.6312 3.69382 16.5087 3.67676 16.3823 3.67676C15.6097 3.67676 14.9833 4.3031 14.9833 5.07574C14.9833 5.2655 15.0213 5.44634 15.0897 5.61139C15.0279 5.59765 14.9636 5.5902 14.8976 5.5902C14.4091 5.5902 14.0131 5.98625 14.0131 6.47473C14.0131 6.96326 14.4091 7.35927 14.8976 7.35927H20.0506C19.3315 7.35927 18.7487 6.77642 18.7487 6.05745Z" fill="#515181"/>
<path d="M19.4952 11.43C19.179 11.43 18.8867 11.5316 18.6486 11.7036C18.6374 10.8448 18.0761 10.1191 17.3007 9.86243C17.568 9.40072 17.7219 8.86503 17.7219 8.29311C17.7219 6.56067 16.3175 5.15625 14.585 5.15625C12.9588 5.15625 11.6217 6.39379 11.4639 7.97849C11.2159 7.91732 10.9569 7.88422 10.69 7.88422C8.9112 7.88422 7.46924 9.32619 7.46924 11.1049C7.46924 11.2613 7.48101 11.4149 7.50252 11.5653C7.31676 11.4786 7.10971 11.4299 6.89123 11.4299C6.09159 11.4299 5.44336 12.0782 5.44336 12.8778C5.44336 13.6774 6.09159 14.3257 6.89123 14.3257H19.4953C20.2949 14.3257 20.9432 13.6774 20.9432 12.8778C20.9431 12.0782 20.2948 11.43 19.4952 11.43Z" fill="#7070AB"/>
<path d="M13.1933 11.9197C13.1933 11.6548 13.2367 11.4001 13.3158 11.1617C12.2159 10.6743 11.4482 9.5737 11.4482 8.29317C11.4482 8.18695 11.4536 8.08204 11.4639 7.97854C11.216 7.91737 10.9569 7.88428 10.69 7.88428C8.91122 7.88428 7.46925 9.32625 7.46925 11.105C7.46925 11.2614 7.48102 11.4149 7.50253 11.5654C7.31677 11.4787 7.10972 11.43 6.89123 11.43C6.09159 11.43 5.44336 12.0782 5.44336 12.8779C5.44336 13.6775 6.09159 14.3257 6.89123 14.3257H15.5994C14.2705 14.3258 13.1933 13.2486 13.1933 11.9197Z" fill="#616196"/>
<path d="M22.8961 16.1532C22.3838 17.6888 21.556 19.0805 20.4886 20.2505C18.564 21.5527 16.2427 22.3125 13.7443 22.3125C7.08807 22.3125 1.68762 16.9121 1.68762 10.2558C1.68762 8.85756 1.92575 7.51459 2.36403 6.26585C3.2659 3.69289 5.01573 1.51837 7.27838 0.077902C7.66651 -0.169128 8.14744 0.212433 7.99604 0.646962C7.85494 1.05149 7.73494 1.46633 7.63697 1.88914C7.43448 2.7657 7.32713 3.67836 7.32713 4.61632C7.3276 11.2707 12.7299 16.673 19.3838 16.673C20.6058 16.673 21.7852 16.4911 22.8961 16.1532Z" fill="#FDE05D"/>
<path d="M16.8062 19.9244C10.15 19.9244 4.74953 14.5239 4.74953 7.86771C4.74953 6.46944 4.98766 5.12647 5.42594 3.87773C5.92707 2.44805 6.69034 1.14165 7.65765 0.0155718C7.53769 -0.0159281 7.4033 -0.00177189 7.27838 0.0776809C5.01573 1.51814 3.2659 3.69267 2.36403 6.26562C1.92575 7.51437 1.68762 8.85733 1.68762 10.2556C1.68762 16.9118 7.08807 22.3123 13.7443 22.3123C16.2427 22.3123 18.564 21.5524 20.4886 20.2503C20.8524 19.8514 21.1877 19.4263 21.4928 18.979C20.0521 19.5876 18.4684 19.9244 16.8062 19.9244Z" fill="#FFC300"/>
<path d="M7.32491 12.9777C7.86496 12.9777 8.30277 12.5399 8.30277 11.9998C8.30277 11.4598 7.86496 11.022 7.32491 11.022C6.78485 11.022 6.34705 11.4598 6.34705 11.9998C6.34705 12.5399 6.78485 12.9777 7.32491 12.9777Z" fill="#FF9F00"/>
<path d="M9.04829 17.7775C9.58835 17.7775 10.0262 17.3397 10.0262 16.7996C10.0262 16.2596 9.58835 15.8218 9.04829 15.8218C8.50824 15.8218 8.07043 16.2596 8.07043 16.7996C8.07043 17.3397 8.50824 17.7775 9.04829 17.7775Z" fill="#FF9F00"/>
<path d="M16.3834 20.9001C16.9234 20.9001 17.3612 20.4623 17.3612 19.9222C17.3612 19.3821 16.9234 18.9443 16.3834 18.9443C15.8433 18.9443 15.4055 19.3821 15.4055 19.9222C15.4055 20.4623 15.8433 20.9001 16.3834 20.9001Z" fill="#FF9F00"/>
<path d="M14.2203 20.6252C15.1056 20.6252 15.8232 19.9076 15.8232 19.0223C15.8232 18.1371 15.1056 17.4194 14.2203 17.4194C13.3351 17.4194 12.6174 18.1371 12.6174 19.0223C12.6174 19.9076 13.3351 20.6252 14.2203 20.6252Z" fill="#FF9F00"/>
<path d="M14.2202 19.9221C13.724 19.9221 13.3204 19.5184 13.3204 19.0223C13.3204 18.5262 13.724 18.1226 14.2202 18.1226C14.7163 18.1226 15.1199 18.5262 15.1199 19.0223C15.1199 19.5184 14.7163 19.9221 14.2202 19.9221Z" fill="#EC781B"/>
<path d="M4.50011 10.719C5.38536 10.719 6.103 10.0013 6.103 9.11607C6.103 8.23082 5.38536 7.51318 4.50011 7.51318C3.61486 7.51318 2.89722 8.23082 2.89722 9.11607C2.89722 10.0013 3.61486 10.719 4.50011 10.719Z" fill="#FFC300"/>
<path d="M4.50006 10.0158C4.00394 10.0158 3.60034 9.6122 3.60034 9.11607C3.60034 8.61995 4.00394 8.21631 4.50006 8.21631C4.99619 8.21631 5.39983 8.61995 5.39983 9.11607C5.39983 9.6122 4.99619 10.0158 4.50006 10.0158Z" fill="#EC781B"/>
</svg>
