<svg width="24" height="24" viewBox="0 0 24 24" fill="none" xmlns="http://www.w3.org/2000/svg">
<path d="M16.5 19.5H3V6H7.5V3H1.5C0.672 3 0 3.672 0 4.5V21C0 21.8295 0.672 22.5 1.5 22.5H18C18.8295 22.5 19.5 21.8295 19.5 21V13.5465H16.5V19.5Z" fill="#F2C173"/>
<path d="M23.7 6.15017L17.7 1.65017C17.475 1.47917 17.169 1.45217 16.9155 1.57967C16.6605 1.70717 16.5 1.96667 16.5 2.25017V4.50017H14.25C9.7005 4.50017 6 8.20067 6 12.7502C6 13.0982 6.24 13.4012 6.5775 13.4807C6.6345 13.4942 6.693 13.5002 6.75 13.5002C7.029 13.5002 7.2915 13.3442 7.4205 13.0862L7.5975 12.7337C8.748 10.4312 11.061 9.00017 13.635 9.00017H16.5V11.2502C16.5 11.5337 16.6605 11.7932 16.914 11.9207C17.1675 12.0482 17.4735 12.0212 17.7 11.8502L23.7 7.35017C23.889 7.20917 24 6.98567 24 6.75017C24 6.51467 23.889 6.29117 23.7 6.15017Z" fill="#5142AB"/>
</svg>
