<svg width="24" height="24" viewBox="0 0 24 24" fill="none" xmlns="http://www.w3.org/2000/svg">
<g clip-path="url(#clip0_195_732)">
<path d="M4.91084 8.71785C4.76418 8.71785 4.62058 8.64386 4.53783 8.50945C4.26902 8.07384 3.76686 7.56993 3.19027 7.58831C2.9451 7.57518 2.74634 7.40531 2.73933 7.16408C2.73189 6.92198 2.9219 6.72015 3.16356 6.7127C4.08602 6.68512 4.87275 7.3843 5.28298 8.0502C5.40994 8.25597 5.34602 8.52565 5.14025 8.65262C5.06889 8.69684 4.98921 8.71785 4.91084 8.71785Z" fill="#436B1C"/>
<path d="M13.8714 2.88798C13.8127 2.03514 13.1039 1.36092 12.2362 1.36092C12.2335 1.36092 12.2313 1.36135 12.2287 1.36135C12.244 1.2322 12.2353 1.09561 12.1937 0.953321C12.0764 0.553168 11.7244 0.245829 11.3102 0.196357C10.9705 0.156079 10.6588 0.277789 10.4403 0.493626C10.2323 0.305808 9.96002 0.188477 9.65793 0.188477C9.01042 0.188477 8.48593 0.713404 8.48593 1.36048C8.48593 1.36267 8.48637 1.36442 8.48637 1.36661C7.69964 1.42615 7.07927 2.08242 7.07927 2.88448C7.07927 3.00706 7.09546 3.12571 7.12261 3.23997C6.18615 3.27894 5.43838 4.0486 5.43838 4.99469C5.43838 5.31517 5.5255 5.61462 5.67523 5.87337C5.38759 6.10978 5.20371 6.46834 5.20371 6.86981C5.20371 7.23669 5.35913 7.56548 5.60518 7.79971C6.66116 6.93679 7.77056 9.8228 9.07697 12.127C9.51083 12.8922 14.1984 12.0771 14.5718 12.5525C14.9974 12.1699 15.2723 5.50649 15.2842 4.92114C15.3025 3.98205 14.7063 3.18087 13.8714 2.88798Z" fill="#88C057"/>
<path d="M14.4707 11.6161L14.7829 11.4292C15.3608 11.0824 16.0823 11.0824 16.6598 11.4292L16.9719 11.6161C17.5498 11.9628 18.2713 11.9628 18.8488 11.6161L19.731 11.2238C19.8606 10.8622 19.9507 10.6004 19.9866 10.4844C20.8097 7.83697 21.3399 5.04947 21.4121 2.26897C21.441 1.15082 20.5164 -0.592958 18.9801 0.199468C17.4701 0.977884 16.3888 3.96327 15.6287 5.38088C14.5491 7.39522 13.6954 9.58599 13.0873 11.8184C13.5505 11.9353 14.0487 11.8691 14.4707 11.6161Z" fill="#EEAF4B"/>
<path d="M3.0887 11.1666L3.67755 11.5199C4.35396 11.9257 5.19892 11.9257 5.87533 11.5199L6.02681 11.4288C6.60471 11.0821 7.32621 11.0821 7.90367 11.4288L8.21583 11.6157C8.55513 11.8193 8.9439 11.8999 9.32391 11.8644C9.60411 10.9595 9.50998 9.82818 9.07568 9.06246C7.61516 6.48599 6.40025 7.01091 5.23132 8.1295C5.00716 8.34403 4.73309 8.5012 4.43451 8.58657C3.15262 8.95301 2.20653 9.55237 2.74459 11.1845C2.83959 11.1153 2.97181 11.0965 3.0887 11.1666Z" fill="#ED3F32"/>
<path d="M15.5823 10.6631C15.5359 10.6631 15.4882 10.6557 15.4418 10.6399C15.2128 10.562 15.0902 10.3133 15.1682 10.0843C15.4602 9.22537 16.398 8.76567 17.2556 9.05462C17.658 9.19165 18.0962 8.97538 18.2328 8.57304C18.3103 8.34407 18.5581 8.2206 18.7884 8.29897C19.0174 8.3769 19.1399 8.62557 19.062 8.85455C18.7704 9.71396 17.8335 10.1754 16.9746 9.88426C16.5726 9.74767 16.1344 9.96438 15.9974 10.3658C15.9348 10.5488 15.7645 10.6631 15.5823 10.6631Z" fill="#A46F3E"/>
<path d="M16.6177 7.61281C16.5713 7.61281 16.5236 7.60537 16.4772 7.58961C16.2482 7.51168 16.1256 7.26301 16.2036 7.03404C16.345 6.61769 16.64 6.28101 17.0341 6.08663C17.4281 5.89224 17.8742 5.86291 18.291 6.00432C18.6942 6.14179 19.1316 5.92508 19.2682 5.5223C19.3457 5.29289 19.5944 5.16987 19.8233 5.24823C20.0523 5.32616 20.1749 5.57484 20.097 5.80381C19.8054 6.66365 18.8685 7.12422 18.0095 6.83396C17.8147 6.76741 17.6054 6.78099 17.4211 6.87205C17.2368 6.96311 17.0989 7.12028 17.0323 7.31554C16.9706 7.49811 16.8003 7.61281 16.6177 7.61281Z" fill="#A46F3E"/>
<path d="M17.6536 4.56219C17.6072 4.56219 17.5594 4.55474 17.5126 4.53898C17.2836 4.46105 17.161 4.21238 17.239 3.98341C17.4947 3.22951 18.3173 2.82498 19.0712 3.07978C19.2157 3.12882 19.3698 3.11918 19.5059 3.0522C19.6421 2.98522 19.7441 2.86876 19.7931 2.72472C19.8706 2.49575 20.1188 2.37273 20.3487 2.45066C20.5777 2.52859 20.7003 2.77726 20.6223 3.00623C20.498 3.3718 20.2392 3.66732 19.8934 3.83762C19.5471 4.00836 19.1552 4.03332 18.7897 3.90942C18.4928 3.80829 18.1689 3.96809 18.0682 4.26536C18.006 4.44748 17.8357 4.56219 17.6536 4.56219Z" fill="#A46F3E"/>
<path d="M10.2315 6.17053C9.81776 6.72085 9.165 7.3723 9.4163 8.52285L10.0923 11.6159H10.0927L10.4049 11.429C10.9828 11.0823 11.7043 11.0823 12.2817 11.429L12.5939 11.6159C12.8478 11.7683 13.0873 11.8186 13.0873 11.8186C13.5435 10.1449 14.1376 8.49439 14.8613 6.92443C14.5224 6.07684 13.7987 5.79314 13.2734 5.50288C13.2703 5.50112 13.2672 5.49937 13.2646 5.49806C12.9323 5.30762 12.9117 4.85274 13.1617 4.56291C13.2602 4.44864 13.3058 4.29147 13.2716 4.13386L13.2186 3.89219C13.1604 3.62601 12.8951 3.45614 12.6293 3.51437L9.96881 4.0949C9.70262 4.15313 9.53275 4.41843 9.59098 4.68418L9.64396 4.92585C9.67898 5.08696 9.79018 5.21174 9.93116 5.27259C10.2547 5.41225 10.4521 5.77344 10.2867 6.08472C10.2709 6.11405 10.2525 6.14251 10.2315 6.17053Z" fill="#DAE7EF"/>
<path d="M13.0229 4.77144L10.0113 5.42946C9.67897 5.50214 9.34712 5.28936 9.27444 4.95707L9.2311 4.75918C9.15842 4.42689 9.3712 4.09503 9.70349 4.02236L12.7151 3.36434C13.0474 3.29166 13.3793 3.50444 13.452 3.83673L13.4953 4.03462C13.568 4.36735 13.3552 4.69877 13.0229 4.77144Z" fill="white"/>
<path d="M20.4962 11.0901L19.7323 22.0479C19.6762 23.142 18.773 24.0001 17.6777 24.0001H5.38805C4.29266 24.0001 3.38947 23.142 3.33343 22.0479L2.58785 11.4495C2.57515 11.2004 2.84528 11.038 3.05936 11.1663L3.64821 11.5196C4.32462 11.9254 5.16958 11.9254 5.84599 11.5196L5.99747 11.4285C6.57537 11.0818 7.29687 11.0818 7.87434 11.4285L8.18649 11.6159C8.76439 11.9626 9.4859 11.9626 10.0634 11.6159L10.3755 11.4285C10.9534 11.0818 11.6749 11.0818 12.2524 11.4285L12.5645 11.6159C13.1424 11.9626 13.8639 11.9626 14.4414 11.6159L14.7536 11.4285C15.3315 11.0818 16.053 11.0818 16.6304 11.4285L16.9426 11.6159C17.5205 11.9626 18.242 11.9626 18.8194 11.6159L20.3023 10.957C20.3964 10.915 20.5015 10.9872 20.4962 11.0901Z" fill="#FBD490"/>
<path d="M7.84106 18.3878H4.77643C4.53476 18.3878 4.33862 18.1921 4.33862 17.95C4.33862 17.7079 4.53476 17.5122 4.77643 17.5122H7.84106C8.08273 17.5122 8.27886 17.7079 8.27886 17.95C8.27886 18.1921 8.08273 18.3878 7.84106 18.3878Z" fill="#E0B877"/>
<path d="M8.71667 20.1388H4.77643C4.53476 20.1388 4.33862 19.9431 4.33862 19.701C4.33862 19.4589 4.53476 19.2632 4.77643 19.2632H8.71667C8.95833 19.2632 9.15447 19.4589 9.15447 19.701C9.15447 19.9431 8.95833 20.1388 8.71667 20.1388Z" fill="#E0B877"/>
<path d="M9.59228 21.8903H4.77643C4.53476 21.8903 4.33862 21.6946 4.33862 21.4525C4.33862 21.2103 4.53476 21.0146 4.77643 21.0146H9.59228C9.83394 21.0146 10.0301 21.2103 10.0301 21.4525C10.0301 21.6946 9.83394 21.8903 9.59228 21.8903Z" fill="#E0B877"/>
<path d="M12.2191 21.8903H11.3435C11.1018 21.8903 10.9057 21.6946 10.9057 21.4525C10.9057 21.2103 11.1018 21.0146 11.3435 21.0146H12.2191C12.4608 21.0146 12.6569 21.2103 12.6569 21.4525C12.6569 21.6946 12.4608 21.8903 12.2191 21.8903Z" fill="#E0B877"/>
</g>
<defs>
<clipPath id="clip0_195_732">
<rect width="24" height="24" fill="white"/>
</clipPath>
</defs>
</svg>
