<svg width="24" height="24" viewBox="0 0 24 24" fill="none" xmlns="http://www.w3.org/2000/svg">
<path d="M19.375 3.80078H4.62514C3.66285 3.80078 2.88275 4.58092 2.88275 5.54317V22.2569C2.88275 23.2192 3.66289 23.9993 4.62514 23.9993H19.3751C20.3374 23.9993 21.1175 23.2191 21.1175 22.2569V5.54317C21.1174 4.58083 20.3374 3.80078 19.375 3.80078Z" fill="#FFBA4D"/>
<path d="M5.08582 3.80078V5.90383C5.08582 7.10364 6.06194 8.07981 7.2618 8.07981H16.7382C17.9381 8.07981 18.9142 7.10369 18.9142 5.90383V3.80078H5.08582Z" fill="#FAA330"/>
<path d="M4.625 22.3365C4.58146 22.3365 4.54602 22.3011 4.54602 22.2575V5.54383C4.54602 5.50028 4.58146 5.46484 4.625 5.46484H19.3749C19.4185 5.46484 19.4539 5.50028 19.4539 5.54383V22.2575C19.4539 22.3011 19.4185 22.3365 19.3749 22.3365H4.625Z" fill="#F0F0F0"/>
<path d="M5.08582 5.46484V5.90449C5.08582 7.1043 6.06194 8.08048 7.2618 8.08048H16.7382C17.9381 8.08048 18.9142 7.10435 18.9142 5.90449V5.46484C18.9142 5.46484 5.08582 5.46484 5.08582 5.46484Z" fill="#D9D9D9"/>
<path d="M16.7382 2.14284H14.1429C14.1429 0.959391 13.1835 0 12 0C10.8165 0 9.85718 0.959391 9.85718 2.14284H7.26186C6.86019 2.14284 6.53455 2.46848 6.53455 2.87016V5.90461C6.53455 6.30628 6.86019 6.63192 7.26186 6.63192H16.7382C17.1399 6.63192 17.4655 6.30628 17.4655 5.90461V2.87016C17.4655 2.46848 17.1399 2.14284 16.7382 2.14284Z" fill="#BCBCBC"/>
<path d="M11.9999 2.78147C12.4218 2.78147 12.7637 2.43951 12.7637 2.01769C12.7637 1.59586 12.4218 1.25391 11.9999 1.25391C11.5781 1.25391 11.2361 1.59586 11.2361 2.01769C11.2361 2.43951 11.5781 2.78147 11.9999 2.78147Z" fill="#E3E3E3"/>
<path d="M8.66098 4.92238C8.46092 4.92238 8.29883 4.76023 8.29883 4.56022V3.95591C8.29883 3.75589 8.46092 3.59375 8.66098 3.59375C8.86105 3.59375 9.02314 3.75589 9.02314 3.95591V4.56017C9.02319 4.76019 8.86105 4.92238 8.66098 4.92238Z" fill="#3B484A"/>
<path d="M15.3388 4.92238C15.1387 4.92238 14.9766 4.76023 14.9766 4.56022V3.95591C14.9766 3.75589 15.1387 3.59375 15.3388 3.59375C15.5388 3.59375 15.7009 3.75589 15.7009 3.95591V4.56017C15.7009 4.76019 15.5388 4.92238 15.3388 4.92238Z" fill="#3B484A"/>
<path d="M11.9999 5.24524C11.5742 5.24524 11.1744 5.0672 10.9032 4.7568C10.7715 4.60619 10.7869 4.37739 10.9375 4.24577C11.0881 4.11414 11.3169 4.12952 11.4485 4.28008C11.5823 4.43313 11.7832 4.52083 11.9999 4.52083C12.2166 4.52083 12.4175 4.43308 12.5513 4.28008C12.683 4.12947 12.9118 4.1141 13.0623 4.24577C13.2129 4.37739 13.2284 4.60619 13.0966 4.7568C12.8253 5.06725 12.4256 5.24524 11.9999 5.24524Z" fill="#3B484A"/>
<path d="M15.9921 14.9196H8.00779C7.80772 14.9196 7.64563 14.7575 7.64563 14.5575C7.64563 14.3575 7.80772 14.1953 8.00779 14.1953H15.9921C16.1922 14.1953 16.3543 14.3575 16.3543 14.5575C16.3543 14.7575 16.1922 14.9196 15.9921 14.9196Z" fill="#3B484A"/>
<path d="M15.9921 17.1071H8.00779C7.80772 17.1071 7.64563 16.945 7.64563 16.745C7.64563 16.545 7.80772 16.3828 8.00779 16.3828H15.9921C16.1922 16.3828 16.3543 16.545 16.3543 16.745C16.3543 16.9449 16.1922 17.1071 15.9921 17.1071Z" fill="#3B484A"/>
<path d="M15.9921 19.2927H8.00779C7.80772 19.2927 7.64563 19.1305 7.64563 18.9305C7.64563 18.7305 7.80772 18.5684 8.00779 18.5684H15.9921C16.1922 18.5684 16.3543 18.7305 16.3543 18.9305C16.3543 19.1305 16.1922 19.2927 15.9921 19.2927Z" fill="#3B484A"/>
<path d="M14.0485 9.74364H12.7638V8.45898H11.2362V9.74364H9.95154V11.2713H11.2362V12.556H12.7638V11.2713H14.0485V9.74364Z" fill="#FC7C81"/>
</svg>
