<svg width="24" height="24" viewBox="0 0 24 24" fill="none" xmlns="http://www.w3.org/2000/svg">
<path d="M22.8939 16.1697C22.7499 16.3137 22.6028 16.3078 22.4528 16.4417C20.2645 18.3951 17.4576 19.2778 14.7101 19.0899C12.2565 18.922 9.70549 17.9003 7.82992 16.0245C3.78444 11.9788 3.71466 5.38872 7.67737 1.26188C7.80939 1.1244 7.94422 1.08785 8.08165 0.959156C8.48347 0.582785 8.05784 -0.0722647 7.54892 0.137747C7.28859 0.245192 7.17602 0.265232 6.92197 0.391075C5.73969 0.976685 4.63111 1.76173 3.64648 2.74641C-1.21557 7.60846 -1.21557 15.4914 3.64648 20.3534C5.89321 22.6002 8.78494 23.8087 11.7256 23.979C15.1488 24.1773 18.445 22.9688 21.0603 20.3534C22.2569 19.1569 23.207 17.7772 23.8144 16.3047C24.0247 15.7948 23.514 15.516 23.1369 15.9186C23.0576 16.0032 22.9766 16.087 22.8939 16.1697Z" fill="#FFE177"/>
<path d="M20.8507 6.68537C20.6792 4.26663 19.1458 2.40598 16.6834 2.40598C16.4372 2.40598 16.1955 2.37682 15.9597 2.41361C15.8443 2.43162 15.7302 2.45384 15.6177 2.48016C14.7775 1.66082 13.6294 1.15576 12.3631 1.15576C9.78824 1.15576 7.70087 3.24313 7.70087 5.81804C7.70087 8.39294 9.78824 10.4803 12.3631 10.4803C12.7298 10.4803 13.0865 10.4379 13.4288 10.3579C13.4443 10.373 13.4598 10.3881 13.4755 10.4031C13.6256 12.5194 15.1881 14.2456 17.226 14.644C17.5172 14.7009 17.818 14.6824 18.1258 14.6824C20.7007 14.6824 22.3051 12.6434 22.3051 10.0685C22.3051 8.73643 21.7464 7.53498 20.8507 6.68537Z" fill="#EEF5F6"/>
<path d="M13.184 8.03701H10.8591C10.7262 8.03701 10.604 7.96424 10.5407 7.84738C10.4773 7.73056 10.4831 7.58845 10.5556 7.47709L12.4616 4.55198H10.9306C10.7305 4.55198 10.5684 4.38988 10.5684 4.18981C10.5684 3.98975 10.7305 3.82764 10.9306 3.82764H13.1298C13.2627 3.82764 13.3849 3.90041 13.4482 4.01727C13.5115 4.13408 13.5058 4.2762 13.4333 4.38756L11.5273 7.31266H13.1839C13.384 7.31266 13.5461 7.47477 13.5461 7.67484C13.5462 7.87485 13.384 8.03701 13.184 8.03701Z" fill="#7A6D79"/>
<path d="M16.3826 9.56582H14.0577C13.9248 9.56582 13.8025 9.49305 13.7392 9.37619C13.6759 9.25937 13.6817 9.11726 13.7542 9.0059L15.6601 6.08079H14.1291C13.9291 6.08079 13.7669 5.91868 13.7669 5.71862C13.7669 5.51855 13.9291 5.35645 14.1291 5.35645H16.3284C16.4613 5.35645 16.5835 5.42922 16.6468 5.54608C16.7102 5.66289 16.7044 5.80501 16.6319 5.91637L14.7259 8.84147H16.3826C16.5826 8.84147 16.7447 9.00358 16.7447 9.20365C16.7447 9.40371 16.5826 9.56582 16.3826 9.56582Z" fill="#7A6D79"/>
<path d="M19.5811 11.0941H17.2562C17.1233 11.0941 17.0011 11.0214 16.9378 10.9045C16.8745 10.7877 16.8802 10.6456 16.9528 10.5342L18.8587 7.60911H17.3277C17.1277 7.60911 16.9655 7.447 16.9655 7.24694C16.9655 7.04687 17.1277 6.88477 17.3277 6.88477H19.5269C19.6598 6.88477 19.7821 6.95754 19.8454 7.0744C19.9087 7.19121 19.9029 7.33333 19.8304 7.44469L17.9244 10.3698H19.5811C19.7811 10.3698 19.9432 10.532 19.9432 10.732C19.9433 10.932 19.7811 11.0941 19.5811 11.0941Z" fill="#7A6D79"/>
<path d="M10.7538 13.3347C10.7538 13.9018 10.3423 14.3134 9.77509 14.3134C9.65653 14.3134 9.54267 14.3416 9.43667 14.3046C9.03577 14.1647 8.74811 13.7833 8.74811 13.3347C8.74811 12.8861 9.03577 12.5046 9.43667 12.3648C9.54262 12.3278 9.65649 12.356 9.77509 12.356C10.3423 12.356 10.7538 12.7675 10.7538 13.3347Z" fill="#EEF5F6"/>
<path d="M6.77783 0.862476C6.6404 0.991217 6.50557 1.1243 6.37355 1.26183C2.41084 5.38867 2.48062 11.9787 6.5261 16.0245C8.77037 18.2689 11.7742 19.2903 14.7102 19.0894C12.2565 18.9216 9.85037 17.9002 7.97479 16.0245C3.92931 11.9787 3.85953 5.38867 7.82224 1.26183C7.95427 1.12435 8.08909 0.991217 8.22653 0.862476C8.62835 0.486106 8.20272 -0.168944 7.69379 0.0410677C7.43346 0.148464 7.17622 0.265567 6.92222 0.39141C6.96114 0.548255 6.92555 0.724174 6.77783 0.862476Z" fill="#FFC344"/>
<path d="M23.137 15.7738C23.0576 15.8585 22.9766 15.9423 22.8939 16.025C22.7498 16.169 22.6024 16.3075 22.4523 16.4414C21.8461 17.8626 20.9642 19.1941 19.8048 20.3535C17.5581 22.6002 14.6663 23.8079 11.7256 23.9782C15.1488 24.1765 18.6382 22.9689 21.2535 20.3535C22.4501 19.157 23.3519 17.7773 23.9593 16.3048C24.1696 15.7949 23.5141 15.3713 23.137 15.7738Z" fill="#FFC344"/>
<path d="M21.3336 6.68559C21.162 4.26685 19.1458 2.35791 16.6834 2.35791C16.4372 2.35791 16.1956 2.37747 15.9597 2.41426C18.0824 2.74577 19.7305 4.50917 19.8849 6.68559C20.7807 7.5352 21.3394 8.73665 21.3394 10.0687C21.3394 12.397 19.6326 14.3265 17.402 14.6748C17.6379 14.7116 17.8795 14.7309 18.1258 14.7309C20.7007 14.7309 22.7881 12.6436 22.7881 10.0687C22.788 8.73665 22.2293 7.5352 21.3336 6.68559Z" fill="#DEECF1"/>
<path d="M9.77505 12.3071C9.65645 12.3071 9.54302 12.3283 9.43703 12.3653C9.83788 12.5052 10.126 12.8855 10.126 13.3341C10.126 13.7827 9.83788 14.163 9.43703 14.3029C9.54302 14.3399 9.65645 14.3611 9.77505 14.3611C10.3422 14.3611 10.802 13.9013 10.802 13.3341C10.802 12.7669 10.3423 12.3071 9.77505 12.3071Z" fill="#DEECF1"/>
<path d="M15.4961 13.5938C15.4961 14.3504 14.931 14.9155 14.1743 14.9155C14.0043 14.9155 13.8415 14.9328 13.6913 14.8762C13.1729 14.681 12.8042 14.1804 12.8042 13.5938C12.8042 13.0263 13.1492 12.5394 13.641 12.3314C13.8049 12.262 13.9851 12.272 14.1743 12.272C14.931 12.272 15.4961 12.8371 15.4961 13.5938Z" fill="#EEF5F6"/>
<path d="M14.1743 12.2236C14.0042 12.2236 13.8416 12.2548 13.6914 12.3114C14.2097 12.5068 14.5785 13.007 14.5785 13.5937C14.5785 14.1803 14.2097 14.6806 13.6914 14.8759C13.8416 14.9325 14.0042 14.9637 14.1743 14.9637C14.9309 14.9637 15.5443 14.3503 15.5443 13.5936C15.5443 12.8371 14.931 12.2236 14.1743 12.2236Z" fill="#DEECF1"/>
</svg>
