<svg width="20" height="22" viewBox="0 0 20 22" fill="none" xmlns="http://www.w3.org/2000/svg">
<path d="M9.99999 11.8138C11.4048 11.8138 12.5436 10.675 12.5436 9.27019C12.5436 7.86538 11.4048 6.72656 9.99999 6.72656C8.59518 6.72656 7.45636 7.86538 7.45636 9.27019C7.45636 10.675 8.59518 11.8138 9.99999 11.8138Z" fill="#E63950"/>
<path d="M11.2681 7.06445C11.4832 7.43777 11.6063 7.87071 11.6063 8.33252C11.6063 9.73737 10.4674 10.8762 9.06262 10.8762C8.6009 10.8762 8.16787 10.7531 7.79456 10.538C8.23378 11.3004 9.057 11.8137 10.0001 11.8137C11.405 11.8137 12.5438 10.6749 12.5438 9.27002C12.5437 8.32689 12.0305 7.50367 11.2681 7.06445Z" fill="#D10028"/>
<path d="M16.5204 11.8138C17.9252 11.8138 19.064 10.675 19.064 9.27019C19.064 7.86538 17.9252 6.72656 16.5204 6.72656C15.1156 6.72656 13.9767 7.86538 13.9767 9.27019C13.9767 10.675 15.1156 11.8138 16.5204 11.8138Z" fill="#FF998D"/>
<path d="M17.7884 7.06445C18.0035 7.43777 18.1266 7.87071 18.1266 8.33252C18.1266 9.73737 16.9877 10.8762 15.5829 10.8762C15.1212 10.8762 14.6882 10.7531 14.3149 10.538C14.7541 11.3004 15.5773 11.8137 16.5204 11.8137C17.9253 11.8137 19.0641 10.6749 19.0641 9.27002C19.0641 8.32689 18.5508 7.50367 17.7884 7.06445Z" fill="#FF6963"/>
<path d="M3.4796 11.8138C4.8844 11.8138 6.02322 10.675 6.02322 9.27019C6.02322 7.86538 4.8844 6.72656 3.4796 6.72656C2.07479 6.72656 0.935974 7.86538 0.935974 9.27019C0.935974 10.675 2.07479 11.8138 3.4796 11.8138Z" fill="#FF998D"/>
<path d="M4.7477 7.06445C4.96276 7.43777 5.08585 7.87071 5.08585 8.33252C5.08585 9.73737 3.94698 10.8762 2.54223 10.8762C2.08051 10.8762 1.64748 10.7531 1.27417 10.538C1.71339 11.3004 2.53661 11.8137 3.47973 11.8137C4.88457 11.8137 6.02335 10.6749 6.02335 9.27002C6.02335 8.32689 5.51007 7.50367 4.7477 7.06445Z" fill="#FF6963"/>
<path d="M9.99999 5.75717C11.4048 5.75717 12.5436 4.61835 12.5436 3.21355C12.5436 1.80874 11.4048 0.669922 9.99999 0.669922C8.59518 0.669922 7.45636 1.80874 7.45636 3.21355C7.45636 4.61835 8.59518 5.75717 9.99999 5.75717Z" fill="#F79219"/>
<path d="M11.2681 1.00781C11.4832 1.38113 11.6063 1.81406 11.6063 2.27587C11.6063 3.68072 10.4674 4.8195 9.06262 4.8195C8.6009 4.8195 8.16787 4.6965 7.79456 4.48134C8.23387 5.24372 9.057 5.757 10.0001 5.757C11.405 5.757 12.5438 4.61813 12.5438 3.21338C12.5437 2.27025 12.0305 1.44703 11.2681 1.00781Z" fill="#EF7816"/>
<path d="M16.5204 5.75717C17.9252 5.75717 19.064 4.61835 19.064 3.21355C19.064 1.80874 17.9252 0.669922 16.5204 0.669922C15.1156 0.669922 13.9767 1.80874 13.9767 3.21355C13.9767 4.61835 15.1156 5.75717 16.5204 5.75717Z" fill="#FFC91D"/>
<path d="M17.7884 1.00781C18.0035 1.38113 18.1266 1.81406 18.1266 2.27587C18.1266 3.68072 16.9877 4.8195 15.5829 4.8195C15.1212 4.8195 14.6882 4.6965 14.3149 4.48134C14.7542 5.24372 15.5773 5.757 16.5204 5.757C17.9253 5.757 19.0641 4.61813 19.0641 3.21338C19.0641 2.27025 18.5508 1.44703 17.7884 1.00781Z" fill="#FFA91A"/>
<path d="M3.4796 5.75717C4.8844 5.75717 6.02322 4.61835 6.02322 3.21355C6.02322 1.80874 4.8844 0.669922 3.4796 0.669922C2.07479 0.669922 0.935974 1.80874 0.935974 3.21355C0.935974 4.61835 2.07479 5.75717 3.4796 5.75717Z" fill="#FFC91D"/>
<path d="M4.7477 1.00781C4.96276 1.38113 5.08585 1.81406 5.08585 2.27587C5.08585 3.68072 3.94698 4.8195 2.54223 4.8195C2.08051 4.8195 1.64748 4.6965 1.27417 4.48134C1.71348 5.24372 2.53661 5.757 3.47973 5.757C4.88457 5.757 6.02335 4.61813 6.02335 3.21338C6.02335 2.27025 5.51007 1.44703 4.7477 1.00781Z" fill="#FFA91A"/>
<path d="M14.9286 12.9925C14.4723 12.9925 14.1034 13.3614 14.1034 13.8177V13.4078C14.1028 13.21 14.0359 13.0301 13.9149 12.8832C13.9149 12.8817 13.9149 12.8817 13.9149 12.8817C13.4253 12.2907 12.4552 12.6387 12.4544 13.4078V12.9979C12.4129 11.9105 10.8516 11.9001 10.8053 12.9979V9.34315C10.7551 8.23971 9.19187 8.25115 9.15624 9.37231V15.1679C9.15624 15.26 9.06708 15.3257 8.97915 15.2984L7.18468 14.7426C6.10721 14.4444 5.56908 15.9386 6.58486 16.3972L6.57942 16.3999C6.57942 16.3999 9.82159 17.8317 9.80377 18.6392H15.3221V18.2021C15.3221 17.9493 15.3959 17.702 15.5366 17.4902C15.6773 17.2798 15.7525 17.0325 15.7525 16.7784V13.8177C15.7525 13.3613 15.3836 12.9925 14.9286 12.9925Z" fill="#FFE09F"/>
<path d="M14.9286 12.9922C14.8899 12.9922 14.8522 12.9958 14.8149 13.0009V15.8406C14.8149 16.0947 14.7398 16.342 14.599 16.5524C14.4583 16.7642 14.3845 17.0114 14.3845 17.2643V17.7014H8.9776C9.45394 18.0326 9.80963 18.3703 9.80372 18.6389H15.322V18.2018C15.322 17.949 15.3958 17.7017 15.5365 17.4899C15.6773 17.2796 15.7524 17.0322 15.7524 16.7781V13.8174C15.7524 13.361 15.3835 12.9922 14.9286 12.9922Z" fill="#F2C173"/>
<path d="M6.11614 15.936C6.11314 15.9346 6.1106 15.933 6.1076 15.9316C6.10854 15.934 6.10967 15.9363 6.1107 15.9387L6.11614 15.936Z" fill="#F79219"/>
<path d="M10.0756 18.6387H9.8031C9.79476 19.0202 9.93033 18.8861 10.0756 18.6387Z" fill="#F7CB15"/>
<path d="M16.0598 19.1867V21.4337C16.0598 21.7364 15.8144 21.9818 15.5117 21.9818H9.60189C9.29918 21.9818 9.05383 21.7365 9.05383 21.4337V19.1867C9.05383 18.884 9.29918 18.6387 9.60189 18.6387H15.5117C15.8143 18.6388 16.0598 18.8841 16.0598 19.1867Z" fill="#808285"/>
<path d="M9.61652 20.7462C9.5133 20.7462 9.42902 20.6627 9.42902 20.5587C9.42902 20.4555 9.5133 20.3712 9.61652 20.3712C9.71964 20.3712 9.80402 20.4555 9.80402 20.5587C9.80402 20.6627 9.71964 20.7462 9.61652 20.7462ZM9.61652 19.9962C9.5133 19.9962 9.42902 19.9127 9.42902 19.8087V19.2002C9.42902 19.1515 9.4487 19.1027 9.48433 19.068C9.51902 19.0334 9.56683 19.0137 9.61652 19.0137H14.3471C14.4503 19.0137 14.5346 19.0971 14.5346 19.2002C14.5346 19.3043 14.4503 19.3877 14.3471 19.3877H9.80402V19.8087C9.80402 19.9127 9.71964 19.9962 9.61652 19.9962Z" fill="#939598"/>
<path d="M15.5117 18.6387H15.1223V20.4962C15.1223 20.799 14.877 21.0443 14.5742 21.0443H9.05396V21.4337C9.05396 21.7365 9.2993 21.9818 9.60202 21.9818H15.5118C15.8145 21.9818 16.0599 21.7365 16.0599 21.4337V19.1866C16.0598 18.884 15.8144 18.6387 15.5117 18.6387Z" fill="#58595B"/>
<path d="M15.5856 18.6445C15.5889 18.6687 15.5911 18.6932 15.5911 18.7183V20.9653C15.5911 21.268 15.3458 21.5134 15.0431 21.5134H9.13323C9.1081 21.5134 9.08364 21.5111 9.05945 21.5078C9.09554 21.7756 9.32439 21.9821 9.60198 21.9821H15.5118C15.8144 21.9821 16.0599 21.7368 16.0599 21.4341V19.187C16.0599 18.9094 15.8532 18.6806 15.5856 18.6445Z" fill="#414042"/>
</svg>
