<svg width="24" height="24" viewBox="0 0 24 24" fill="none" xmlns="http://www.w3.org/2000/svg">
<g clip-path="url(#clip0_397_6610)">
<path d="M9.11428 4.61428L7.91986 3.41986C7.65103 3.15103 7.5 2.78644 7.5 2.40623V0H4.5V2.40623C4.5 3.7448 5.03175 5.02852 5.97825 5.97502H9.11433V4.61428H9.11428Z" fill="#E34131"/>
<path d="M14.8857 4.61428L16.0801 3.41986C16.3489 3.15103 16.5 2.78644 16.5 2.40623V0H19.5V2.40623C19.5 3.7448 18.9682 5.02852 18.0217 5.97502H14.8857V4.61428H14.8857Z" fill="#E34131"/>
<path d="M21 11.9184C21.0028 15.434 18.5089 18.5009 15.0365 19.1925C14.1431 19.3716 13.5 20.1558 13.5 21.067H10.5C10.5 20.6114 10.3392 20.1877 10.0669 19.8553C9.79405 19.523 9.41014 19.282 8.96342 19.1925C5.51445 18.5047 2.9983 15.4608 2.99999 11.9184C2.99999 7.82109 6.32108 4.5 10.4184 4.5H13.5815C17.6609 4.49775 21.0018 7.81505 21 11.9184Z" fill="#FF9F00"/>
<path d="M21 11.9184C21.0028 15.434 18.5089 18.5009 15.0366 19.1925C14.1431 19.3716 13.5 20.1558 13.5 21.067H12V4.5H13.5816C17.6609 4.49775 21.0018 7.81505 21 11.9184Z" fill="#EC781B"/>
<path d="M18 11.9051V11.9056C18 12.9753 17.6161 13.9681 16.9688 14.7401C16.3209 15.5121 15.4102 16.0634 14.3564 16.2495C13.8609 16.3371 13.5 16.7675 13.5 17.2704V24.0003H10.5V17.2709C10.4968 16.818 10.174 16.3468 9.64359 16.2495C7.53609 15.8768 6 14.0454 6 11.9056V11.9051C6 11.7856 6.00516 11.6675 6.01406 11.5503C6.67125 11.5864 12 11.0107 12 11.0107C12 11.0107 17.3288 11.5864 17.9859 11.5503C17.9953 11.6675 18 11.7856 18 11.9051Z" fill="#FDE05D"/>
<path d="M18 11.9051V11.9056C18 12.9753 17.6161 13.9681 16.9688 14.7401C16.3209 15.5121 15.4102 16.0634 14.3564 16.2495C13.8609 16.3371 13.5 16.7675 13.5 17.2704V24.0003H12V11.0107C12 11.0107 17.3288 11.5864 17.9859 11.5503C17.9953 11.6675 18 11.7856 18 11.9051Z" fill="#FFC300"/>
<path d="M17.9859 11.5497C16.6715 11.6224 16.5876 12.2669 15.1171 12.2669C13.5585 12.2669 13.5585 11.5427 12 11.5427C10.4414 11.5427 10.4414 12.2669 8.88277 12.2669C7.41183 12.2669 7.3284 11.6224 6.01402 11.5497C6.19496 9.2791 8.0948 7.49316 10.4118 7.49316H13.5881C15.9051 7.49316 17.8049 9.2791 17.9859 11.5497Z" fill="#F52C4E"/>
<path d="M17.9859 11.5497C16.6716 11.6224 16.5877 12.2669 15.1172 12.2669C13.5586 12.2669 13.5586 11.5427 12 11.5427V7.49316H13.5881C15.9052 7.49316 17.805 9.2791 17.9859 11.5497Z" fill="#BF0358"/>
</g>
<defs>
<clipPath id="clip0_397_6610">
<rect width="24" height="24" fill="white"/>
</clipPath>
</defs>
</svg>
