<svg width="120" height="120" viewBox="0 0 120 120" fill="none" xmlns="http://www.w3.org/2000/svg">
<path d="M105.704 92.9368C105.704 104.942 86.1349 114.723 61.6643 115.145C61.1114 115.157 60.5585 115.162 60.0007 115.162C34.7597 115.162 14.2969 105.212 14.2969 92.9368C14.2969 87.3329 18.5658 82.2118 25.6064 78.305C33.9846 73.6499 46.2865 70.7139 60.0007 70.7139C70.9432 70.7139 80.9873 72.5828 88.8562 75.7021C90.6333 76.4071 92.3018 77.1749 93.8421 78.0006C101.211 81.9461 105.704 87.1878 105.704 92.9368Z" fill="#5142AB"/>
<path d="M88.856 75.7008C87.2311 77.1012 85.3235 78.4001 83.1457 79.5809C75.709 83.6131 65.8774 85.8345 55.466 85.8345C45.0523 85.8345 35.223 83.6131 27.7863 79.5809C27.0258 79.1679 26.299 78.743 25.6062 78.3036C33.9844 73.6484 46.2862 70.7124 60.0005 70.7124C70.943 70.7124 80.9871 72.5813 88.856 75.7008Z" fill="#EDD9DE"/>
<path d="M105.704 92.936C105.704 104.941 86.135 114.722 61.6644 115.144C100.844 105.95 99.3641 88.672 93.8422 78C101.211 81.9452 105.704 87.187 105.704 92.936Z" fill="#BCB5E3"/>
<path d="M91.8206 62.9219C91.8206 74.1105 75.0979 83.1794 54.4661 83.1794C33.8343 83.1794 17.1119 74.1105 17.1119 62.9219C17.1119 56.1806 23.182 50.2073 32.5211 46.5277C38.6829 44.0939 46.2644 42.6621 54.4664 42.6621C63.4821 42.6621 71.7492 44.3932 78.2032 47.2786C86.5186 50.9944 91.8206 56.6224 91.8206 62.9219Z" fill="#CECECD"/>
<path d="M28.8123 89.6899C27.8122 89.6899 26.9902 88.8792 26.9902 87.8791C26.9902 86.8791 27.7897 86.0684 28.79 86.0684H28.8125C29.8126 86.0684 30.6233 86.8791 30.6233 87.8791C30.6233 88.8792 29.8123 89.6899 28.8123 89.6899Z" fill="white"/>
<path d="M31.3073 95.1718C30.3072 95.1718 29.4852 94.3611 29.4852 93.3611C29.4852 92.361 30.2847 91.5503 31.2848 91.5503H31.3073C32.3073 91.5503 33.118 92.361 33.118 93.3611C33.118 94.3611 32.3073 95.1718 31.3073 95.1718Z" fill="white"/>
</svg>
